M48
; DRILL file {KiCad (6.0.4)} date Tue Apr 19 13:43:18 2022
; FORMAT={-:-/ absolute / inch / decimal}
; #@! TF.CreationDate,2022-04-19T13:43:18-07:00
; #@! TF.GenerationSoftware,Kicad,Pcbnew,(6.0.4)
; #@! TF.FileFunction,Plated,1,2,PTH
FMAT,2
INCH
; #@! TA.AperFunction,Plated,PTH,ViaDrill
T1C0.0157
; #@! TA.AperFunction,Plated,PTH,ComponentDrill
T2C0.0300
; #@! TA.AperFunction,Plated,PTH,ComponentDrill
T3C0.0315
; #@! TA.AperFunction,Plated,PTH,ComponentDrill
T4C0.0354
; #@! TA.AperFunction,Plated,PTH,ComponentDrill
T5C0.0394
; #@! TA.AperFunction,Plated,PTH,ComponentDrill
T6C0.0433
; #@! TA.AperFunction,Plated,PTH,ComponentDrill
T7C0.0472
; #@! TA.AperFunction,Plated,PTH,ComponentDrill
T8C0.0551
%
G90
G05
T1
X3.6334Y-5.0502
X3.7704Y-4.9754
X4.2607Y-5.1195
X4.2806Y-4.4081
X4.3532Y-3.9841
X4.3621Y-5.136
X4.3857Y-4.4088
X4.4058Y-4.2848
X4.4157Y-4.7273
X4.4397Y-4.1612
X4.4476Y-4.4766
X4.4627Y-4.952
X4.4838Y-5.2947
X4.4873Y-4.4002
X4.4889Y-4.5951
X4.5007Y-3.888
X4.5263Y-4.6033
X4.5613Y-4.8419
X4.6204Y-4.5762
X4.6457Y-4.912
X4.6594Y-5.125
X4.6861Y-4.7569
X4.6906Y-4.915
X4.692Y-4.462
X4.7369Y-4.9742
X4.7406Y-4.3772
X4.7428Y-4.5776
X4.7442Y-4.4551
X4.7767Y-4.4283
X4.7846Y-5.0329
X4.7915Y-4.1394
X4.8208Y-4.4978
X4.8227Y-4.5525
X4.8349Y-4.2781
X4.866Y-4.677
X4.9137Y-5.3313
X4.9314Y-4.9226
X4.9482Y-4.7661
X4.9757Y-5.002
X4.9964Y-4.7995
X5.0109Y-4.7036
X5.0259Y-4.1947
X5.0357Y-4.637
X5.0365Y-5.2372
X5.1207Y-3.542
X5.1578Y-4.7884
X5.1668Y-4.6621
X5.1857Y-3.3553
X5.258Y-4.6303
X5.2814Y-4.897
X5.4282Y-4.9498
X5.4318Y-4.597
X5.5558Y-4.3025
X5.5912Y-4.1451
T2
X3.6607Y-5.217
X3.6607Y-5.417
X4.3212Y-3.6088
X4.4212Y-3.6088
X4.5212Y-3.6088
X4.6212Y-3.6088
X4.7212Y-3.6088
X4.8212Y-3.6088
X4.9212Y-3.6088
X5.0212Y-3.6088
X5.4932Y-4.4353
X5.4932Y-4.5353
X5.4932Y-4.6353
X5.4932Y-4.7353
X5.4932Y-4.8353
X5.4932Y-4.9353
X5.4932Y-5.0353
X5.4932Y-5.1353
X5.4932Y-5.2353
X5.5416Y-5.4384
X5.5416Y-5.5384
T3
X4.3101Y-5.175
X4.3101Y-5.475
X4.4101Y-5.175
X4.4101Y-5.475
X4.5101Y-5.175
X4.5101Y-5.475
X4.6101Y-5.175
X4.6101Y-5.475
X4.7101Y-5.175
X4.7101Y-5.475
X4.8101Y-5.175
X4.8101Y-5.475
X4.9101Y-5.175
X4.9101Y-5.475
X5.0457Y-5.022
X5.0457Y-5.322
X5.1457Y-5.022
X5.1457Y-5.322
X5.2457Y-5.022
X5.2457Y-5.322
X5.3457Y-5.022
X5.3457Y-5.322
T4
X4.0305Y-3.717
X4.1305Y-3.717
T5
X3.8407Y-5.527
X3.9407Y-5.527
X4.0407Y-5.527
X4.0607Y-3.9202
X4.0607Y-4.117
X4.0807Y-4.3438
X4.0807Y-4.5407
X5.0307Y-5.5895
X5.1307Y-5.5895
X5.2307Y-5.5895
X5.2507Y-4.2038
X5.2507Y-4.4007
X5.2805Y-3.4588
X5.2805Y-3.5588
X5.2805Y-3.6588
X5.2805Y-3.7588
X5.2805Y-3.8588
X5.3805Y-3.4588
X5.3805Y-3.5588
X5.3805Y-3.6588
X5.3805Y-3.7588
X5.3805Y-3.8588
T6
X3.9407Y-5.007
X3.9407Y-5.407
X4.0807Y-5.007
X4.0807Y-5.407
X4.2204Y-5.6368
X4.6204Y-5.6368
T7
X4.3323Y-4.207
X4.5291Y-4.207
T8
X3.4416Y-5.1014
X3.4416Y-5.6825
X3.4534Y-4.3667
X3.4534Y-4.9478
X3.4609Y-3.6321
X3.4609Y-4.2132
X3.6964Y-4.1671
X3.6964Y-4.7482
T0
M30
