%TF.GenerationSoftware,KiCad,Pcbnew,(6.0.4)*%
%TF.CreationDate,2022-04-19T13:44:17-07:00*%
%TF.ProjectId,stm32f091_project_condensed_v02_afterchange,73746d33-3266-4303-9931-5f70726f6a65,v01*%
%TF.SameCoordinates,Original*%
%TF.FileFunction,Legend,Top*%
%TF.FilePolarity,Positive*%
%FSLAX46Y46*%
G04 Gerber Fmt 4.6, Leading zero omitted, Abs format (unit mm)*
G04 Created by KiCad (PCBNEW (6.0.4)) date 2022-04-19 13:44:17*
%MOMM*%
%LPD*%
G01*
G04 APERTURE LIST*
%ADD10C,0.120000*%
%ADD11C,0.150000*%
G04 APERTURE END LIST*
D10*
X126001620Y-116764760D02*
G75*
G03*
X126001620Y-116764760I-567961J0D01*
G01*
D11*
%TO.C,J3*%
X107120000Y-91968093D02*
X107834286Y-91968093D01*
X107977143Y-92015712D01*
X108072381Y-92110950D01*
X108120000Y-92253807D01*
X108120000Y-92349045D01*
X107120000Y-91587140D02*
X107120000Y-90968093D01*
X107500953Y-91301426D01*
X107500953Y-91158569D01*
X107548572Y-91063331D01*
X107596191Y-91015712D01*
X107691429Y-90968093D01*
X107929524Y-90968093D01*
X108024762Y-91015712D01*
X108072381Y-91063331D01*
X108120000Y-91158569D01*
X108120000Y-91444283D01*
X108072381Y-91539521D01*
X108024762Y-91587140D01*
%TO.C,C20*%
X135104762Y-118141902D02*
X135057143Y-118189521D01*
X134914286Y-118237140D01*
X134819048Y-118237140D01*
X134676191Y-118189521D01*
X134580953Y-118094283D01*
X134533334Y-117999045D01*
X134485715Y-117808569D01*
X134485715Y-117665712D01*
X134533334Y-117475236D01*
X134580953Y-117379998D01*
X134676191Y-117284760D01*
X134819048Y-117237140D01*
X134914286Y-117237140D01*
X135057143Y-117284760D01*
X135104762Y-117332379D01*
X135485715Y-117332379D02*
X135533334Y-117284760D01*
X135628572Y-117237140D01*
X135866667Y-117237140D01*
X135961905Y-117284760D01*
X136009524Y-117332379D01*
X136057143Y-117427617D01*
X136057143Y-117522855D01*
X136009524Y-117665712D01*
X135438096Y-118237140D01*
X136057143Y-118237140D01*
X136676191Y-117237140D02*
X136771429Y-117237140D01*
X136866667Y-117284760D01*
X136914286Y-117332379D01*
X136961905Y-117427617D01*
X137009524Y-117618093D01*
X137009524Y-117856188D01*
X136961905Y-118046664D01*
X136914286Y-118141902D01*
X136866667Y-118189521D01*
X136771429Y-118237140D01*
X136676191Y-118237140D01*
X136580953Y-118189521D01*
X136533334Y-118141902D01*
X136485715Y-118046664D01*
X136438096Y-117856188D01*
X136438096Y-117618093D01*
X136485715Y-117427617D01*
X136533334Y-117332379D01*
X136580953Y-117284760D01*
X136676191Y-117237140D01*
%TO.C,C18*%
X129984726Y-113936790D02*
X130052070Y-113936790D01*
X130186757Y-114004134D01*
X130254100Y-114071477D01*
X130321444Y-114206164D01*
X130321444Y-114340851D01*
X130287772Y-114441866D01*
X130186757Y-114610225D01*
X130085742Y-114711240D01*
X129917383Y-114812256D01*
X129816368Y-114845927D01*
X129681681Y-114845927D01*
X129546994Y-114778584D01*
X129479650Y-114711240D01*
X129412307Y-114576553D01*
X129412307Y-114509210D01*
X129378635Y-113196011D02*
X129782696Y-113600072D01*
X129580665Y-113398042D02*
X128873558Y-114105149D01*
X129041917Y-114071477D01*
X129176604Y-114071477D01*
X129277620Y-114105149D01*
X128570513Y-113196011D02*
X128604184Y-113297027D01*
X128604184Y-113364370D01*
X128570513Y-113465385D01*
X128536841Y-113499057D01*
X128435826Y-113532729D01*
X128368482Y-113532729D01*
X128267467Y-113499057D01*
X128132780Y-113364370D01*
X128099108Y-113263355D01*
X128099108Y-113196011D01*
X128132780Y-113094996D01*
X128166452Y-113061324D01*
X128267467Y-113027653D01*
X128334810Y-113027653D01*
X128435826Y-113061324D01*
X128570513Y-113196011D01*
X128671528Y-113229683D01*
X128738871Y-113229683D01*
X128839887Y-113196011D01*
X128974574Y-113061324D01*
X129008245Y-112960309D01*
X129008245Y-112892966D01*
X128974574Y-112791950D01*
X128839887Y-112657263D01*
X128738871Y-112623592D01*
X128671528Y-112623592D01*
X128570513Y-112657263D01*
X128435826Y-112791950D01*
X128402154Y-112892966D01*
X128402154Y-112960309D01*
X128435826Y-113061324D01*
%TO.C,R18*%
X119977000Y-96071617D02*
X119500810Y-96404950D01*
X119977000Y-96643045D02*
X118977000Y-96643045D01*
X118977000Y-96262093D01*
X119024620Y-96166855D01*
X119072239Y-96119236D01*
X119167477Y-96071617D01*
X119310334Y-96071617D01*
X119405572Y-96119236D01*
X119453191Y-96166855D01*
X119500810Y-96262093D01*
X119500810Y-96643045D01*
X119977000Y-95119236D02*
X119977000Y-95690664D01*
X119977000Y-95404950D02*
X118977000Y-95404950D01*
X119119858Y-95500188D01*
X119215096Y-95595426D01*
X119262715Y-95690664D01*
X119405572Y-94547807D02*
X119357953Y-94643045D01*
X119310334Y-94690664D01*
X119215096Y-94738283D01*
X119167477Y-94738283D01*
X119072239Y-94690664D01*
X119024620Y-94643045D01*
X118977000Y-94547807D01*
X118977000Y-94357331D01*
X119024620Y-94262093D01*
X119072239Y-94214474D01*
X119167477Y-94166855D01*
X119215096Y-94166855D01*
X119310334Y-94214474D01*
X119357953Y-94262093D01*
X119405572Y-94357331D01*
X119405572Y-94547807D01*
X119453191Y-94643045D01*
X119500810Y-94690664D01*
X119596048Y-94738283D01*
X119786524Y-94738283D01*
X119881762Y-94690664D01*
X119929381Y-94643045D01*
X119977000Y-94547807D01*
X119977000Y-94357331D01*
X119929381Y-94262093D01*
X119881762Y-94214474D01*
X119786524Y-94166855D01*
X119596048Y-94166855D01*
X119500810Y-94214474D01*
X119453191Y-94262093D01*
X119405572Y-94357331D01*
%TO.C,D3*%
X111793524Y-145967140D02*
X111793524Y-144967140D01*
X112031620Y-144967140D01*
X112174477Y-145014760D01*
X112269715Y-145109998D01*
X112317334Y-145205236D01*
X112364953Y-145395712D01*
X112364953Y-145538569D01*
X112317334Y-145729045D01*
X112269715Y-145824283D01*
X112174477Y-145919521D01*
X112031620Y-145967140D01*
X111793524Y-145967140D01*
X112698286Y-144967140D02*
X113317334Y-144967140D01*
X112984000Y-145348093D01*
X113126858Y-145348093D01*
X113222096Y-145395712D01*
X113269715Y-145443331D01*
X113317334Y-145538569D01*
X113317334Y-145776664D01*
X113269715Y-145871902D01*
X113222096Y-145919521D01*
X113126858Y-145967140D01*
X112841143Y-145967140D01*
X112745905Y-145919521D01*
X112698286Y-145871902D01*
X117349715Y-145911140D02*
X117349715Y-144911140D01*
X117921143Y-145911140D02*
X117492572Y-145339712D01*
X117921143Y-144911140D02*
X117349715Y-145482569D01*
%TO.C,U2*%
X106910000Y-135996664D02*
X107719524Y-135996664D01*
X107814762Y-135949045D01*
X107862381Y-135901426D01*
X107910000Y-135806188D01*
X107910000Y-135615712D01*
X107862381Y-135520474D01*
X107814762Y-135472855D01*
X107719524Y-135425236D01*
X106910000Y-135425236D01*
X107005239Y-134996664D02*
X106957620Y-134949045D01*
X106910000Y-134853807D01*
X106910000Y-134615712D01*
X106957620Y-134520474D01*
X107005239Y-134472855D01*
X107100477Y-134425236D01*
X107195715Y-134425236D01*
X107338572Y-134472855D01*
X107910000Y-135044283D01*
X107910000Y-134425236D01*
%TO.C,C15*%
X135538762Y-139230617D02*
X135586381Y-139278236D01*
X135634000Y-139421093D01*
X135634000Y-139516331D01*
X135586381Y-139659188D01*
X135491143Y-139754426D01*
X135395905Y-139802045D01*
X135205429Y-139849664D01*
X135062572Y-139849664D01*
X134872096Y-139802045D01*
X134776858Y-139754426D01*
X134681620Y-139659188D01*
X134634000Y-139516331D01*
X134634000Y-139421093D01*
X134681620Y-139278236D01*
X134729239Y-139230617D01*
X135634000Y-138278236D02*
X135634000Y-138849664D01*
X135634000Y-138563950D02*
X134634000Y-138563950D01*
X134776858Y-138659188D01*
X134872096Y-138754426D01*
X134919715Y-138849664D01*
X134634000Y-137373474D02*
X134634000Y-137849664D01*
X135110191Y-137897283D01*
X135062572Y-137849664D01*
X135014953Y-137754426D01*
X135014953Y-137516331D01*
X135062572Y-137421093D01*
X135110191Y-137373474D01*
X135205429Y-137325855D01*
X135443524Y-137325855D01*
X135538762Y-137373474D01*
X135586381Y-137421093D01*
X135634000Y-137516331D01*
X135634000Y-137754426D01*
X135586381Y-137849664D01*
X135538762Y-137897283D01*
%TO.C,C4*%
X91560762Y-99913426D02*
X91608381Y-99961045D01*
X91656000Y-100103902D01*
X91656000Y-100199140D01*
X91608381Y-100341998D01*
X91513143Y-100437236D01*
X91417905Y-100484855D01*
X91227429Y-100532474D01*
X91084572Y-100532474D01*
X90894096Y-100484855D01*
X90798858Y-100437236D01*
X90703620Y-100341998D01*
X90656000Y-100199140D01*
X90656000Y-100103902D01*
X90703620Y-99961045D01*
X90751239Y-99913426D01*
X90989334Y-99056283D02*
X91656000Y-99056283D01*
X90608381Y-99294379D02*
X91322667Y-99532474D01*
X91322667Y-98913426D01*
%TO.C,D5*%
X112120000Y-101532855D02*
X111120000Y-101532855D01*
X111120000Y-101294760D01*
X111167620Y-101151902D01*
X111262858Y-101056664D01*
X111358096Y-101009045D01*
X111548572Y-100961426D01*
X111691429Y-100961426D01*
X111881905Y-101009045D01*
X111977143Y-101056664D01*
X112072381Y-101151902D01*
X112120000Y-101294760D01*
X112120000Y-101532855D01*
X111120000Y-100056664D02*
X111120000Y-100532855D01*
X111596191Y-100580474D01*
X111548572Y-100532855D01*
X111500953Y-100437617D01*
X111500953Y-100199521D01*
X111548572Y-100104283D01*
X111596191Y-100056664D01*
X111691429Y-100009045D01*
X111929524Y-100009045D01*
X112024762Y-100056664D01*
X112072381Y-100104283D01*
X112120000Y-100199521D01*
X112120000Y-100437617D01*
X112072381Y-100532855D01*
X112024762Y-100580474D01*
%TO.C,C16*%
X126882762Y-123569902D02*
X126835143Y-123617521D01*
X126692286Y-123665140D01*
X126597048Y-123665140D01*
X126454191Y-123617521D01*
X126358953Y-123522283D01*
X126311334Y-123427045D01*
X126263715Y-123236569D01*
X126263715Y-123093712D01*
X126311334Y-122903236D01*
X126358953Y-122807998D01*
X126454191Y-122712760D01*
X126597048Y-122665140D01*
X126692286Y-122665140D01*
X126835143Y-122712760D01*
X126882762Y-122760379D01*
X127835143Y-123665140D02*
X127263715Y-123665140D01*
X127549429Y-123665140D02*
X127549429Y-122665140D01*
X127454191Y-122807998D01*
X127358953Y-122903236D01*
X127263715Y-122950855D01*
X128692286Y-122665140D02*
X128501810Y-122665140D01*
X128406572Y-122712760D01*
X128358953Y-122760379D01*
X128263715Y-122903236D01*
X128216096Y-123093712D01*
X128216096Y-123474664D01*
X128263715Y-123569902D01*
X128311334Y-123617521D01*
X128406572Y-123665140D01*
X128597048Y-123665140D01*
X128692286Y-123617521D01*
X128739905Y-123569902D01*
X128787524Y-123474664D01*
X128787524Y-123236569D01*
X128739905Y-123141331D01*
X128692286Y-123093712D01*
X128597048Y-123046093D01*
X128406572Y-123046093D01*
X128311334Y-123093712D01*
X128263715Y-123141331D01*
X128216096Y-123236569D01*
%TO.C,RV1*%
X99612381Y-142977140D02*
X99279048Y-142500950D01*
X99040953Y-142977140D02*
X99040953Y-141977140D01*
X99421905Y-141977140D01*
X99517143Y-142024760D01*
X99564762Y-142072379D01*
X99612381Y-142167617D01*
X99612381Y-142310474D01*
X99564762Y-142405712D01*
X99517143Y-142453331D01*
X99421905Y-142500950D01*
X99040953Y-142500950D01*
X99898096Y-141977140D02*
X100231429Y-142977140D01*
X100564762Y-141977140D01*
X101421905Y-142977140D02*
X100850477Y-142977140D01*
X101136191Y-142977140D02*
X101136191Y-141977140D01*
X101040953Y-142119998D01*
X100945715Y-142215236D01*
X100850477Y-142262855D01*
%TO.C,J4*%
X94720000Y-135386093D02*
X95434286Y-135386093D01*
X95577143Y-135433712D01*
X95672381Y-135528950D01*
X95720000Y-135671807D01*
X95720000Y-135767045D01*
X95053334Y-134481331D02*
X95720000Y-134481331D01*
X94672381Y-134719426D02*
X95386667Y-134957521D01*
X95386667Y-134338474D01*
%TO.C,C12*%
X120874762Y-129385617D02*
X120922381Y-129433236D01*
X120970000Y-129576093D01*
X120970000Y-129671331D01*
X120922381Y-129814188D01*
X120827143Y-129909426D01*
X120731905Y-129957045D01*
X120541429Y-130004664D01*
X120398572Y-130004664D01*
X120208096Y-129957045D01*
X120112858Y-129909426D01*
X120017620Y-129814188D01*
X119970000Y-129671331D01*
X119970000Y-129576093D01*
X120017620Y-129433236D01*
X120065239Y-129385617D01*
X120970000Y-128433236D02*
X120970000Y-129004664D01*
X120970000Y-128718950D02*
X119970000Y-128718950D01*
X120112858Y-128814188D01*
X120208096Y-128909426D01*
X120255715Y-129004664D01*
X120065239Y-128052283D02*
X120017620Y-128004664D01*
X119970000Y-127909426D01*
X119970000Y-127671331D01*
X120017620Y-127576093D01*
X120065239Y-127528474D01*
X120160477Y-127480855D01*
X120255715Y-127480855D01*
X120398572Y-127528474D01*
X120970000Y-128099902D01*
X120970000Y-127480855D01*
%TO.C,SW1*%
X101612381Y-123168093D02*
X101660000Y-123025236D01*
X101660000Y-122787140D01*
X101612381Y-122691902D01*
X101564762Y-122644283D01*
X101469524Y-122596664D01*
X101374286Y-122596664D01*
X101279048Y-122644283D01*
X101231429Y-122691902D01*
X101183810Y-122787140D01*
X101136191Y-122977617D01*
X101088572Y-123072855D01*
X101040953Y-123120474D01*
X100945715Y-123168093D01*
X100850477Y-123168093D01*
X100755239Y-123120474D01*
X100707620Y-123072855D01*
X100660000Y-122977617D01*
X100660000Y-122739521D01*
X100707620Y-122596664D01*
X100660000Y-122263331D02*
X101660000Y-122025236D01*
X100945715Y-121834760D01*
X101660000Y-121644283D01*
X100660000Y-121406188D01*
X101660000Y-120501426D02*
X101660000Y-121072855D01*
X101660000Y-120787140D02*
X100660000Y-120787140D01*
X100802858Y-120882379D01*
X100898096Y-120977617D01*
X100945715Y-121072855D01*
%TO.C,R3*%
X108520000Y-126199426D02*
X108043810Y-126532760D01*
X108520000Y-126770855D02*
X107520000Y-126770855D01*
X107520000Y-126389902D01*
X107567620Y-126294664D01*
X107615239Y-126247045D01*
X107710477Y-126199426D01*
X107853334Y-126199426D01*
X107948572Y-126247045D01*
X107996191Y-126294664D01*
X108043810Y-126389902D01*
X108043810Y-126770855D01*
X107520000Y-125866093D02*
X107520000Y-125247045D01*
X107900953Y-125580379D01*
X107900953Y-125437521D01*
X107948572Y-125342283D01*
X107996191Y-125294664D01*
X108091429Y-125247045D01*
X108329524Y-125247045D01*
X108424762Y-125294664D01*
X108472381Y-125342283D01*
X108520000Y-125437521D01*
X108520000Y-125723236D01*
X108472381Y-125818474D01*
X108424762Y-125866093D01*
%TO.C,100mH1*%
X118840000Y-106841426D02*
X118840000Y-107317617D01*
X117840000Y-107317617D01*
X118840000Y-105984283D02*
X118840000Y-106555712D01*
X118840000Y-106269998D02*
X117840000Y-106269998D01*
X117982858Y-106365236D01*
X118078096Y-106460474D01*
X118125715Y-106555712D01*
%TO.C,R4*%
X107130000Y-131071426D02*
X106653810Y-131404760D01*
X107130000Y-131642855D02*
X106130000Y-131642855D01*
X106130000Y-131261902D01*
X106177620Y-131166664D01*
X106225239Y-131119045D01*
X106320477Y-131071426D01*
X106463334Y-131071426D01*
X106558572Y-131119045D01*
X106606191Y-131166664D01*
X106653810Y-131261902D01*
X106653810Y-131642855D01*
X106463334Y-130214283D02*
X107130000Y-130214283D01*
X106082381Y-130452379D02*
X106796667Y-130690474D01*
X106796667Y-130071426D01*
%TO.C,D7*%
X85200000Y-119032855D02*
X84200000Y-119032855D01*
X84200000Y-118794760D01*
X84247620Y-118651902D01*
X84342858Y-118556664D01*
X84438096Y-118509045D01*
X84628572Y-118461426D01*
X84771429Y-118461426D01*
X84961905Y-118509045D01*
X85057143Y-118556664D01*
X85152381Y-118651902D01*
X85200000Y-118794760D01*
X85200000Y-119032855D01*
X84200000Y-118128093D02*
X84200000Y-117461426D01*
X85200000Y-117889998D01*
X85630000Y-123636664D02*
X84630000Y-123636664D01*
X85630000Y-123065236D02*
X85058572Y-123493807D01*
X84630000Y-123065236D02*
X85201429Y-123636664D01*
%TO.C,R8*%
X116740953Y-129947140D02*
X116407620Y-129470950D01*
X116169524Y-129947140D02*
X116169524Y-128947140D01*
X116550477Y-128947140D01*
X116645715Y-128994760D01*
X116693334Y-129042379D01*
X116740953Y-129137617D01*
X116740953Y-129280474D01*
X116693334Y-129375712D01*
X116645715Y-129423331D01*
X116550477Y-129470950D01*
X116169524Y-129470950D01*
X117312381Y-129375712D02*
X117217143Y-129328093D01*
X117169524Y-129280474D01*
X117121905Y-129185236D01*
X117121905Y-129137617D01*
X117169524Y-129042379D01*
X117217143Y-128994760D01*
X117312381Y-128947140D01*
X117502858Y-128947140D01*
X117598096Y-128994760D01*
X117645715Y-129042379D01*
X117693334Y-129137617D01*
X117693334Y-129185236D01*
X117645715Y-129280474D01*
X117598096Y-129328093D01*
X117502858Y-129375712D01*
X117312381Y-129375712D01*
X117217143Y-129423331D01*
X117169524Y-129470950D01*
X117121905Y-129566188D01*
X117121905Y-129756664D01*
X117169524Y-129851902D01*
X117217143Y-129899521D01*
X117312381Y-129947140D01*
X117502858Y-129947140D01*
X117598096Y-129899521D01*
X117645715Y-129851902D01*
X117693334Y-129756664D01*
X117693334Y-129566188D01*
X117645715Y-129470950D01*
X117598096Y-129423331D01*
X117502858Y-129375712D01*
%TO.C,LS1*%
X142464239Y-138761902D02*
X142464239Y-138285712D01*
X143464239Y-138285712D01*
X142511858Y-139047617D02*
X142464239Y-139190474D01*
X142464239Y-139428569D01*
X142511858Y-139523807D01*
X142559477Y-139571426D01*
X142654715Y-139619045D01*
X142749953Y-139619045D01*
X142845191Y-139571426D01*
X142892810Y-139523807D01*
X142940429Y-139428569D01*
X142988048Y-139238093D01*
X143035667Y-139142855D01*
X143083286Y-139095236D01*
X143178524Y-139047617D01*
X143273762Y-139047617D01*
X143369000Y-139095236D01*
X143416620Y-139142855D01*
X143464239Y-139238093D01*
X143464239Y-139476188D01*
X143416620Y-139619045D01*
X142464239Y-140571426D02*
X142464239Y-139999998D01*
X142464239Y-140285712D02*
X143464239Y-140285712D01*
X143321381Y-140190474D01*
X143226143Y-140095236D01*
X143178524Y-139999998D01*
%TO.C,SW2*%
X120942381Y-103138093D02*
X120990000Y-102995236D01*
X120990000Y-102757140D01*
X120942381Y-102661902D01*
X120894762Y-102614283D01*
X120799524Y-102566664D01*
X120704286Y-102566664D01*
X120609048Y-102614283D01*
X120561429Y-102661902D01*
X120513810Y-102757140D01*
X120466191Y-102947617D01*
X120418572Y-103042855D01*
X120370953Y-103090474D01*
X120275715Y-103138093D01*
X120180477Y-103138093D01*
X120085239Y-103090474D01*
X120037620Y-103042855D01*
X119990000Y-102947617D01*
X119990000Y-102709521D01*
X120037620Y-102566664D01*
X119990000Y-102233331D02*
X120990000Y-101995236D01*
X120275715Y-101804760D01*
X120990000Y-101614283D01*
X119990000Y-101376188D01*
X120085239Y-101042855D02*
X120037620Y-100995236D01*
X119990000Y-100899998D01*
X119990000Y-100661902D01*
X120037620Y-100566664D01*
X120085239Y-100519045D01*
X120180477Y-100471426D01*
X120275715Y-100471426D01*
X120418572Y-100519045D01*
X120990000Y-101090474D01*
X120990000Y-100471426D01*
%TO.C,R9*%
X132610000Y-138851426D02*
X132133810Y-139184760D01*
X132610000Y-139422855D02*
X131610000Y-139422855D01*
X131610000Y-139041902D01*
X131657620Y-138946664D01*
X131705239Y-138899045D01*
X131800477Y-138851426D01*
X131943334Y-138851426D01*
X132038572Y-138899045D01*
X132086191Y-138946664D01*
X132133810Y-139041902D01*
X132133810Y-139422855D01*
X132610000Y-138375236D02*
X132610000Y-138184760D01*
X132562381Y-138089521D01*
X132514762Y-138041902D01*
X132371905Y-137946664D01*
X132181429Y-137899045D01*
X131800477Y-137899045D01*
X131705239Y-137946664D01*
X131657620Y-137994283D01*
X131610000Y-138089521D01*
X131610000Y-138279998D01*
X131657620Y-138375236D01*
X131705239Y-138422855D01*
X131800477Y-138470474D01*
X132038572Y-138470474D01*
X132133810Y-138422855D01*
X132181429Y-138375236D01*
X132229048Y-138279998D01*
X132229048Y-138089521D01*
X132181429Y-137994283D01*
X132133810Y-137946664D01*
X132038572Y-137899045D01*
%TO.C,R5*%
X114640953Y-130177140D02*
X114307620Y-129700950D01*
X114069524Y-130177140D02*
X114069524Y-129177140D01*
X114450477Y-129177140D01*
X114545715Y-129224760D01*
X114593334Y-129272379D01*
X114640953Y-129367617D01*
X114640953Y-129510474D01*
X114593334Y-129605712D01*
X114545715Y-129653331D01*
X114450477Y-129700950D01*
X114069524Y-129700950D01*
X115545715Y-129177140D02*
X115069524Y-129177140D01*
X115021905Y-129653331D01*
X115069524Y-129605712D01*
X115164762Y-129558093D01*
X115402858Y-129558093D01*
X115498096Y-129605712D01*
X115545715Y-129653331D01*
X115593334Y-129748569D01*
X115593334Y-129986664D01*
X115545715Y-130081902D01*
X115498096Y-130129521D01*
X115402858Y-130177140D01*
X115164762Y-130177140D01*
X115069524Y-130129521D01*
X115021905Y-130081902D01*
%TO.C,D8*%
X91370000Y-113962855D02*
X90370000Y-113962855D01*
X90370000Y-113724760D01*
X90417620Y-113581902D01*
X90512858Y-113486664D01*
X90608096Y-113439045D01*
X90798572Y-113391426D01*
X90941429Y-113391426D01*
X91131905Y-113439045D01*
X91227143Y-113486664D01*
X91322381Y-113581902D01*
X91370000Y-113724760D01*
X91370000Y-113962855D01*
X90798572Y-112819998D02*
X90750953Y-112915236D01*
X90703334Y-112962855D01*
X90608096Y-113010474D01*
X90560477Y-113010474D01*
X90465239Y-112962855D01*
X90417620Y-112915236D01*
X90370000Y-112819998D01*
X90370000Y-112629521D01*
X90417620Y-112534283D01*
X90465239Y-112486664D01*
X90560477Y-112439045D01*
X90608096Y-112439045D01*
X90703334Y-112486664D01*
X90750953Y-112534283D01*
X90798572Y-112629521D01*
X90798572Y-112819998D01*
X90846191Y-112915236D01*
X90893810Y-112962855D01*
X90989048Y-113010474D01*
X91179524Y-113010474D01*
X91274762Y-112962855D01*
X91322381Y-112915236D01*
X91370000Y-112819998D01*
X91370000Y-112629521D01*
X91322381Y-112534283D01*
X91274762Y-112486664D01*
X91179524Y-112439045D01*
X90989048Y-112439045D01*
X90893810Y-112486664D01*
X90846191Y-112534283D01*
X90798572Y-112629521D01*
X91800000Y-118566664D02*
X90800000Y-118566664D01*
X91800000Y-117995236D02*
X91228572Y-118423807D01*
X90800000Y-117995236D02*
X91371429Y-118566664D01*
%TO.C,R11*%
X107114762Y-94187140D02*
X106781429Y-93710950D01*
X106543334Y-94187140D02*
X106543334Y-93187140D01*
X106924286Y-93187140D01*
X107019524Y-93234760D01*
X107067143Y-93282379D01*
X107114762Y-93377617D01*
X107114762Y-93520474D01*
X107067143Y-93615712D01*
X107019524Y-93663331D01*
X106924286Y-93710950D01*
X106543334Y-93710950D01*
X108067143Y-94187140D02*
X107495715Y-94187140D01*
X107781429Y-94187140D02*
X107781429Y-93187140D01*
X107686191Y-93329998D01*
X107590953Y-93425236D01*
X107495715Y-93472855D01*
X109019524Y-94187140D02*
X108448096Y-94187140D01*
X108733810Y-94187140D02*
X108733810Y-93187140D01*
X108638572Y-93329998D01*
X108543334Y-93425236D01*
X108448096Y-93472855D01*
%TO.C,C19*%
X132470762Y-119251902D02*
X132423143Y-119299521D01*
X132280286Y-119347140D01*
X132185048Y-119347140D01*
X132042191Y-119299521D01*
X131946953Y-119204283D01*
X131899334Y-119109045D01*
X131851715Y-118918569D01*
X131851715Y-118775712D01*
X131899334Y-118585236D01*
X131946953Y-118489998D01*
X132042191Y-118394760D01*
X132185048Y-118347140D01*
X132280286Y-118347140D01*
X132423143Y-118394760D01*
X132470762Y-118442379D01*
X133423143Y-119347140D02*
X132851715Y-119347140D01*
X133137429Y-119347140D02*
X133137429Y-118347140D01*
X133042191Y-118489998D01*
X132946953Y-118585236D01*
X132851715Y-118632855D01*
X133899334Y-119347140D02*
X134089810Y-119347140D01*
X134185048Y-119299521D01*
X134232667Y-119251902D01*
X134327905Y-119109045D01*
X134375524Y-118918569D01*
X134375524Y-118537617D01*
X134327905Y-118442379D01*
X134280286Y-118394760D01*
X134185048Y-118347140D01*
X133994572Y-118347140D01*
X133899334Y-118394760D01*
X133851715Y-118442379D01*
X133804096Y-118537617D01*
X133804096Y-118775712D01*
X133851715Y-118870950D01*
X133899334Y-118918569D01*
X133994572Y-118966188D01*
X134185048Y-118966188D01*
X134280286Y-118918569D01*
X134327905Y-118870950D01*
X134375524Y-118775712D01*
%TO.C,C11*%
X123954762Y-142877617D02*
X124002381Y-142925236D01*
X124050000Y-143068093D01*
X124050000Y-143163331D01*
X124002381Y-143306188D01*
X123907143Y-143401426D01*
X123811905Y-143449045D01*
X123621429Y-143496664D01*
X123478572Y-143496664D01*
X123288096Y-143449045D01*
X123192858Y-143401426D01*
X123097620Y-143306188D01*
X123050000Y-143163331D01*
X123050000Y-143068093D01*
X123097620Y-142925236D01*
X123145239Y-142877617D01*
X124050000Y-141925236D02*
X124050000Y-142496664D01*
X124050000Y-142210950D02*
X123050000Y-142210950D01*
X123192858Y-142306188D01*
X123288096Y-142401426D01*
X123335715Y-142496664D01*
X124050000Y-140972855D02*
X124050000Y-141544283D01*
X124050000Y-141258569D02*
X123050000Y-141258569D01*
X123192858Y-141353807D01*
X123288096Y-141449045D01*
X123335715Y-141544283D01*
%TO.C,U3*%
X124001646Y-122326282D02*
X124574066Y-122898702D01*
X124675081Y-122932374D01*
X124742425Y-122932374D01*
X124843440Y-122898702D01*
X124978127Y-122764015D01*
X125011799Y-122663000D01*
X125011799Y-122595656D01*
X124978127Y-122494641D01*
X124405707Y-121922221D01*
X124675081Y-121652847D02*
X125112814Y-121215115D01*
X125146486Y-121720191D01*
X125247501Y-121619176D01*
X125348516Y-121585504D01*
X125415860Y-121585504D01*
X125516875Y-121619176D01*
X125685234Y-121787534D01*
X125718906Y-121888550D01*
X125718906Y-121955893D01*
X125685234Y-122056908D01*
X125483203Y-122258939D01*
X125382188Y-122292611D01*
X125314845Y-122292611D01*
%TO.C,D1*%
X98076000Y-132996855D02*
X97076000Y-132996855D01*
X97076000Y-132758760D01*
X97123620Y-132615902D01*
X97218858Y-132520664D01*
X97314096Y-132473045D01*
X97504572Y-132425426D01*
X97647429Y-132425426D01*
X97837905Y-132473045D01*
X97933143Y-132520664D01*
X98028381Y-132615902D01*
X98076000Y-132758760D01*
X98076000Y-132996855D01*
X98076000Y-131473045D02*
X98076000Y-132044474D01*
X98076000Y-131758760D02*
X97076000Y-131758760D01*
X97218858Y-131853998D01*
X97314096Y-131949236D01*
X97361715Y-132044474D01*
X102430000Y-135916664D02*
X101430000Y-135916664D01*
X102430000Y-135345236D02*
X101858572Y-135773807D01*
X101430000Y-135345236D02*
X102001429Y-135916664D01*
%TO.C,R6*%
X110966000Y-122757426D02*
X110489810Y-123090760D01*
X110966000Y-123328855D02*
X109966000Y-123328855D01*
X109966000Y-122947902D01*
X110013620Y-122852664D01*
X110061239Y-122805045D01*
X110156477Y-122757426D01*
X110299334Y-122757426D01*
X110394572Y-122805045D01*
X110442191Y-122852664D01*
X110489810Y-122947902D01*
X110489810Y-123328855D01*
X109966000Y-121900283D02*
X109966000Y-122090760D01*
X110013620Y-122185998D01*
X110061239Y-122233617D01*
X110204096Y-122328855D01*
X110394572Y-122376474D01*
X110775524Y-122376474D01*
X110870762Y-122328855D01*
X110918381Y-122281236D01*
X110966000Y-122185998D01*
X110966000Y-121995521D01*
X110918381Y-121900283D01*
X110870762Y-121852664D01*
X110775524Y-121805045D01*
X110537429Y-121805045D01*
X110442191Y-121852664D01*
X110394572Y-121900283D01*
X110346953Y-121995521D01*
X110346953Y-122185998D01*
X110394572Y-122281236D01*
X110442191Y-122328855D01*
X110537429Y-122376474D01*
%TO.C,RV2*%
X129642381Y-144657140D02*
X129309048Y-144180950D01*
X129070953Y-144657140D02*
X129070953Y-143657140D01*
X129451905Y-143657140D01*
X129547143Y-143704760D01*
X129594762Y-143752379D01*
X129642381Y-143847617D01*
X129642381Y-143990474D01*
X129594762Y-144085712D01*
X129547143Y-144133331D01*
X129451905Y-144180950D01*
X129070953Y-144180950D01*
X129928096Y-143657140D02*
X130261429Y-144657140D01*
X130594762Y-143657140D01*
X130880477Y-143752379D02*
X130928096Y-143704760D01*
X131023334Y-143657140D01*
X131261429Y-143657140D01*
X131356667Y-143704760D01*
X131404286Y-143752379D01*
X131451905Y-143847617D01*
X131451905Y-143942855D01*
X131404286Y-144085712D01*
X130832858Y-144657140D01*
X131451905Y-144657140D01*
%TO.C,LD1*%
X100220953Y-96897140D02*
X99744762Y-96897140D01*
X99744762Y-95897140D01*
X100554286Y-96897140D02*
X100554286Y-95897140D01*
X100792381Y-95897140D01*
X100935239Y-95944760D01*
X101030477Y-96039998D01*
X101078096Y-96135236D01*
X101125715Y-96325712D01*
X101125715Y-96468569D01*
X101078096Y-96659045D01*
X101030477Y-96754283D01*
X100935239Y-96849521D01*
X100792381Y-96897140D01*
X100554286Y-96897140D01*
X102078096Y-96897140D02*
X101506667Y-96897140D01*
X101792381Y-96897140D02*
X101792381Y-95897140D01*
X101697143Y-96039998D01*
X101601905Y-96135236D01*
X101506667Y-96182855D01*
%TO.C,R19*%
X123150000Y-96027617D02*
X122673810Y-96360950D01*
X123150000Y-96599045D02*
X122150000Y-96599045D01*
X122150000Y-96218093D01*
X122197620Y-96122855D01*
X122245239Y-96075236D01*
X122340477Y-96027617D01*
X122483334Y-96027617D01*
X122578572Y-96075236D01*
X122626191Y-96122855D01*
X122673810Y-96218093D01*
X122673810Y-96599045D01*
X123150000Y-95075236D02*
X123150000Y-95646664D01*
X123150000Y-95360950D02*
X122150000Y-95360950D01*
X122292858Y-95456188D01*
X122388096Y-95551426D01*
X122435715Y-95646664D01*
X123150000Y-94599045D02*
X123150000Y-94408569D01*
X123102381Y-94313331D01*
X123054762Y-94265712D01*
X122911905Y-94170474D01*
X122721429Y-94122855D01*
X122340477Y-94122855D01*
X122245239Y-94170474D01*
X122197620Y-94218093D01*
X122150000Y-94313331D01*
X122150000Y-94503807D01*
X122197620Y-94599045D01*
X122245239Y-94646664D01*
X122340477Y-94694283D01*
X122578572Y-94694283D01*
X122673810Y-94646664D01*
X122721429Y-94599045D01*
X122769048Y-94503807D01*
X122769048Y-94313331D01*
X122721429Y-94218093D01*
X122673810Y-94170474D01*
X122578572Y-94122855D01*
%TO.C,C23*%
X120786762Y-108358902D02*
X120739143Y-108406521D01*
X120596286Y-108454140D01*
X120501048Y-108454140D01*
X120358191Y-108406521D01*
X120262953Y-108311283D01*
X120215334Y-108216045D01*
X120167715Y-108025569D01*
X120167715Y-107882712D01*
X120215334Y-107692236D01*
X120262953Y-107596998D01*
X120358191Y-107501760D01*
X120501048Y-107454140D01*
X120596286Y-107454140D01*
X120739143Y-107501760D01*
X120786762Y-107549379D01*
X121167715Y-107549379D02*
X121215334Y-107501760D01*
X121310572Y-107454140D01*
X121548667Y-107454140D01*
X121643905Y-107501760D01*
X121691524Y-107549379D01*
X121739143Y-107644617D01*
X121739143Y-107739855D01*
X121691524Y-107882712D01*
X121120096Y-108454140D01*
X121739143Y-108454140D01*
X122072477Y-107454140D02*
X122691524Y-107454140D01*
X122358191Y-107835093D01*
X122501048Y-107835093D01*
X122596286Y-107882712D01*
X122643905Y-107930331D01*
X122691524Y-108025569D01*
X122691524Y-108263664D01*
X122643905Y-108358902D01*
X122596286Y-108406521D01*
X122501048Y-108454140D01*
X122215334Y-108454140D01*
X122120096Y-108406521D01*
X122072477Y-108358902D01*
%TO.C,C2*%
X91560762Y-102199426D02*
X91608381Y-102247045D01*
X91656000Y-102389902D01*
X91656000Y-102485140D01*
X91608381Y-102627998D01*
X91513143Y-102723236D01*
X91417905Y-102770855D01*
X91227429Y-102818474D01*
X91084572Y-102818474D01*
X90894096Y-102770855D01*
X90798858Y-102723236D01*
X90703620Y-102627998D01*
X90656000Y-102485140D01*
X90656000Y-102389902D01*
X90703620Y-102247045D01*
X90751239Y-102199426D01*
X90751239Y-101818474D02*
X90703620Y-101770855D01*
X90656000Y-101675617D01*
X90656000Y-101437521D01*
X90703620Y-101342283D01*
X90751239Y-101294664D01*
X90846477Y-101247045D01*
X90941715Y-101247045D01*
X91084572Y-101294664D01*
X91656000Y-101866093D01*
X91656000Y-101247045D01*
%TO.C,R20*%
X126710000Y-96017617D02*
X126233810Y-96350950D01*
X126710000Y-96589045D02*
X125710000Y-96589045D01*
X125710000Y-96208093D01*
X125757620Y-96112855D01*
X125805239Y-96065236D01*
X125900477Y-96017617D01*
X126043334Y-96017617D01*
X126138572Y-96065236D01*
X126186191Y-96112855D01*
X126233810Y-96208093D01*
X126233810Y-96589045D01*
X125805239Y-95636664D02*
X125757620Y-95589045D01*
X125710000Y-95493807D01*
X125710000Y-95255712D01*
X125757620Y-95160474D01*
X125805239Y-95112855D01*
X125900477Y-95065236D01*
X125995715Y-95065236D01*
X126138572Y-95112855D01*
X126710000Y-95684283D01*
X126710000Y-95065236D01*
X125710000Y-94446188D02*
X125710000Y-94350950D01*
X125757620Y-94255712D01*
X125805239Y-94208093D01*
X125900477Y-94160474D01*
X126090953Y-94112855D01*
X126329048Y-94112855D01*
X126519524Y-94160474D01*
X126614762Y-94208093D01*
X126662381Y-94255712D01*
X126710000Y-94350950D01*
X126710000Y-94446188D01*
X126662381Y-94541426D01*
X126614762Y-94589045D01*
X126519524Y-94636664D01*
X126329048Y-94684283D01*
X126090953Y-94684283D01*
X125900477Y-94636664D01*
X125805239Y-94589045D01*
X125757620Y-94541426D01*
X125710000Y-94446188D01*
%TO.C,C22*%
X109914762Y-114217617D02*
X109962381Y-114265236D01*
X110010000Y-114408093D01*
X110010000Y-114503331D01*
X109962381Y-114646188D01*
X109867143Y-114741426D01*
X109771905Y-114789045D01*
X109581429Y-114836664D01*
X109438572Y-114836664D01*
X109248096Y-114789045D01*
X109152858Y-114741426D01*
X109057620Y-114646188D01*
X109010000Y-114503331D01*
X109010000Y-114408093D01*
X109057620Y-114265236D01*
X109105239Y-114217617D01*
X109105239Y-113836664D02*
X109057620Y-113789045D01*
X109010000Y-113693807D01*
X109010000Y-113455712D01*
X109057620Y-113360474D01*
X109105239Y-113312855D01*
X109200477Y-113265236D01*
X109295715Y-113265236D01*
X109438572Y-113312855D01*
X110010000Y-113884283D01*
X110010000Y-113265236D01*
X109105239Y-112884283D02*
X109057620Y-112836664D01*
X109010000Y-112741426D01*
X109010000Y-112503331D01*
X109057620Y-112408093D01*
X109105239Y-112360474D01*
X109200477Y-112312855D01*
X109295715Y-112312855D01*
X109438572Y-112360474D01*
X110010000Y-112931902D01*
X110010000Y-112312855D01*
%TO.C,U1*%
X93997715Y-95897140D02*
X93997715Y-96706664D01*
X94045334Y-96801902D01*
X94092953Y-96849521D01*
X94188191Y-96897140D01*
X94378667Y-96897140D01*
X94473905Y-96849521D01*
X94521524Y-96801902D01*
X94569143Y-96706664D01*
X94569143Y-95897140D01*
X95569143Y-96897140D02*
X94997715Y-96897140D01*
X95283429Y-96897140D02*
X95283429Y-95897140D01*
X95188191Y-96039998D01*
X95092953Y-96135236D01*
X94997715Y-96182855D01*
%TO.C,C21*%
X97248762Y-102715617D02*
X97296381Y-102763236D01*
X97344000Y-102906093D01*
X97344000Y-103001331D01*
X97296381Y-103144188D01*
X97201143Y-103239426D01*
X97105905Y-103287045D01*
X96915429Y-103334664D01*
X96772572Y-103334664D01*
X96582096Y-103287045D01*
X96486858Y-103239426D01*
X96391620Y-103144188D01*
X96344000Y-103001331D01*
X96344000Y-102906093D01*
X96391620Y-102763236D01*
X96439239Y-102715617D01*
X96439239Y-102334664D02*
X96391620Y-102287045D01*
X96344000Y-102191807D01*
X96344000Y-101953712D01*
X96391620Y-101858474D01*
X96439239Y-101810855D01*
X96534477Y-101763236D01*
X96629715Y-101763236D01*
X96772572Y-101810855D01*
X97344000Y-102382283D01*
X97344000Y-101763236D01*
X97344000Y-100810855D02*
X97344000Y-101382283D01*
X97344000Y-101096569D02*
X96344000Y-101096569D01*
X96486858Y-101191807D01*
X96582096Y-101287045D01*
X96629715Y-101382283D01*
%TO.C,C14*%
X138964762Y-139277617D02*
X139012381Y-139325236D01*
X139060000Y-139468093D01*
X139060000Y-139563331D01*
X139012381Y-139706188D01*
X138917143Y-139801426D01*
X138821905Y-139849045D01*
X138631429Y-139896664D01*
X138488572Y-139896664D01*
X138298096Y-139849045D01*
X138202858Y-139801426D01*
X138107620Y-139706188D01*
X138060000Y-139563331D01*
X138060000Y-139468093D01*
X138107620Y-139325236D01*
X138155239Y-139277617D01*
X139060000Y-138325236D02*
X139060000Y-138896664D01*
X139060000Y-138610950D02*
X138060000Y-138610950D01*
X138202858Y-138706188D01*
X138298096Y-138801426D01*
X138345715Y-138896664D01*
X138393334Y-137468093D02*
X139060000Y-137468093D01*
X138012381Y-137706188D02*
X138726667Y-137944283D01*
X138726667Y-137325236D01*
%TO.C,R1*%
X93576953Y-142363140D02*
X93243620Y-141886950D01*
X93005524Y-142363140D02*
X93005524Y-141363140D01*
X93386477Y-141363140D01*
X93481715Y-141410760D01*
X93529334Y-141458379D01*
X93576953Y-141553617D01*
X93576953Y-141696474D01*
X93529334Y-141791712D01*
X93481715Y-141839331D01*
X93386477Y-141886950D01*
X93005524Y-141886950D01*
X94529334Y-142363140D02*
X93957905Y-142363140D01*
X94243620Y-142363140D02*
X94243620Y-141363140D01*
X94148381Y-141505998D01*
X94053143Y-141601236D01*
X93957905Y-141648855D01*
%TO.C,C13*%
X129368762Y-139236617D02*
X129416381Y-139284236D01*
X129464000Y-139427093D01*
X129464000Y-139522331D01*
X129416381Y-139665188D01*
X129321143Y-139760426D01*
X129225905Y-139808045D01*
X129035429Y-139855664D01*
X128892572Y-139855664D01*
X128702096Y-139808045D01*
X128606858Y-139760426D01*
X128511620Y-139665188D01*
X128464000Y-139522331D01*
X128464000Y-139427093D01*
X128511620Y-139284236D01*
X128559239Y-139236617D01*
X129464000Y-138284236D02*
X129464000Y-138855664D01*
X129464000Y-138569950D02*
X128464000Y-138569950D01*
X128606858Y-138665188D01*
X128702096Y-138760426D01*
X128749715Y-138855664D01*
X128464000Y-137950902D02*
X128464000Y-137331855D01*
X128844953Y-137665188D01*
X128844953Y-137522331D01*
X128892572Y-137427093D01*
X128940191Y-137379474D01*
X129035429Y-137331855D01*
X129273524Y-137331855D01*
X129368762Y-137379474D01*
X129416381Y-137427093D01*
X129464000Y-137522331D01*
X129464000Y-137808045D01*
X129416381Y-137903283D01*
X129368762Y-137950902D01*
%TO.C,R21*%
X126073000Y-109787617D02*
X125596810Y-110120950D01*
X126073000Y-110359045D02*
X125073000Y-110359045D01*
X125073000Y-109978093D01*
X125120620Y-109882855D01*
X125168239Y-109835236D01*
X125263477Y-109787617D01*
X125406334Y-109787617D01*
X125501572Y-109835236D01*
X125549191Y-109882855D01*
X125596810Y-109978093D01*
X125596810Y-110359045D01*
X125168239Y-109406664D02*
X125120620Y-109359045D01*
X125073000Y-109263807D01*
X125073000Y-109025712D01*
X125120620Y-108930474D01*
X125168239Y-108882855D01*
X125263477Y-108835236D01*
X125358715Y-108835236D01*
X125501572Y-108882855D01*
X126073000Y-109454283D01*
X126073000Y-108835236D01*
X126073000Y-107882855D02*
X126073000Y-108454283D01*
X126073000Y-108168569D02*
X125073000Y-108168569D01*
X125215858Y-108263807D01*
X125311096Y-108359045D01*
X125358715Y-108454283D01*
%TO.C,C8*%
X101390953Y-88181902D02*
X101343334Y-88229521D01*
X101200477Y-88277140D01*
X101105239Y-88277140D01*
X100962381Y-88229521D01*
X100867143Y-88134283D01*
X100819524Y-88039045D01*
X100771905Y-87848569D01*
X100771905Y-87705712D01*
X100819524Y-87515236D01*
X100867143Y-87419998D01*
X100962381Y-87324760D01*
X101105239Y-87277140D01*
X101200477Y-87277140D01*
X101343334Y-87324760D01*
X101390953Y-87372379D01*
X101962381Y-87705712D02*
X101867143Y-87658093D01*
X101819524Y-87610474D01*
X101771905Y-87515236D01*
X101771905Y-87467617D01*
X101819524Y-87372379D01*
X101867143Y-87324760D01*
X101962381Y-87277140D01*
X102152858Y-87277140D01*
X102248096Y-87324760D01*
X102295715Y-87372379D01*
X102343334Y-87467617D01*
X102343334Y-87515236D01*
X102295715Y-87610474D01*
X102248096Y-87658093D01*
X102152858Y-87705712D01*
X101962381Y-87705712D01*
X101867143Y-87753331D01*
X101819524Y-87800950D01*
X101771905Y-87896188D01*
X101771905Y-88086664D01*
X101819524Y-88181902D01*
X101867143Y-88229521D01*
X101962381Y-88277140D01*
X102152858Y-88277140D01*
X102248096Y-88229521D01*
X102295715Y-88181902D01*
X102343334Y-88086664D01*
X102343334Y-87896188D01*
X102295715Y-87800950D01*
X102248096Y-87753331D01*
X102152858Y-87705712D01*
%TO.C,D9*%
X84900000Y-137692855D02*
X83900000Y-137692855D01*
X83900000Y-137454760D01*
X83947620Y-137311902D01*
X84042858Y-137216664D01*
X84138096Y-137169045D01*
X84328572Y-137121426D01*
X84471429Y-137121426D01*
X84661905Y-137169045D01*
X84757143Y-137216664D01*
X84852381Y-137311902D01*
X84900000Y-137454760D01*
X84900000Y-137692855D01*
X84900000Y-136645236D02*
X84900000Y-136454760D01*
X84852381Y-136359521D01*
X84804762Y-136311902D01*
X84661905Y-136216664D01*
X84471429Y-136169045D01*
X84090477Y-136169045D01*
X83995239Y-136216664D01*
X83947620Y-136264283D01*
X83900000Y-136359521D01*
X83900000Y-136549998D01*
X83947620Y-136645236D01*
X83995239Y-136692855D01*
X84090477Y-136740474D01*
X84328572Y-136740474D01*
X84423810Y-136692855D01*
X84471429Y-136645236D01*
X84519048Y-136549998D01*
X84519048Y-136359521D01*
X84471429Y-136264283D01*
X84423810Y-136216664D01*
X84328572Y-136169045D01*
X85330000Y-142296664D02*
X84330000Y-142296664D01*
X85330000Y-141725236D02*
X84758572Y-142153807D01*
X84330000Y-141725236D02*
X84901429Y-142296664D01*
%TO.C,D4*%
X106320000Y-133382855D02*
X105320000Y-133382855D01*
X105320000Y-133144760D01*
X105367620Y-133001902D01*
X105462858Y-132906664D01*
X105558096Y-132859045D01*
X105748572Y-132811426D01*
X105891429Y-132811426D01*
X106081905Y-132859045D01*
X106177143Y-132906664D01*
X106272381Y-133001902D01*
X106320000Y-133144760D01*
X106320000Y-133382855D01*
X105653334Y-131954283D02*
X106320000Y-131954283D01*
X105272381Y-132192379D02*
X105986667Y-132430474D01*
X105986667Y-131811426D01*
X102780000Y-129336664D02*
X101780000Y-129336664D01*
X102780000Y-128765236D02*
X102208572Y-129193807D01*
X101780000Y-128765236D02*
X102351429Y-129336664D01*
%TO.C,D2*%
X96307524Y-100271140D02*
X96307524Y-99271140D01*
X96545620Y-99271140D01*
X96688477Y-99318760D01*
X96783715Y-99413998D01*
X96831334Y-99509236D01*
X96878953Y-99699712D01*
X96878953Y-99842569D01*
X96831334Y-100033045D01*
X96783715Y-100128283D01*
X96688477Y-100223521D01*
X96545620Y-100271140D01*
X96307524Y-100271140D01*
X97259905Y-99366379D02*
X97307524Y-99318760D01*
X97402762Y-99271140D01*
X97640858Y-99271140D01*
X97736096Y-99318760D01*
X97783715Y-99366379D01*
X97831334Y-99461617D01*
X97831334Y-99556855D01*
X97783715Y-99699712D01*
X97212286Y-100271140D01*
X97831334Y-100271140D01*
%TO.C,R15*%
X113330000Y-99357617D02*
X112853810Y-99690950D01*
X113330000Y-99929045D02*
X112330000Y-99929045D01*
X112330000Y-99548093D01*
X112377620Y-99452855D01*
X112425239Y-99405236D01*
X112520477Y-99357617D01*
X112663334Y-99357617D01*
X112758572Y-99405236D01*
X112806191Y-99452855D01*
X112853810Y-99548093D01*
X112853810Y-99929045D01*
X113330000Y-98405236D02*
X113330000Y-98976664D01*
X113330000Y-98690950D02*
X112330000Y-98690950D01*
X112472858Y-98786188D01*
X112568096Y-98881426D01*
X112615715Y-98976664D01*
X112330000Y-97500474D02*
X112330000Y-97976664D01*
X112806191Y-98024283D01*
X112758572Y-97976664D01*
X112710953Y-97881426D01*
X112710953Y-97643331D01*
X112758572Y-97548093D01*
X112806191Y-97500474D01*
X112901429Y-97452855D01*
X113139524Y-97452855D01*
X113234762Y-97500474D01*
X113282381Y-97548093D01*
X113330000Y-97643331D01*
X113330000Y-97881426D01*
X113282381Y-97976664D01*
X113234762Y-98024283D01*
%TO.C,R16*%
X115913000Y-99246617D02*
X115436810Y-99579950D01*
X115913000Y-99818045D02*
X114913000Y-99818045D01*
X114913000Y-99437093D01*
X114960620Y-99341855D01*
X115008239Y-99294236D01*
X115103477Y-99246617D01*
X115246334Y-99246617D01*
X115341572Y-99294236D01*
X115389191Y-99341855D01*
X115436810Y-99437093D01*
X115436810Y-99818045D01*
X115913000Y-98294236D02*
X115913000Y-98865664D01*
X115913000Y-98579950D02*
X114913000Y-98579950D01*
X115055858Y-98675188D01*
X115151096Y-98770426D01*
X115198715Y-98865664D01*
X114913000Y-97437093D02*
X114913000Y-97627569D01*
X114960620Y-97722807D01*
X115008239Y-97770426D01*
X115151096Y-97865664D01*
X115341572Y-97913283D01*
X115722524Y-97913283D01*
X115817762Y-97865664D01*
X115865381Y-97818045D01*
X115913000Y-97722807D01*
X115913000Y-97532331D01*
X115865381Y-97437093D01*
X115817762Y-97389474D01*
X115722524Y-97341855D01*
X115484429Y-97341855D01*
X115389191Y-97389474D01*
X115341572Y-97437093D01*
X115293953Y-97532331D01*
X115293953Y-97722807D01*
X115341572Y-97818045D01*
X115389191Y-97865664D01*
X115484429Y-97913283D01*
%TO.C,R7*%
X116166000Y-123789426D02*
X115689810Y-124122760D01*
X116166000Y-124360855D02*
X115166000Y-124360855D01*
X115166000Y-123979902D01*
X115213620Y-123884664D01*
X115261239Y-123837045D01*
X115356477Y-123789426D01*
X115499334Y-123789426D01*
X115594572Y-123837045D01*
X115642191Y-123884664D01*
X115689810Y-123979902D01*
X115689810Y-124360855D01*
X115166000Y-123456093D02*
X115166000Y-122789426D01*
X116166000Y-123217998D01*
%TO.C,C17*%
X130946762Y-123823902D02*
X130899143Y-123871521D01*
X130756286Y-123919140D01*
X130661048Y-123919140D01*
X130518191Y-123871521D01*
X130422953Y-123776283D01*
X130375334Y-123681045D01*
X130327715Y-123490569D01*
X130327715Y-123347712D01*
X130375334Y-123157236D01*
X130422953Y-123061998D01*
X130518191Y-122966760D01*
X130661048Y-122919140D01*
X130756286Y-122919140D01*
X130899143Y-122966760D01*
X130946762Y-123014379D01*
X131899143Y-123919140D02*
X131327715Y-123919140D01*
X131613429Y-123919140D02*
X131613429Y-122919140D01*
X131518191Y-123061998D01*
X131422953Y-123157236D01*
X131327715Y-123204855D01*
X132232477Y-122919140D02*
X132899143Y-122919140D01*
X132470572Y-123919140D01*
%TO.C,U4*%
X125580000Y-130606664D02*
X126389524Y-130606664D01*
X126484762Y-130559045D01*
X126532381Y-130511426D01*
X126580000Y-130416188D01*
X126580000Y-130225712D01*
X126532381Y-130130474D01*
X126484762Y-130082855D01*
X126389524Y-130035236D01*
X125580000Y-130035236D01*
X125913334Y-129130474D02*
X126580000Y-129130474D01*
X125532381Y-129368569D02*
X126246667Y-129606664D01*
X126246667Y-128987617D01*
%TO.C,R10*%
X137248000Y-125027617D02*
X136771810Y-125360950D01*
X137248000Y-125599045D02*
X136248000Y-125599045D01*
X136248000Y-125218093D01*
X136295620Y-125122855D01*
X136343239Y-125075236D01*
X136438477Y-125027617D01*
X136581334Y-125027617D01*
X136676572Y-125075236D01*
X136724191Y-125122855D01*
X136771810Y-125218093D01*
X136771810Y-125599045D01*
X137248000Y-124075236D02*
X137248000Y-124646664D01*
X137248000Y-124360950D02*
X136248000Y-124360950D01*
X136390858Y-124456188D01*
X136486096Y-124551426D01*
X136533715Y-124646664D01*
X136248000Y-123456188D02*
X136248000Y-123360950D01*
X136295620Y-123265712D01*
X136343239Y-123218093D01*
X136438477Y-123170474D01*
X136628953Y-123122855D01*
X136867048Y-123122855D01*
X137057524Y-123170474D01*
X137152762Y-123218093D01*
X137200381Y-123265712D01*
X137248000Y-123360950D01*
X137248000Y-123456188D01*
X137200381Y-123551426D01*
X137152762Y-123599045D01*
X137057524Y-123646664D01*
X136867048Y-123694283D01*
X136628953Y-123694283D01*
X136438477Y-123646664D01*
X136343239Y-123599045D01*
X136295620Y-123551426D01*
X136248000Y-123456188D01*
%TO.C,R17*%
X118199000Y-99246617D02*
X117722810Y-99579950D01*
X118199000Y-99818045D02*
X117199000Y-99818045D01*
X117199000Y-99437093D01*
X117246620Y-99341855D01*
X117294239Y-99294236D01*
X117389477Y-99246617D01*
X117532334Y-99246617D01*
X117627572Y-99294236D01*
X117675191Y-99341855D01*
X117722810Y-99437093D01*
X117722810Y-99818045D01*
X118199000Y-98294236D02*
X118199000Y-98865664D01*
X118199000Y-98579950D02*
X117199000Y-98579950D01*
X117341858Y-98675188D01*
X117437096Y-98770426D01*
X117484715Y-98865664D01*
X117199000Y-97960902D02*
X117199000Y-97294236D01*
X118199000Y-97722807D01*
%TO.C,R13*%
X116784762Y-102727140D02*
X116451429Y-102250950D01*
X116213334Y-102727140D02*
X116213334Y-101727140D01*
X116594286Y-101727140D01*
X116689524Y-101774760D01*
X116737143Y-101822379D01*
X116784762Y-101917617D01*
X116784762Y-102060474D01*
X116737143Y-102155712D01*
X116689524Y-102203331D01*
X116594286Y-102250950D01*
X116213334Y-102250950D01*
X117737143Y-102727140D02*
X117165715Y-102727140D01*
X117451429Y-102727140D02*
X117451429Y-101727140D01*
X117356191Y-101869998D01*
X117260953Y-101965236D01*
X117165715Y-102012855D01*
X118070477Y-101727140D02*
X118689524Y-101727140D01*
X118356191Y-102108093D01*
X118499048Y-102108093D01*
X118594286Y-102155712D01*
X118641905Y-102203331D01*
X118689524Y-102298569D01*
X118689524Y-102536664D01*
X118641905Y-102631902D01*
X118594286Y-102679521D01*
X118499048Y-102727140D01*
X118213334Y-102727140D01*
X118118096Y-102679521D01*
X118070477Y-102631902D01*
%TO.C,R14*%
X111560000Y-99227617D02*
X111083810Y-99560950D01*
X111560000Y-99799045D02*
X110560000Y-99799045D01*
X110560000Y-99418093D01*
X110607620Y-99322855D01*
X110655239Y-99275236D01*
X110750477Y-99227617D01*
X110893334Y-99227617D01*
X110988572Y-99275236D01*
X111036191Y-99322855D01*
X111083810Y-99418093D01*
X111083810Y-99799045D01*
X111560000Y-98275236D02*
X111560000Y-98846664D01*
X111560000Y-98560950D02*
X110560000Y-98560950D01*
X110702858Y-98656188D01*
X110798096Y-98751426D01*
X110845715Y-98846664D01*
X110893334Y-97418093D02*
X111560000Y-97418093D01*
X110512381Y-97656188D02*
X111226667Y-97894283D01*
X111226667Y-97275236D01*
%TO.C,D6*%
X85390000Y-100372855D02*
X84390000Y-100372855D01*
X84390000Y-100134760D01*
X84437620Y-99991902D01*
X84532858Y-99896664D01*
X84628096Y-99849045D01*
X84818572Y-99801426D01*
X84961429Y-99801426D01*
X85151905Y-99849045D01*
X85247143Y-99896664D01*
X85342381Y-99991902D01*
X85390000Y-100134760D01*
X85390000Y-100372855D01*
X84390000Y-98944283D02*
X84390000Y-99134760D01*
X84437620Y-99229998D01*
X84485239Y-99277617D01*
X84628096Y-99372855D01*
X84818572Y-99420474D01*
X85199524Y-99420474D01*
X85294762Y-99372855D01*
X85342381Y-99325236D01*
X85390000Y-99229998D01*
X85390000Y-99039521D01*
X85342381Y-98944283D01*
X85294762Y-98896664D01*
X85199524Y-98849045D01*
X84961429Y-98849045D01*
X84866191Y-98896664D01*
X84818572Y-98944283D01*
X84770953Y-99039521D01*
X84770953Y-99229998D01*
X84818572Y-99325236D01*
X84866191Y-99372855D01*
X84961429Y-99420474D01*
X85820000Y-104976664D02*
X84820000Y-104976664D01*
X85820000Y-104405236D02*
X85248572Y-104833807D01*
X84820000Y-104405236D02*
X85391429Y-104976664D01*
%TO.C,J2*%
X139638286Y-110055140D02*
X139638286Y-110769426D01*
X139590667Y-110912283D01*
X139495429Y-111007521D01*
X139352572Y-111055140D01*
X139257334Y-111055140D01*
X140066858Y-110150379D02*
X140114477Y-110102760D01*
X140209715Y-110055140D01*
X140447810Y-110055140D01*
X140543048Y-110102760D01*
X140590667Y-110150379D01*
X140638286Y-110245617D01*
X140638286Y-110340855D01*
X140590667Y-110483712D01*
X140019239Y-111055140D01*
X140638286Y-111055140D01*
%TO.C,J1*%
X129478286Y-85483140D02*
X129478286Y-86197426D01*
X129430667Y-86340283D01*
X129335429Y-86435521D01*
X129192572Y-86483140D01*
X129097334Y-86483140D01*
X130478286Y-86483140D02*
X129906858Y-86483140D01*
X130192572Y-86483140D02*
X130192572Y-85483140D01*
X130097334Y-85625998D01*
X130002096Y-85721236D01*
X129906858Y-85768855D01*
%TO.C,C7*%
X111140953Y-129681902D02*
X111093334Y-129729521D01*
X110950477Y-129777140D01*
X110855239Y-129777140D01*
X110712381Y-129729521D01*
X110617143Y-129634283D01*
X110569524Y-129539045D01*
X110521905Y-129348569D01*
X110521905Y-129205712D01*
X110569524Y-129015236D01*
X110617143Y-128919998D01*
X110712381Y-128824760D01*
X110855239Y-128777140D01*
X110950477Y-128777140D01*
X111093334Y-128824760D01*
X111140953Y-128872379D01*
X111474286Y-128777140D02*
X112140953Y-128777140D01*
X111712381Y-129777140D01*
%TO.C,R2*%
X97200953Y-134727140D02*
X96867620Y-134250950D01*
X96629524Y-134727140D02*
X96629524Y-133727140D01*
X97010477Y-133727140D01*
X97105715Y-133774760D01*
X97153334Y-133822379D01*
X97200953Y-133917617D01*
X97200953Y-134060474D01*
X97153334Y-134155712D01*
X97105715Y-134203331D01*
X97010477Y-134250950D01*
X96629524Y-134250950D01*
X97581905Y-133822379D02*
X97629524Y-133774760D01*
X97724762Y-133727140D01*
X97962858Y-133727140D01*
X98058096Y-133774760D01*
X98105715Y-133822379D01*
X98153334Y-133917617D01*
X98153334Y-134012855D01*
X98105715Y-134155712D01*
X97534286Y-134727140D01*
X98153334Y-134727140D01*
%TO.C,C10*%
X104024762Y-88261902D02*
X103977143Y-88309521D01*
X103834286Y-88357140D01*
X103739048Y-88357140D01*
X103596191Y-88309521D01*
X103500953Y-88214283D01*
X103453334Y-88119045D01*
X103405715Y-87928569D01*
X103405715Y-87785712D01*
X103453334Y-87595236D01*
X103500953Y-87499998D01*
X103596191Y-87404760D01*
X103739048Y-87357140D01*
X103834286Y-87357140D01*
X103977143Y-87404760D01*
X104024762Y-87452379D01*
X104977143Y-88357140D02*
X104405715Y-88357140D01*
X104691429Y-88357140D02*
X104691429Y-87357140D01*
X104596191Y-87499998D01*
X104500953Y-87595236D01*
X104405715Y-87642855D01*
X105596191Y-87357140D02*
X105691429Y-87357140D01*
X105786667Y-87404760D01*
X105834286Y-87452379D01*
X105881905Y-87547617D01*
X105929524Y-87738093D01*
X105929524Y-87976188D01*
X105881905Y-88166664D01*
X105834286Y-88261902D01*
X105786667Y-88309521D01*
X105691429Y-88357140D01*
X105596191Y-88357140D01*
X105500953Y-88309521D01*
X105453334Y-88261902D01*
X105405715Y-88166664D01*
X105358096Y-87976188D01*
X105358096Y-87738093D01*
X105405715Y-87547617D01*
X105453334Y-87452379D01*
X105500953Y-87404760D01*
X105596191Y-87357140D01*
%TO.C,R12*%
X129512932Y-122069210D02*
X128940513Y-121968195D01*
X129108871Y-122473271D02*
X128401765Y-121766164D01*
X128671139Y-121496790D01*
X128772154Y-121463118D01*
X128839497Y-121463118D01*
X128940513Y-121496790D01*
X129041528Y-121597805D01*
X129075200Y-121698821D01*
X129075200Y-121766164D01*
X129041528Y-121867179D01*
X128772154Y-122136553D01*
X130186368Y-121395775D02*
X129782307Y-121799836D01*
X129984337Y-121597805D02*
X129277230Y-120890698D01*
X129310902Y-121059057D01*
X129310902Y-121193744D01*
X129277230Y-121294760D01*
X129815978Y-120486637D02*
X129815978Y-120419294D01*
X129849650Y-120318279D01*
X130018009Y-120149920D01*
X130119024Y-120116248D01*
X130186368Y-120116248D01*
X130287383Y-120149920D01*
X130354726Y-120217263D01*
X130422070Y-120351950D01*
X130422070Y-121160072D01*
X130859803Y-120722340D01*
D10*
%TO.C,J3*%
X111027620Y-90394760D02*
X113567620Y-90394760D01*
X113567620Y-90394760D02*
X113567620Y-92934760D01*
X113567620Y-92934760D02*
X111027620Y-92934760D01*
X111027620Y-92934760D02*
X111027620Y-90394760D01*
X118647620Y-90394760D02*
X121187620Y-90394760D01*
X121187620Y-90394760D02*
X121187620Y-92934760D01*
X121187620Y-92934760D02*
X118647620Y-92934760D01*
X118647620Y-92934760D02*
X118647620Y-90394760D01*
X121187620Y-90394760D02*
X123727620Y-90394760D01*
X123727620Y-90394760D02*
X123727620Y-92934760D01*
X123727620Y-92934760D02*
X121187620Y-92934760D01*
X121187620Y-92934760D02*
X121187620Y-90394760D01*
X113567620Y-90394760D02*
X116107620Y-90394760D01*
X116107620Y-90394760D02*
X116107620Y-92934760D01*
X116107620Y-92934760D02*
X113567620Y-92934760D01*
X113567620Y-92934760D02*
X113567620Y-90394760D01*
X108487620Y-90394760D02*
X111027620Y-90394760D01*
X111027620Y-90394760D02*
X111027620Y-92934760D01*
X111027620Y-92934760D02*
X108487620Y-92934760D01*
X108487620Y-92934760D02*
X108487620Y-90394760D01*
X126267620Y-90394760D02*
X128807620Y-90394760D01*
X128807620Y-90394760D02*
X128807620Y-92934760D01*
X128807620Y-92934760D02*
X126267620Y-92934760D01*
X126267620Y-92934760D02*
X126267620Y-90394760D01*
X123727620Y-90394760D02*
X126267620Y-90394760D01*
X126267620Y-90394760D02*
X126267620Y-92934760D01*
X126267620Y-92934760D02*
X123727620Y-92934760D01*
X123727620Y-92934760D02*
X123727620Y-90394760D01*
X116107620Y-90394760D02*
X118647620Y-90394760D01*
X118647620Y-90394760D02*
X118647620Y-92934760D01*
X118647620Y-92934760D02*
X116107620Y-92934760D01*
X116107620Y-92934760D02*
X116107620Y-90394760D01*
%TO.C,C20*%
X135392368Y-116991760D02*
X135914872Y-116991760D01*
X135392368Y-115521760D02*
X135914872Y-115521760D01*
%TO.C,C18*%
X138421620Y-109797083D02*
X128313620Y-109797083D01*
X132126620Y-111718083D02*
X128905620Y-111718083D01*
X138446620Y-109397083D02*
X128288620Y-109397083D01*
X137829620Y-111718083D02*
X134608620Y-111718083D01*
X138417620Y-109837083D02*
X128317620Y-109837083D01*
X138364620Y-110198083D02*
X128370620Y-110198083D01*
X132126620Y-112798083D02*
X129688620Y-112798083D01*
X138285620Y-110558083D02*
X134608620Y-110558083D01*
X132126620Y-111678083D02*
X128884620Y-111678083D01*
X135732620Y-113798083D02*
X131002620Y-113798083D01*
X135213620Y-114038083D02*
X131521620Y-114038083D01*
X137871620Y-111638083D02*
X134608620Y-111638083D01*
X138041620Y-111278083D02*
X134608620Y-111278083D01*
X132126620Y-112518083D02*
X129442620Y-112518083D01*
X137046620Y-112798083D02*
X134608620Y-112798083D01*
X132126620Y-111798083D02*
X128950620Y-111798083D01*
X134877620Y-114158083D02*
X131857620Y-114158083D01*
X134229620Y-114318083D02*
X132505620Y-114318083D01*
X138349620Y-110278083D02*
X128385620Y-110278083D01*
X136012620Y-113638083D02*
X130722620Y-113638083D01*
X137007620Y-112838083D02*
X134608620Y-112838083D01*
X134745620Y-114198083D02*
X131989620Y-114198083D01*
X132126620Y-110758083D02*
X128505620Y-110758083D01*
X138178620Y-110918083D02*
X134608620Y-110918083D01*
X138314620Y-110438083D02*
X128420620Y-110438083D01*
X137477620Y-112278083D02*
X134608620Y-112278083D01*
X132126620Y-111078083D02*
X128613620Y-111078083D01*
X137191620Y-112638083D02*
X134608620Y-112638083D01*
X138447620Y-109277083D02*
X128287620Y-109277083D01*
X132126620Y-110878083D02*
X128543620Y-110878083D01*
X136473620Y-113318083D02*
X130261620Y-113318083D01*
X137970620Y-111438083D02*
X134608620Y-111438083D01*
X137505620Y-112238083D02*
X134608620Y-112238083D01*
X138191620Y-110878083D02*
X134608620Y-110878083D01*
X137714620Y-111918083D02*
X134608620Y-111918083D01*
X138274620Y-110598083D02*
X134608620Y-110598083D01*
X132126620Y-110598083D02*
X128460620Y-110598083D01*
X132126620Y-111958083D02*
X129044620Y-111958083D01*
X132126620Y-111838083D02*
X128972620Y-111838083D01*
X132126620Y-112078083D02*
X129120620Y-112078083D01*
X132126620Y-112998083D02*
X129889620Y-112998083D01*
X138437620Y-109597083D02*
X128297620Y-109597083D01*
X136242620Y-103797437D02*
X136242620Y-104797437D01*
X132126620Y-111918083D02*
X129020620Y-111918083D01*
X132126620Y-111878083D02*
X128996620Y-111878083D01*
X137356620Y-112438083D02*
X134608620Y-112438083D01*
X136076620Y-113598083D02*
X130658620Y-113598083D01*
X132126620Y-112878083D02*
X129766620Y-112878083D01*
X137912620Y-111558083D02*
X134608620Y-111558083D01*
X138090620Y-111158083D02*
X134608620Y-111158083D01*
X138295620Y-110518083D02*
X128439620Y-110518083D01*
X138135620Y-111038083D02*
X134608620Y-111038083D01*
X132126620Y-110918083D02*
X128556620Y-110918083D01*
X136197620Y-113518083D02*
X130537620Y-113518083D01*
X138397620Y-109998083D02*
X128337620Y-109998083D01*
X132126620Y-111438083D02*
X128764620Y-111438083D01*
X136968620Y-112878083D02*
X134608620Y-112878083D01*
X138341620Y-110318083D02*
X128393620Y-110318083D01*
X138432620Y-109677083D02*
X128302620Y-109677083D01*
X134997620Y-114118083D02*
X131737620Y-114118083D01*
X136803620Y-113038083D02*
X129931620Y-113038083D01*
X136367620Y-113398083D02*
X130367620Y-113398083D01*
X136421620Y-113358083D02*
X130313620Y-113358083D01*
X138447620Y-109357083D02*
X128287620Y-109357083D01*
X132126620Y-112358083D02*
X129317620Y-112358083D01*
X138371620Y-110158083D02*
X128363620Y-110158083D01*
X132126620Y-111638083D02*
X128863620Y-111638083D01*
X132126620Y-111558083D02*
X128822620Y-111558083D01*
X138332620Y-110358083D02*
X128402620Y-110358083D01*
X132126620Y-112918083D02*
X129806620Y-112918083D01*
X132126620Y-111518083D02*
X128803620Y-111518083D01*
X137931620Y-111518083D02*
X134608620Y-111518083D01*
X132126620Y-111998083D02*
X129069620Y-111998083D01*
X137588620Y-112118083D02*
X134608620Y-112118083D01*
X133966620Y-114358083D02*
X132768620Y-114358083D01*
X137447620Y-112318083D02*
X134608620Y-112318083D01*
X136759620Y-113078083D02*
X129975620Y-113078083D01*
X132126620Y-112638083D02*
X129543620Y-112638083D01*
X136573620Y-113238083D02*
X130161620Y-113238083D01*
X137417620Y-112358083D02*
X134608620Y-112358083D01*
X132126620Y-111198083D02*
X128660620Y-111198083D01*
X137225620Y-112598083D02*
X134608620Y-112598083D01*
X132126620Y-110958083D02*
X128570620Y-110958083D01*
X137156620Y-112678083D02*
X134608620Y-112678083D01*
X135576620Y-113878083D02*
X131158620Y-113878083D01*
X136928620Y-112918083D02*
X134608620Y-112918083D01*
X132126620Y-110838083D02*
X128530620Y-110838083D01*
X132126620Y-112958083D02*
X129847620Y-112958083D01*
X132126620Y-112718083D02*
X129614620Y-112718083D01*
X138442620Y-109517083D02*
X128292620Y-109517083D01*
X138105620Y-111118083D02*
X134608620Y-111118083D01*
X132126620Y-112158083D02*
X129173620Y-112158083D01*
X135404620Y-113958083D02*
X131330620Y-113958083D01*
X135492620Y-113918083D02*
X131242620Y-113918083D01*
X137259620Y-112558083D02*
X134608620Y-112558083D01*
X137784620Y-111798083D02*
X134608620Y-111798083D01*
X135946620Y-113678083D02*
X130788620Y-113678083D01*
X132126620Y-111158083D02*
X128644620Y-111158083D01*
X137640620Y-112038083D02*
X134608620Y-112038083D01*
X136714620Y-113118083D02*
X130020620Y-113118083D01*
X136887620Y-112958083D02*
X134608620Y-112958083D01*
X137988620Y-111398083D02*
X134608620Y-111398083D01*
X132126620Y-112598083D02*
X129509620Y-112598083D01*
X137083620Y-112758083D02*
X134608620Y-112758083D01*
X137850620Y-111678083D02*
X134608620Y-111678083D01*
X138264620Y-110638083D02*
X134608620Y-110638083D01*
X137387620Y-112398083D02*
X134608620Y-112398083D01*
X132126620Y-111118083D02*
X128629620Y-111118083D01*
X137324620Y-112478083D02*
X134608620Y-112478083D01*
X137561620Y-112158083D02*
X134608620Y-112158083D01*
X137951620Y-111478083D02*
X134608620Y-111478083D01*
X137292620Y-112518083D02*
X134608620Y-112518083D01*
X137665620Y-111998083D02*
X134608620Y-111998083D01*
X138121620Y-111078083D02*
X134608620Y-111078083D01*
X132126620Y-111398083D02*
X128746620Y-111398083D01*
X132126620Y-112278083D02*
X129257620Y-112278083D01*
X138407620Y-109917083D02*
X128327620Y-109917083D01*
X132126620Y-112558083D02*
X129475620Y-112558083D01*
X132126620Y-112118083D02*
X129146620Y-112118083D01*
X135311620Y-113998083D02*
X131423620Y-113998083D01*
X138357620Y-110238083D02*
X128377620Y-110238083D01*
X137738620Y-111878083D02*
X134608620Y-111878083D01*
X138391620Y-110038083D02*
X128343620Y-110038083D01*
X136256620Y-113478083D02*
X130478620Y-113478083D01*
X132126620Y-112678083D02*
X129578620Y-112678083D01*
X137120620Y-112718083D02*
X134608620Y-112718083D01*
X138444620Y-109477083D02*
X128290620Y-109477083D01*
X138435620Y-109637083D02*
X128299620Y-109637083D01*
X132126620Y-112238083D02*
X129229620Y-112238083D01*
X135109620Y-114078083D02*
X131625620Y-114078083D01*
X132126620Y-110638083D02*
X128470620Y-110638083D01*
X138024620Y-111318083D02*
X134608620Y-111318083D01*
X137533620Y-112198083D02*
X134608620Y-112198083D01*
X132126620Y-112398083D02*
X129347620Y-112398083D01*
X132126620Y-111238083D02*
X128677620Y-111238083D01*
X138447620Y-109317083D02*
X128287620Y-109317083D01*
X138006620Y-111358083D02*
X134608620Y-111358083D01*
X138402620Y-109957083D02*
X128332620Y-109957083D01*
X132126620Y-110798083D02*
X128517620Y-110798083D01*
X138378620Y-110118083D02*
X128356620Y-110118083D01*
X132126620Y-110558083D02*
X128449620Y-110558083D01*
X138445620Y-109437083D02*
X128289620Y-109437083D01*
X137892620Y-111598083D02*
X134608620Y-111598083D01*
X132126620Y-111478083D02*
X128783620Y-111478083D01*
X138429620Y-109717083D02*
X128305620Y-109717083D01*
X138305620Y-110478083D02*
X128429620Y-110478083D01*
X132126620Y-110678083D02*
X128482620Y-110678083D01*
X132126620Y-112758083D02*
X129651620Y-112758083D01*
X137762620Y-111838083D02*
X134608620Y-111838083D01*
X132126620Y-112038083D02*
X129094620Y-112038083D01*
X132126620Y-111318083D02*
X128710620Y-111318083D01*
X132126620Y-112438083D02*
X129378620Y-112438083D01*
X137614620Y-112078083D02*
X134608620Y-112078083D01*
X135806620Y-113758083D02*
X130928620Y-113758083D01*
X138217620Y-110798083D02*
X134608620Y-110798083D01*
X138323620Y-110398083D02*
X128411620Y-110398083D01*
X132126620Y-111038083D02*
X128599620Y-111038083D01*
X132126620Y-112838083D02*
X129727620Y-112838083D01*
X136523620Y-113278083D02*
X130211620Y-113278083D01*
X132126620Y-111278083D02*
X128693620Y-111278083D01*
X134429620Y-114278083D02*
X132305620Y-114278083D01*
X132126620Y-111758083D02*
X128927620Y-111758083D01*
X138385620Y-110078083D02*
X128349620Y-110078083D01*
X136621620Y-113198083D02*
X130113620Y-113198083D01*
X136668620Y-113158083D02*
X130066620Y-113158083D01*
X138204620Y-110838083D02*
X134608620Y-110838083D01*
X132126620Y-112478083D02*
X129410620Y-112478083D01*
X132126620Y-112198083D02*
X129201620Y-112198083D01*
X137807620Y-111758083D02*
X134608620Y-111758083D01*
X134597620Y-114238083D02*
X132137620Y-114238083D01*
X136312620Y-113438083D02*
X130422620Y-113438083D01*
X138241620Y-110718083D02*
X134608620Y-110718083D01*
X132126620Y-111358083D02*
X128728620Y-111358083D01*
X138425620Y-109757083D02*
X128309620Y-109757083D01*
X132126620Y-110718083D02*
X128493620Y-110718083D01*
X138150620Y-110998083D02*
X134608620Y-110998083D01*
X138229620Y-110758083D02*
X134608620Y-110758083D01*
X138164620Y-110958083D02*
X134608620Y-110958083D01*
X136845620Y-112998083D02*
X134608620Y-112998083D01*
X136742620Y-104297437D02*
X135742620Y-104297437D01*
X135877620Y-113718083D02*
X130857620Y-113718083D01*
X136137620Y-113558083D02*
X130597620Y-113558083D01*
X132126620Y-112318083D02*
X129287620Y-112318083D01*
X137690620Y-111958083D02*
X134608620Y-111958083D01*
X138074620Y-111198083D02*
X134608620Y-111198083D01*
X138412620Y-109877083D02*
X128322620Y-109877083D01*
X132126620Y-111598083D02*
X128842620Y-111598083D01*
X135656620Y-113838083D02*
X131078620Y-113838083D01*
X132126620Y-110998083D02*
X128584620Y-110998083D01*
X138057620Y-111238083D02*
X134608620Y-111238083D01*
X138440620Y-109557083D02*
X128294620Y-109557083D01*
X138252620Y-110678083D02*
X134608620Y-110678083D01*
X138487620Y-109277083D02*
G75*
G03*
X138487620Y-109277083I-5120000J0D01*
G01*
%TO.C,R18*%
X120186620Y-95655824D02*
X120186620Y-95201696D01*
X121656620Y-95655824D02*
X121656620Y-95201696D01*
%TO.C,D3*%
X114997620Y-141704760D02*
X109557620Y-141704760D01*
X114217620Y-144644760D02*
X114217620Y-141704760D01*
X114097620Y-144644760D02*
X114097620Y-141704760D01*
X109557620Y-144644760D02*
X114997620Y-144644760D01*
X114997620Y-144644760D02*
X114997620Y-141704760D01*
X113977620Y-144644760D02*
X113977620Y-141704760D01*
X116017620Y-143174760D02*
X114997620Y-143174760D01*
X109557620Y-141704760D02*
X109557620Y-144644760D01*
X108537620Y-143174760D02*
X109557620Y-143174760D01*
%TO.C,U2*%
X126047620Y-137904760D02*
X126047620Y-132604760D01*
X108147620Y-136254760D02*
X108147620Y-137904760D01*
X108147620Y-132604760D02*
X108147620Y-134254760D01*
X126047620Y-132604760D02*
X108147620Y-132604760D01*
X108147620Y-137904760D02*
X126047620Y-137904760D01*
X108147620Y-136254760D02*
G75*
G03*
X108147620Y-134254760I0J1000000D01*
G01*
%TO.C,C15*%
X134392620Y-138976012D02*
X134392620Y-138453508D01*
X132922620Y-138976012D02*
X132922620Y-138453508D01*
%TO.C,C4*%
X93750872Y-100481760D02*
X93228368Y-100481760D01*
X93750872Y-99011760D02*
X93228368Y-99011760D01*
%TO.C,D5*%
X110341620Y-101500760D02*
X110341620Y-98950760D01*
X108641620Y-101500760D02*
X108641620Y-98950760D01*
X108641620Y-101500760D02*
X110341620Y-101500760D01*
%TO.C,C16*%
X127264368Y-124157760D02*
X127786872Y-124157760D01*
X127264368Y-125627760D02*
X127786872Y-125627760D01*
%TO.C,RV1*%
X98937620Y-141016760D02*
X98708620Y-141016760D01*
X101478620Y-141016760D02*
X101248620Y-141016760D01*
X96283620Y-141656760D02*
X98708620Y-141656760D01*
X98708620Y-141656760D02*
X98708620Y-139116760D01*
X98708620Y-139116760D02*
X96283620Y-139116760D01*
X96283620Y-139116760D02*
X96283620Y-141656760D01*
X98708620Y-139116760D02*
X101363620Y-139116760D01*
X101363620Y-139116760D02*
X101363620Y-141656760D01*
X101363620Y-141656760D02*
X98708620Y-141656760D01*
X98708620Y-141656760D02*
X98708620Y-139116760D01*
X103903620Y-139116760D02*
X96283620Y-139116760D01*
X96283620Y-139116760D02*
X96283620Y-141656760D01*
X96283620Y-141656760D02*
X103903620Y-141656760D01*
X103903620Y-141656760D02*
X103903620Y-139116760D01*
%TO.C,J4*%
X94251620Y-136322760D02*
X91711620Y-136322760D01*
X91711620Y-136322760D02*
X91711620Y-138862760D01*
X91711620Y-138862760D02*
X94251620Y-138862760D01*
X94251620Y-138862760D02*
X94251620Y-136322760D01*
X94251620Y-133782760D02*
X91711620Y-133782760D01*
X91711620Y-133782760D02*
X91711620Y-136322760D01*
X91711620Y-136322760D02*
X94251620Y-136322760D01*
X94251620Y-136322760D02*
X94251620Y-133782760D01*
X94251620Y-131242760D02*
X91711620Y-131242760D01*
X91711620Y-131242760D02*
X91711620Y-133782760D01*
X91711620Y-133782760D02*
X94251620Y-133782760D01*
X94251620Y-133782760D02*
X94251620Y-131242760D01*
%TO.C,C12*%
X118102620Y-127463508D02*
X118102620Y-127986012D01*
X119572620Y-127463508D02*
X119572620Y-127986012D01*
%TO.C,SW1*%
X108403620Y-125074760D02*
X101943620Y-125074760D01*
X108403620Y-118614760D02*
X108403620Y-118644760D01*
X108403620Y-125044760D02*
X108403620Y-125074760D01*
X101943620Y-118614760D02*
X101943620Y-118644760D01*
X101943620Y-125074760D02*
X101943620Y-125044760D01*
X108403620Y-123144760D02*
X108403620Y-120544760D01*
X101943620Y-123144760D02*
X101943620Y-120544760D01*
X108403620Y-118614760D02*
X101943620Y-118614760D01*
%TO.C,R3*%
X110042620Y-127951824D02*
X110042620Y-127497696D01*
X108572620Y-127951824D02*
X108572620Y-127497696D01*
%TO.C,100mH1*%
X117659620Y-106858760D02*
G75*
G03*
X117659620Y-106858760I-5120000J0D01*
G01*
%TO.C,R4*%
X105962620Y-127967696D02*
X105962620Y-128421824D01*
X107432620Y-127967696D02*
X107432620Y-128421824D01*
%TO.C,D7*%
X89967620Y-122864760D02*
X89967620Y-113724760D01*
X87717620Y-122744760D02*
X87717620Y-123824760D01*
X89357620Y-122864760D02*
X89967620Y-122864760D01*
X87717620Y-113844760D02*
X87717620Y-112674760D01*
X85467620Y-121409760D02*
X89967620Y-121409760D01*
X85467620Y-122864760D02*
X85467620Y-113724760D01*
X85467620Y-121289760D02*
X89967620Y-121289760D01*
X85467620Y-121529760D02*
X89967620Y-121529760D01*
X86077620Y-122864760D02*
X85467620Y-122864760D01*
X85467620Y-113724760D02*
X86077620Y-113724760D01*
X89967620Y-113724760D02*
X89357620Y-113724760D01*
%TO.C,R8*%
X116092620Y-127411824D02*
X116092620Y-126957696D01*
X117562620Y-127411824D02*
X117562620Y-126957696D01*
%TO.C,LS1*%
X142027620Y-136864760D02*
X139487620Y-136864760D01*
X139487620Y-136864760D02*
X139487620Y-139404760D01*
X139487620Y-139404760D02*
X142027620Y-139404760D01*
X142027620Y-139404760D02*
X142027620Y-136864760D01*
X142027620Y-139404760D02*
X139487620Y-139404760D01*
X139487620Y-139404760D02*
X139487620Y-141944760D01*
X139487620Y-141944760D02*
X142027620Y-141944760D01*
X142027620Y-141944760D02*
X142027620Y-139404760D01*
%TO.C,SW2*%
X127707620Y-98548760D02*
X127707620Y-98578760D01*
X121247620Y-98578760D02*
X121247620Y-98548760D01*
X121247620Y-100478760D02*
X121247620Y-103078760D01*
X121247620Y-98548760D02*
X127707620Y-98548760D01*
X127707620Y-100478760D02*
X127707620Y-103078760D01*
X121247620Y-105008760D02*
X121247620Y-104978760D01*
X127707620Y-105008760D02*
X127707620Y-104978760D01*
X121247620Y-105008760D02*
X127707620Y-105008760D01*
%TO.C,R9*%
X131322620Y-138477696D02*
X131322620Y-138931824D01*
X129852620Y-138477696D02*
X129852620Y-138931824D01*
%TO.C,R5*%
X114022620Y-127197696D02*
X114022620Y-127651824D01*
X115492620Y-127197696D02*
X115492620Y-127651824D01*
%TO.C,D8*%
X96137620Y-117794760D02*
X96137620Y-108654760D01*
X93887620Y-117674760D02*
X93887620Y-118754760D01*
X95527620Y-117794760D02*
X96137620Y-117794760D01*
X93887620Y-108774760D02*
X93887620Y-107604760D01*
X91637620Y-116339760D02*
X96137620Y-116339760D01*
X91637620Y-117794760D02*
X91637620Y-108654760D01*
X91637620Y-116219760D02*
X96137620Y-116219760D01*
X91637620Y-116459760D02*
X96137620Y-116459760D01*
X92247620Y-117794760D02*
X91637620Y-117794760D01*
X91637620Y-108654760D02*
X92247620Y-108654760D01*
X96137620Y-108654760D02*
X95527620Y-108654760D01*
%TO.C,R11*%
X108194620Y-95709696D02*
X108194620Y-96163824D01*
X106724620Y-95709696D02*
X106724620Y-96163824D01*
%TO.C,C19*%
X132852368Y-119839760D02*
X133374872Y-119839760D01*
X132852368Y-121309760D02*
X133374872Y-121309760D01*
%TO.C,C11*%
X126012620Y-142496012D02*
X126012620Y-141973508D01*
X124542620Y-142496012D02*
X124542620Y-141973508D01*
%TO.C,U3*%
X120577371Y-123319640D02*
X119905620Y-123991391D01*
X126460500Y-116093009D02*
X127408023Y-115145485D01*
X112678989Y-116764760D02*
X113350740Y-117436511D01*
X113350740Y-116093009D02*
X112678989Y-116764760D01*
X127132251Y-116764760D02*
X126460500Y-116093009D01*
X119905620Y-123991391D02*
X119233869Y-123319640D01*
X119233869Y-110209880D02*
X119905620Y-109538129D01*
X126460500Y-117436511D02*
X127132251Y-116764760D01*
X119905620Y-109538129D02*
X120577371Y-110209880D01*
%TO.C,D1*%
X100093620Y-135998760D02*
X100093620Y-134978760D01*
X98623620Y-134198760D02*
X101563620Y-134198760D01*
X98623620Y-133958760D02*
X101563620Y-133958760D01*
X101563620Y-129538760D02*
X98623620Y-129538760D01*
X98623620Y-134978760D02*
X101563620Y-134978760D01*
X98623620Y-134078760D02*
X101563620Y-134078760D01*
X101563620Y-134978760D02*
X101563620Y-129538760D01*
X100093620Y-128518760D02*
X100093620Y-129538760D01*
X98623620Y-129538760D02*
X98623620Y-134978760D01*
%TO.C,R6*%
X112732620Y-123331824D02*
X112732620Y-122877696D01*
X111262620Y-123331824D02*
X111262620Y-122877696D01*
%TO.C,RV2*%
X131704620Y-142604260D02*
X131474620Y-142604260D01*
X129163620Y-142604260D02*
X128934620Y-142604260D01*
X128934620Y-140704260D02*
X131589620Y-140704260D01*
X131589620Y-140704260D02*
X131589620Y-143244260D01*
X131589620Y-143244260D02*
X128934620Y-143244260D01*
X128934620Y-143244260D02*
X128934620Y-140704260D01*
X134129620Y-140704260D02*
X126509620Y-140704260D01*
X126509620Y-140704260D02*
X126509620Y-143244260D01*
X126509620Y-143244260D02*
X134129620Y-143244260D01*
X134129620Y-143244260D02*
X134129620Y-140704260D01*
X126509620Y-143244260D02*
X128934620Y-143244260D01*
X128934620Y-143244260D02*
X128934620Y-140704260D01*
X128934620Y-140704260D02*
X126509620Y-140704260D01*
X126509620Y-140704260D02*
X126509620Y-143244260D01*
%TO.C,LD1*%
X106104620Y-93102760D02*
X106104620Y-95722760D01*
X101184620Y-93102760D02*
X106104620Y-93102760D01*
X101424620Y-93102760D02*
X101424620Y-93332760D01*
X101184620Y-95722760D02*
X106104620Y-95722760D01*
X101304620Y-95492760D02*
X101304620Y-95722760D01*
X101184620Y-93102760D02*
X101184620Y-95722760D01*
X101304620Y-93102760D02*
X101304620Y-93332760D01*
X101424620Y-95492760D02*
X101424620Y-95722760D01*
%TO.C,R19*%
X124958620Y-95655824D02*
X124958620Y-95201696D01*
X123488620Y-95655824D02*
X123488620Y-95201696D01*
%TO.C,C23*%
X121168368Y-105615760D02*
X121690872Y-105615760D01*
X121168368Y-107085760D02*
X121690872Y-107085760D01*
%TO.C,C2*%
X93750872Y-101297760D02*
X93228368Y-101297760D01*
X93750872Y-102767760D02*
X93228368Y-102767760D01*
%TO.C,R20*%
X128514620Y-95655824D02*
X128514620Y-95201696D01*
X127044620Y-95655824D02*
X127044620Y-95201696D01*
%TO.C,C22*%
X104248620Y-117914083D02*
X103050620Y-117914083D01*
X102408620Y-114674083D02*
X98911620Y-114674083D01*
X102408620Y-114834083D02*
X98975620Y-114834083D01*
X107996620Y-115474083D02*
X104890620Y-115474083D01*
X108679620Y-113554083D02*
X98619620Y-113554083D01*
X106755620Y-116874083D02*
X100543620Y-116874083D01*
X102408620Y-114914083D02*
X99010620Y-114914083D01*
X102408620Y-115114083D02*
X99104620Y-115114083D01*
X107507620Y-116154083D02*
X104890620Y-116154083D01*
X106479620Y-117074083D02*
X100819620Y-117074083D01*
X108534620Y-114234083D02*
X104890620Y-114234083D01*
X102408620Y-115234083D02*
X99166620Y-115234083D01*
X104711620Y-117834083D02*
X102587620Y-117834083D01*
X102408620Y-114154083D02*
X98742620Y-114154083D01*
X102408620Y-114554083D02*
X98866620Y-114554083D01*
X108270620Y-114954083D02*
X104890620Y-114954083D01*
X107729620Y-115874083D02*
X104890620Y-115874083D01*
X108711620Y-113273083D02*
X98587620Y-113273083D01*
X108660620Y-113674083D02*
X98638620Y-113674083D01*
X102408620Y-116354083D02*
X99970620Y-116354083D01*
X105593620Y-117554083D02*
X101705620Y-117554083D01*
X107669620Y-115954083D02*
X104890620Y-115954083D01*
X102408620Y-114314083D02*
X98787620Y-114314083D01*
X102408620Y-116434083D02*
X100048620Y-116434083D01*
X102408620Y-116394083D02*
X100009620Y-116394083D01*
X108726620Y-113033083D02*
X98572620Y-113033083D01*
X102408620Y-116234083D02*
X99860620Y-116234083D01*
X107169620Y-116514083D02*
X104890620Y-116514083D01*
X106703620Y-116914083D02*
X100595620Y-116914083D01*
X102408620Y-115634083D02*
X99402620Y-115634083D01*
X102408620Y-116274083D02*
X99896620Y-116274083D01*
X102408620Y-114394083D02*
X98812620Y-114394083D01*
X106358620Y-117154083D02*
X100940620Y-117154083D01*
X107024620Y-107853437D02*
X106024620Y-107853437D01*
X108722620Y-113113083D02*
X98576620Y-113113083D01*
X102408620Y-116154083D02*
X99791620Y-116154083D01*
X108417620Y-114594083D02*
X104890620Y-114594083D01*
X102408620Y-115314083D02*
X99209620Y-115314083D01*
X107127620Y-116554083D02*
X104890620Y-116554083D01*
X108132620Y-115234083D02*
X104890620Y-115234083D01*
X108556620Y-114154083D02*
X104890620Y-114154083D01*
X108727620Y-112993083D02*
X98571620Y-112993083D01*
X108567620Y-114114083D02*
X104890620Y-114114083D01*
X102408620Y-116514083D02*
X100129620Y-116514083D01*
X102408620Y-116034083D02*
X99692620Y-116034083D01*
X106903620Y-116754083D02*
X100395620Y-116754083D01*
X102408620Y-114874083D02*
X98992620Y-114874083D01*
X107438620Y-116234083D02*
X104890620Y-116234083D01*
X108339620Y-114794083D02*
X104890620Y-114794083D01*
X108729620Y-112833083D02*
X98569620Y-112833083D01*
X107972620Y-115514083D02*
X104890620Y-115514083D01*
X108707620Y-113313083D02*
X98591620Y-113313083D01*
X108432620Y-114554083D02*
X104890620Y-114554083D01*
X102408620Y-115714083D02*
X99455620Y-115714083D01*
X106524620Y-107353437D02*
X106524620Y-108353437D01*
X108639620Y-113794083D02*
X98659620Y-113794083D01*
X108403620Y-114634083D02*
X104890620Y-114634083D01*
X108689620Y-113473083D02*
X98609620Y-113473083D01*
X102408620Y-114194083D02*
X98752620Y-114194083D01*
X105279620Y-117674083D02*
X102019620Y-117674083D01*
X106228620Y-117234083D02*
X101070620Y-117234083D01*
X102408620Y-115474083D02*
X99302620Y-115474083D01*
X108446620Y-114514083D02*
X104890620Y-114514083D01*
X102408620Y-115274083D02*
X99187620Y-115274083D01*
X105391620Y-117634083D02*
X101907620Y-117634083D01*
X107574620Y-116074083D02*
X104890620Y-116074083D01*
X107843620Y-115714083D02*
X104890620Y-115714083D01*
X108694620Y-113433083D02*
X98604620Y-113433083D01*
X108546620Y-114194083D02*
X104890620Y-114194083D01*
X108020620Y-115434083D02*
X104890620Y-115434083D01*
X106855620Y-116794083D02*
X100443620Y-116794083D01*
X102408620Y-115954083D02*
X99629620Y-115954083D01*
X102408620Y-114354083D02*
X98799620Y-114354083D01*
X102408620Y-114794083D02*
X98959620Y-114794083D01*
X107041620Y-116634083D02*
X100257620Y-116634083D01*
X108596620Y-113994083D02*
X98702620Y-113994083D01*
X108614620Y-113914083D02*
X98684620Y-113914083D01*
X106950620Y-116714083D02*
X100348620Y-116714083D01*
X108306620Y-114874083D02*
X104890620Y-114874083D01*
X102408620Y-114114083D02*
X98731620Y-114114083D01*
X106805620Y-116834083D02*
X100493620Y-116834083D01*
X102408620Y-116474083D02*
X100088620Y-116474083D01*
X108653620Y-113714083D02*
X98645620Y-113714083D01*
X107787620Y-115794083D02*
X104890620Y-115794083D01*
X102408620Y-115794083D02*
X99511620Y-115794083D01*
X107402620Y-116274083D02*
X104890620Y-116274083D01*
X108111620Y-115274083D02*
X104890620Y-115274083D01*
X102408620Y-114274083D02*
X98775620Y-114274083D01*
X102408620Y-116194083D02*
X99825620Y-116194083D01*
X108587620Y-114034083D02*
X98711620Y-114034083D01*
X108719620Y-113153083D02*
X98579620Y-113153083D01*
X102408620Y-115354083D02*
X99232620Y-115354083D01*
X102408620Y-115434083D02*
X99278620Y-115434083D01*
X102408620Y-114714083D02*
X98926620Y-114714083D01*
X102408620Y-114954083D02*
X99028620Y-114954083D01*
X102408620Y-114474083D02*
X98838620Y-114474083D01*
X102408620Y-115154083D02*
X99124620Y-115154083D01*
X108387620Y-114674083D02*
X104890620Y-114674083D01*
X108699620Y-113393083D02*
X98599620Y-113393083D01*
X108213620Y-115074083D02*
X104890620Y-115074083D01*
X107699620Y-115914083D02*
X104890620Y-115914083D01*
X108323620Y-114834083D02*
X104890620Y-114834083D01*
X102408620Y-115554083D02*
X99351620Y-115554083D01*
X105686620Y-117514083D02*
X101612620Y-117514083D01*
X102408620Y-115074083D02*
X99085620Y-115074083D01*
X108684620Y-113513083D02*
X98614620Y-113513083D01*
X107473620Y-116194083D02*
X104890620Y-116194083D01*
X107759620Y-115834083D02*
X104890620Y-115834083D01*
X107250620Y-116434083D02*
X104890620Y-116434083D01*
X102408620Y-115874083D02*
X99569620Y-115874083D01*
X102408620Y-115194083D02*
X99145620Y-115194083D01*
X107328620Y-116354083D02*
X104890620Y-116354083D01*
X108631620Y-113834083D02*
X98667620Y-113834083D01*
X107085620Y-116594083D02*
X100213620Y-116594083D01*
X107289620Y-116394083D02*
X104890620Y-116394083D01*
X108717620Y-113193083D02*
X98581620Y-113193083D01*
X106159620Y-117274083D02*
X101139620Y-117274083D01*
X107541620Y-116114083D02*
X104890620Y-116114083D01*
X108066620Y-115354083D02*
X104890620Y-115354083D01*
X108714620Y-113233083D02*
X98584620Y-113233083D01*
X106996620Y-116674083D02*
X100302620Y-116674083D01*
X105938620Y-117394083D02*
X101360620Y-117394083D01*
X108623620Y-113874083D02*
X98675620Y-113874083D01*
X108667620Y-113634083D02*
X98631620Y-113634083D01*
X106594620Y-116994083D02*
X100704620Y-116994083D01*
X106419620Y-117114083D02*
X100879620Y-117114083D01*
X102408620Y-115394083D02*
X99254620Y-115394083D01*
X102408620Y-115514083D02*
X99326620Y-115514083D01*
X108252620Y-114994083D02*
X104890620Y-114994083D01*
X107947620Y-115554083D02*
X104890620Y-115554083D01*
X102408620Y-114594083D02*
X98881620Y-114594083D01*
X108728620Y-112953083D02*
X98570620Y-112953083D01*
X108729620Y-112913083D02*
X98569620Y-112913083D01*
X106294620Y-117194083D02*
X101004620Y-117194083D01*
X108729620Y-112873083D02*
X98569620Y-112873083D01*
X105027620Y-117754083D02*
X102271620Y-117754083D01*
X108460620Y-114474083D02*
X104890620Y-114474083D01*
X102408620Y-114994083D02*
X99046620Y-114994083D01*
X108372620Y-114714083D02*
X104890620Y-114714083D01*
X102408620Y-114514083D02*
X98852620Y-114514083D01*
X102408620Y-115594083D02*
X99376620Y-115594083D01*
X108089620Y-115314083D02*
X104890620Y-115314083D01*
X108605620Y-113954083D02*
X98693620Y-113954083D01*
X108523620Y-114274083D02*
X104890620Y-114274083D01*
X108724620Y-113073083D02*
X98574620Y-113073083D01*
X108486620Y-114394083D02*
X104890620Y-114394083D01*
X102408620Y-116114083D02*
X99757620Y-116114083D01*
X104879620Y-117794083D02*
X102419620Y-117794083D01*
X106014620Y-117354083D02*
X101284620Y-117354083D01*
X108288620Y-114914083D02*
X104890620Y-114914083D01*
X102408620Y-115754083D02*
X99483620Y-115754083D01*
X108703620Y-113353083D02*
X98595620Y-113353083D01*
X102408620Y-115034083D02*
X99065620Y-115034083D01*
X105858620Y-117434083D02*
X101440620Y-117434083D01*
X106088620Y-117314083D02*
X101210620Y-117314083D01*
X102408620Y-115674083D02*
X99428620Y-115674083D01*
X107606620Y-116034083D02*
X104890620Y-116034083D01*
X104511620Y-117874083D02*
X102787620Y-117874083D01*
X108511620Y-114314083D02*
X104890620Y-114314083D01*
X108646620Y-113754083D02*
X98652620Y-113754083D01*
X105774620Y-117474083D02*
X101524620Y-117474083D01*
X108194620Y-115114083D02*
X104890620Y-115114083D01*
X108233620Y-115034083D02*
X104890620Y-115034083D01*
X108174620Y-115154083D02*
X104890620Y-115154083D01*
X102408620Y-115994083D02*
X99660620Y-115994083D01*
X106538620Y-117034083D02*
X100760620Y-117034083D01*
X102408620Y-115914083D02*
X99599620Y-115914083D01*
X108044620Y-115394083D02*
X104890620Y-115394083D01*
X106649620Y-116954083D02*
X100649620Y-116954083D01*
X107365620Y-116314083D02*
X104890620Y-116314083D01*
X102408620Y-114754083D02*
X98942620Y-114754083D01*
X102408620Y-114634083D02*
X98895620Y-114634083D01*
X102408620Y-114234083D02*
X98764620Y-114234083D01*
X107870620Y-115674083D02*
X104890620Y-115674083D01*
X102408620Y-115834083D02*
X99539620Y-115834083D01*
X108153620Y-115194083D02*
X104890620Y-115194083D01*
X108473620Y-114434083D02*
X104890620Y-114434083D01*
X107210620Y-116474083D02*
X104890620Y-116474083D01*
X108356620Y-114754083D02*
X104890620Y-114754083D01*
X105495620Y-117594083D02*
X101803620Y-117594083D01*
X105159620Y-117714083D02*
X102139620Y-117714083D01*
X102408620Y-114434083D02*
X98825620Y-114434083D01*
X108577620Y-114074083D02*
X98721620Y-114074083D01*
X108499620Y-114354083D02*
X104890620Y-114354083D01*
X107896620Y-115634083D02*
X104890620Y-115634083D01*
X107922620Y-115594083D02*
X104890620Y-115594083D01*
X108673620Y-113594083D02*
X98625620Y-113594083D01*
X102408620Y-116554083D02*
X100171620Y-116554083D01*
X102408620Y-116314083D02*
X99933620Y-116314083D01*
X102408620Y-116074083D02*
X99724620Y-116074083D01*
X107638620Y-115994083D02*
X104890620Y-115994083D01*
X107815620Y-115754083D02*
X104890620Y-115754083D01*
X108769620Y-112833083D02*
G75*
G03*
X108769620Y-112833083I-5120000J0D01*
G01*
%TO.C,U1*%
X94119620Y-88716760D02*
X94119620Y-89976760D01*
X97879620Y-88716760D02*
X94119620Y-88716760D01*
X94119620Y-95536760D02*
X94119620Y-94276760D01*
X100129620Y-95536760D02*
X94119620Y-95536760D01*
%TO.C,C21*%
X104382620Y-99231760D02*
X107362620Y-99231760D01*
X104382620Y-98511760D02*
X106781620Y-98511760D01*
X98096620Y-101472760D02*
X108186620Y-101472760D01*
X98538620Y-99911760D02*
X101900620Y-99911760D01*
X102079620Y-97071760D02*
X104203620Y-97071760D01*
X104382620Y-99551760D02*
X107558620Y-99551760D01*
X98076620Y-101672760D02*
X108206620Y-101672760D01*
X98920620Y-99231760D02*
X101900620Y-99231760D01*
X98557620Y-99871760D02*
X101900620Y-99871760D01*
X104382620Y-98631760D02*
X106894620Y-98631760D01*
X99840620Y-98191760D02*
X106442620Y-98191760D01*
X98616620Y-99751760D02*
X101900620Y-99751760D01*
X98203620Y-100871760D02*
X108079620Y-100871760D01*
X98244620Y-100711760D02*
X101900620Y-100711760D01*
X98111620Y-101351760D02*
X108171620Y-101351760D01*
X100141620Y-97951760D02*
X106141620Y-97951760D01*
X104382620Y-99631760D02*
X107603620Y-99631760D01*
X98144620Y-101151760D02*
X108138620Y-101151760D01*
X99121620Y-98951760D02*
X101900620Y-98951760D01*
X98451620Y-100111760D02*
X101900620Y-100111760D01*
X104382620Y-99671760D02*
X107624620Y-99671760D01*
X101511620Y-97231760D02*
X104771620Y-97231760D01*
X98256620Y-100671760D02*
X101900620Y-100671760D01*
X98679620Y-99631760D02*
X101900620Y-99631760D01*
X99540620Y-98471760D02*
X101900620Y-98471760D01*
X101104620Y-97391760D02*
X105178620Y-97391760D01*
X98317620Y-100471760D02*
X101900620Y-100471760D01*
X104382620Y-99151760D02*
X107307620Y-99151760D01*
X104382620Y-99791760D02*
X107686620Y-99791760D01*
X104382620Y-99591760D02*
X107581620Y-99591760D01*
X98176620Y-100991760D02*
X108106620Y-100991760D01*
X98213620Y-100831760D02*
X108069620Y-100831760D01*
X99091620Y-98991760D02*
X101900620Y-98991760D01*
X104382620Y-98351760D02*
X106619620Y-98351760D01*
X98484620Y-100031760D02*
X101900620Y-100031760D01*
X104382620Y-100551760D02*
X107991620Y-100551760D01*
X99283620Y-98751760D02*
X101900620Y-98751760D01*
X104382620Y-100591760D02*
X108003620Y-100591760D01*
X98061620Y-102032760D02*
X108221620Y-102032760D01*
X98291620Y-100551760D02*
X101900620Y-100551760D01*
X98223620Y-100791760D02*
X101900620Y-100791760D01*
X104382620Y-100631760D02*
X108015620Y-100631760D01*
X98061620Y-102072760D02*
X108221620Y-102072760D01*
X100562620Y-97671760D02*
X105720620Y-97671760D01*
X99031620Y-99071760D02*
X101900620Y-99071760D01*
X104382620Y-100071760D02*
X107815620Y-100071760D01*
X100252620Y-97871760D02*
X106030620Y-97871760D01*
X104382620Y-100711760D02*
X108038620Y-100711760D01*
X104382620Y-100431760D02*
X107952620Y-100431760D01*
X104382620Y-99751760D02*
X107666620Y-99751760D01*
X104382620Y-100471760D02*
X107965620Y-100471760D01*
X98596620Y-99791760D02*
X101900620Y-99791760D01*
X98106620Y-101392760D02*
X108176620Y-101392760D01*
X104382620Y-98871760D02*
X107098620Y-98871760D01*
X104382620Y-100751760D02*
X108048620Y-100751760D01*
X104382620Y-99031760D02*
X107221620Y-99031760D01*
X98083620Y-101592760D02*
X108199620Y-101592760D01*
X100196620Y-97911760D02*
X106086620Y-97911760D01*
X104382620Y-100031760D02*
X107798620Y-100031760D01*
X100776620Y-97551760D02*
X105506620Y-97551760D01*
X98068620Y-101792760D02*
X108214620Y-101792760D01*
X100702620Y-97591760D02*
X105580620Y-97591760D01*
X104382620Y-98711760D02*
X106965620Y-98711760D01*
X98701620Y-99591760D02*
X101900620Y-99591760D01*
X98746620Y-99511760D02*
X101900620Y-99511760D01*
X104382620Y-100791760D02*
X108059620Y-100791760D01*
X99887620Y-98151760D02*
X106395620Y-98151760D01*
X98947620Y-99191760D02*
X101900620Y-99191760D01*
X99935620Y-98111760D02*
X106347620Y-98111760D01*
X104382620Y-99991760D02*
X107780620Y-99991760D01*
X100496620Y-97711760D02*
X105786620Y-97711760D01*
X104382620Y-100271760D02*
X107895620Y-100271760D01*
X100432620Y-97751760D02*
X105850620Y-97751760D01*
X99216620Y-98831760D02*
X101900620Y-98831760D01*
X98091620Y-101512760D02*
X108191620Y-101512760D01*
X98868620Y-99311760D02*
X101900620Y-99311760D01*
X99462620Y-98551760D02*
X101900620Y-98551760D01*
X104382620Y-98591760D02*
X106857620Y-98591760D01*
X104382620Y-100311760D02*
X107909620Y-100311760D01*
X98975620Y-99151760D02*
X101900620Y-99151760D01*
X98577620Y-99831760D02*
X101900620Y-99831760D01*
X98467620Y-100071760D02*
X101900620Y-100071760D01*
X99705620Y-98311760D02*
X106577620Y-98311760D01*
X102542620Y-96991760D02*
X103740620Y-96991760D01*
X104382620Y-98951760D02*
X107161620Y-98951760D01*
X98137620Y-101191760D02*
X108145620Y-101191760D01*
X104382620Y-98751760D02*
X106999620Y-98751760D01*
X100266620Y-107552406D02*
X100266620Y-106552406D01*
X98637620Y-99711760D02*
X101900620Y-99711760D01*
X104382620Y-98431760D02*
X106702620Y-98431760D01*
X98087620Y-101552760D02*
X108195620Y-101552760D01*
X98770620Y-99471760D02*
X101900620Y-99471760D01*
X99061620Y-99031760D02*
X101900620Y-99031760D01*
X99184620Y-98871760D02*
X101900620Y-98871760D01*
X104382620Y-99511760D02*
X107536620Y-99511760D01*
X98061620Y-101992760D02*
X108221620Y-101992760D01*
X101911620Y-97111760D02*
X104371620Y-97111760D01*
X104382620Y-99351760D02*
X107439620Y-99351760D01*
X98373620Y-100311760D02*
X101900620Y-100311760D01*
X98304620Y-100511760D02*
X101900620Y-100511760D01*
X98818620Y-99391760D02*
X101900620Y-99391760D01*
X101399620Y-97271760D02*
X104883620Y-97271760D01*
X98358620Y-100351760D02*
X101900620Y-100351760D01*
X104382620Y-98471760D02*
X106742620Y-98471760D01*
X98434620Y-100151760D02*
X101900620Y-100151760D01*
X101016620Y-97431760D02*
X105266620Y-97431760D01*
X99425620Y-98591760D02*
X101900620Y-98591760D01*
X99749620Y-98271760D02*
X106533620Y-98271760D01*
X104382620Y-98671760D02*
X106930620Y-98671760D01*
X99003620Y-99111760D02*
X101900620Y-99111760D01*
X104382620Y-100671760D02*
X108026620Y-100671760D01*
X104382620Y-100151760D02*
X107848620Y-100151760D01*
X104382620Y-99191760D02*
X107335620Y-99191760D01*
X104382620Y-100391760D02*
X107938620Y-100391760D01*
X98520620Y-99951760D02*
X101900620Y-99951760D01*
X98117620Y-101311760D02*
X108165620Y-101311760D01*
X104382620Y-100351760D02*
X107924620Y-100351760D01*
X101295620Y-97311760D02*
X104987620Y-97311760D01*
X99501620Y-98511760D02*
X101900620Y-98511760D01*
X104382620Y-99911760D02*
X107744620Y-99911760D01*
X98185620Y-100951760D02*
X108097620Y-100951760D01*
X104382620Y-98911760D02*
X107130620Y-98911760D01*
X98418620Y-100191760D02*
X101900620Y-100191760D01*
X98344620Y-100391760D02*
X101900620Y-100391760D01*
X104382620Y-99311760D02*
X107414620Y-99311760D01*
X99766620Y-107052406D02*
X100766620Y-107052406D01*
X98843620Y-99351760D02*
X101900620Y-99351760D01*
X100932620Y-97471760D02*
X105350620Y-97471760D01*
X104382620Y-98831760D02*
X107066620Y-98831760D01*
X104382620Y-99271760D02*
X107388620Y-99271760D01*
X101763620Y-97151760D02*
X104519620Y-97151760D01*
X98794620Y-99431760D02*
X101900620Y-99431760D01*
X98071620Y-101752760D02*
X108211620Y-101752760D01*
X104382620Y-98391760D02*
X106661620Y-98391760D01*
X98387620Y-100271760D02*
X101900620Y-100271760D01*
X98062620Y-101952760D02*
X108220620Y-101952760D01*
X104382620Y-99111760D02*
X107279620Y-99111760D01*
X100087620Y-97991760D02*
X106195620Y-97991760D01*
X104382620Y-99871760D02*
X107725620Y-99871760D01*
X99621620Y-98391760D02*
X101900620Y-98391760D01*
X98330620Y-100431760D02*
X101900620Y-100431760D01*
X98123620Y-101271760D02*
X108159620Y-101271760D01*
X104382620Y-98791760D02*
X107033620Y-98791760D01*
X101197620Y-97351760D02*
X105085620Y-97351760D01*
X104382620Y-99711760D02*
X107645620Y-99711760D01*
X104382620Y-100111760D02*
X107831620Y-100111760D01*
X99317620Y-98711760D02*
X101900620Y-98711760D01*
X100311620Y-97831760D02*
X105971620Y-97831760D01*
X99152620Y-98911760D02*
X101900620Y-98911760D01*
X104382620Y-99471760D02*
X107512620Y-99471760D01*
X104382620Y-99391760D02*
X107464620Y-99391760D01*
X100631620Y-97631760D02*
X105651620Y-97631760D01*
X98130620Y-101231760D02*
X108152620Y-101231760D01*
X104382620Y-99431760D02*
X107488620Y-99431760D01*
X98079620Y-101632760D02*
X108203620Y-101632760D01*
X104382620Y-99951760D02*
X107762620Y-99951760D01*
X104382620Y-98991760D02*
X107191620Y-98991760D01*
X98063620Y-101912760D02*
X108219620Y-101912760D01*
X99249620Y-98791760D02*
X101900620Y-98791760D01*
X98066620Y-101832760D02*
X108216620Y-101832760D01*
X98234620Y-100751760D02*
X101900620Y-100751760D01*
X104382620Y-99831760D02*
X107705620Y-99831760D01*
X99352620Y-98671760D02*
X101900620Y-98671760D01*
X104382620Y-100191760D02*
X107864620Y-100191760D01*
X98403620Y-100231760D02*
X101900620Y-100231760D01*
X98101620Y-101432760D02*
X108181620Y-101432760D01*
X99794620Y-98231760D02*
X106488620Y-98231760D01*
X104382620Y-100511760D02*
X107978620Y-100511760D01*
X99663620Y-98351760D02*
X101900620Y-98351760D01*
X100035620Y-98031760D02*
X106247620Y-98031760D01*
X99580620Y-98431760D02*
X101900620Y-98431760D01*
X98267620Y-100631760D02*
X101900620Y-100631760D01*
X98894620Y-99271760D02*
X101900620Y-99271760D01*
X98064620Y-101872760D02*
X108218620Y-101872760D01*
X104382620Y-100231760D02*
X107879620Y-100231760D01*
X100852620Y-97511760D02*
X105430620Y-97511760D01*
X98167620Y-101031760D02*
X108115620Y-101031760D01*
X98279620Y-100591760D02*
X101900620Y-100591760D01*
X98159620Y-101071760D02*
X108123620Y-101071760D01*
X102279620Y-97031760D02*
X104003620Y-97031760D01*
X104382620Y-98551760D02*
X106820620Y-98551760D01*
X100371620Y-97791760D02*
X105911620Y-97791760D01*
X98502620Y-99991760D02*
X101900620Y-99991760D01*
X98658620Y-99671760D02*
X101900620Y-99671760D01*
X98151620Y-101111760D02*
X108131620Y-101111760D01*
X99388620Y-98631760D02*
X101900620Y-98631760D01*
X104382620Y-99071760D02*
X107251620Y-99071760D01*
X101631620Y-97191760D02*
X104651620Y-97191760D01*
X98724620Y-99551760D02*
X101900620Y-99551760D01*
X99985620Y-98071760D02*
X106297620Y-98071760D01*
X98194620Y-100911760D02*
X108088620Y-100911760D01*
X98073620Y-101712760D02*
X108209620Y-101712760D01*
X108261620Y-102072760D02*
G75*
G03*
X108261620Y-102072760I-5120000J0D01*
G01*
%TO.C,C14*%
X136302620Y-138966012D02*
X136302620Y-138443508D01*
X137772620Y-138966012D02*
X137772620Y-138443508D01*
%TO.C,R1*%
X93970684Y-141121760D02*
X93516556Y-141121760D01*
X93970684Y-139651760D02*
X93516556Y-139651760D01*
%TO.C,C13*%
X128302620Y-138343508D02*
X128302620Y-138866012D01*
X126832620Y-138343508D02*
X126832620Y-138866012D01*
%TO.C,R21*%
X127722620Y-108947696D02*
X127722620Y-109401824D01*
X126252620Y-108947696D02*
X126252620Y-109401824D01*
%TO.C,C8*%
X100882620Y-90087508D02*
X100882620Y-90610012D01*
X102352620Y-90087508D02*
X102352620Y-90610012D01*
%TO.C,D9*%
X89667620Y-141524760D02*
X89667620Y-132384760D01*
X87417620Y-141404760D02*
X87417620Y-142484760D01*
X89057620Y-141524760D02*
X89667620Y-141524760D01*
X87417620Y-132504760D02*
X87417620Y-131334760D01*
X85167620Y-140069760D02*
X89667620Y-140069760D01*
X85167620Y-141524760D02*
X85167620Y-132384760D01*
X85167620Y-139949760D02*
X89667620Y-139949760D01*
X85167620Y-140189760D02*
X89667620Y-140189760D01*
X85777620Y-141524760D02*
X85167620Y-141524760D01*
X85167620Y-132384760D02*
X85777620Y-132384760D01*
X89667620Y-132384760D02*
X89057620Y-132384760D01*
%TO.C,D4*%
X105119620Y-130318760D02*
X102179620Y-130318760D01*
X102179620Y-129538760D02*
X102179620Y-134978760D01*
X105119620Y-130558760D02*
X102179620Y-130558760D01*
X103649620Y-135998760D02*
X103649620Y-134978760D01*
X103649620Y-128518760D02*
X103649620Y-129538760D01*
X105119620Y-129538760D02*
X102179620Y-129538760D01*
X105119620Y-134978760D02*
X105119620Y-129538760D01*
X105119620Y-130438760D02*
X102179620Y-130438760D01*
X102179620Y-134978760D02*
X105119620Y-134978760D01*
%TO.C,D2*%
X98545620Y-98818760D02*
X95995620Y-98818760D01*
X98545620Y-97118760D02*
X95995620Y-97118760D01*
X98545620Y-98818760D02*
X98545620Y-97118760D01*
%TO.C,R15*%
X112058620Y-95655824D02*
X112058620Y-95201696D01*
X113528620Y-95655824D02*
X113528620Y-95201696D01*
%TO.C,R16*%
X114598620Y-95655824D02*
X114598620Y-95201696D01*
X116068620Y-95655824D02*
X116068620Y-95201696D01*
%TO.C,R7*%
X114798620Y-123395696D02*
X114798620Y-123849824D01*
X113328620Y-123395696D02*
X113328620Y-123849824D01*
%TO.C,C17*%
X131328368Y-125881760D02*
X131850872Y-125881760D01*
X131328368Y-124411760D02*
X131850872Y-124411760D01*
%TO.C,U4*%
X126830620Y-132369760D02*
X126830620Y-134019760D01*
X137110620Y-134019760D02*
X137110620Y-128719760D01*
X126830620Y-128719760D02*
X126830620Y-130369760D01*
X137110620Y-128719760D02*
X126830620Y-128719760D01*
X126830620Y-134019760D02*
X137110620Y-134019760D01*
X126830620Y-132369760D02*
G75*
G03*
X126830620Y-130369760I0J1000000D01*
G01*
%TO.C,R10*%
X134410620Y-124157696D02*
X134410620Y-124611824D01*
X135880620Y-124157696D02*
X135880620Y-124611824D01*
%TO.C,R17*%
X116884620Y-95655824D02*
X116884620Y-95201696D01*
X118354620Y-95655824D02*
X118354620Y-95201696D01*
%TO.C,R13*%
X116064684Y-100069760D02*
X115610556Y-100069760D01*
X116064684Y-101539760D02*
X115610556Y-101539760D01*
%TO.C,R14*%
X111242620Y-95655824D02*
X111242620Y-95201696D01*
X109772620Y-95655824D02*
X109772620Y-95201696D01*
%TO.C,D6*%
X90157620Y-104204760D02*
X90157620Y-95064760D01*
X87907620Y-104084760D02*
X87907620Y-105164760D01*
X89547620Y-104204760D02*
X90157620Y-104204760D01*
X87907620Y-95184760D02*
X87907620Y-94014760D01*
X85657620Y-102749760D02*
X90157620Y-102749760D01*
X85657620Y-104204760D02*
X85657620Y-95064760D01*
X85657620Y-102629760D02*
X90157620Y-102629760D01*
X85657620Y-102869760D02*
X90157620Y-102869760D01*
X86267620Y-104204760D02*
X85657620Y-104204760D01*
X85657620Y-95064760D02*
X86267620Y-95064760D01*
X90157620Y-95064760D02*
X89547620Y-95064760D01*
%TO.C,J2*%
X138258245Y-116466011D02*
X140798245Y-116466011D01*
X140798245Y-116466011D02*
X140798245Y-119006011D01*
X140798245Y-119006011D02*
X138258245Y-119006011D01*
X138258245Y-119006011D02*
X138258245Y-116466011D01*
X138236996Y-126626011D02*
X140776996Y-126626011D01*
X140776996Y-126626011D02*
X140776996Y-129166011D01*
X140776996Y-129166011D02*
X138236996Y-129166011D01*
X138236996Y-129166011D02*
X138236996Y-126626011D01*
X138236996Y-118957885D02*
X140776996Y-118957885D01*
X140776996Y-118957885D02*
X140776996Y-121497885D01*
X140776996Y-121497885D02*
X138236996Y-121497885D01*
X138236996Y-121497885D02*
X138236996Y-118957885D01*
X138258245Y-113926011D02*
X140798245Y-113926011D01*
X140798245Y-113926011D02*
X140798245Y-116466011D01*
X140798245Y-116466011D02*
X138258245Y-116466011D01*
X138258245Y-116466011D02*
X138258245Y-113926011D01*
X138258245Y-111386011D02*
X140798245Y-111386011D01*
X140798245Y-111386011D02*
X140798245Y-113926011D01*
X140798245Y-113926011D02*
X138258245Y-113926011D01*
X138258245Y-113926011D02*
X138258245Y-111386011D01*
X138236996Y-131653510D02*
X140776996Y-131653510D01*
X140776996Y-131653510D02*
X140776996Y-134193510D01*
X140776996Y-134193510D02*
X138236996Y-134193510D01*
X138236996Y-134193510D02*
X138236996Y-131653510D01*
X138236996Y-124022260D02*
X140776996Y-124022260D01*
X140776996Y-124022260D02*
X140776996Y-126562260D01*
X140776996Y-126562260D02*
X138236996Y-126562260D01*
X138236996Y-126562260D02*
X138236996Y-124022260D01*
X138236996Y-121524760D02*
X140776996Y-121524760D01*
X140776996Y-121524760D02*
X140776996Y-124064760D01*
X140776996Y-124064760D02*
X138236996Y-124064760D01*
X138236996Y-124064760D02*
X138236996Y-121524760D01*
X138236996Y-129156010D02*
X140776996Y-129156010D01*
X140776996Y-129156010D02*
X140776996Y-131696010D01*
X140776996Y-131696010D02*
X138236996Y-131696010D01*
X138236996Y-131696010D02*
X138236996Y-129156010D01*
%TO.C,J1*%
X129445120Y-88354760D02*
X130445120Y-87854760D01*
X130835120Y-82644760D02*
X139955120Y-82644760D01*
X132145120Y-94984760D02*
X132145120Y-94984760D01*
X130445120Y-87854760D02*
X129445120Y-87354760D01*
X139955120Y-103224760D02*
X130835120Y-103224760D01*
X138645120Y-83944760D02*
X138645120Y-101924760D01*
X130835120Y-103224760D02*
X130835120Y-82644760D01*
X139955120Y-82644760D02*
X139955120Y-103224760D01*
X132145120Y-90884760D02*
X132145120Y-83944760D01*
X132145120Y-83944760D02*
X138645120Y-83944760D01*
X130835120Y-90884760D02*
X132145120Y-90884760D01*
X132145120Y-101924760D02*
X132145120Y-94984760D01*
X129445120Y-87354760D02*
X129445120Y-88354760D01*
X132145120Y-94984760D02*
X130835120Y-94984760D01*
X138645120Y-101924760D02*
X132145120Y-101924760D01*
%TO.C,C7*%
X112202620Y-126753508D02*
X112202620Y-127276012D01*
X110732620Y-126753508D02*
X110732620Y-127276012D01*
%TO.C,R2*%
X96564620Y-137057824D02*
X96564620Y-136603696D01*
X98034620Y-137057824D02*
X98034620Y-136603696D01*
%TO.C,C10*%
X103930620Y-90087508D02*
X103930620Y-90610012D01*
X105400620Y-90087508D02*
X105400620Y-90610012D01*
%TO.C,R12*%
X127861338Y-119961595D02*
X128182455Y-119640478D01*
X128900785Y-121001042D02*
X129221902Y-120679925D01*
%TD*%
M02*
