%TF.GenerationSoftware,KiCad,Pcbnew,(6.0.4)*%
%TF.CreationDate,2022-04-19T13:44:17-07:00*%
%TF.ProjectId,stm32f091_project_condensed_v02_afterchange,73746d33-3266-4303-9931-5f70726f6a65,v01*%
%TF.SameCoordinates,Original*%
%TF.FileFunction,Soldermask,Bot*%
%TF.FilePolarity,Negative*%
%FSLAX46Y46*%
G04 Gerber Fmt 4.6, Leading zero omitted, Abs format (unit mm)*
G04 Created by KiCad (PCBNEW (6.0.4)) date 2022-04-19 13:44:17*
%MOMM*%
%LPD*%
G01*
G04 APERTURE LIST*
G04 Aperture macros list*
%AMRoundRect*
0 Rectangle with rounded corners*
0 $1 Rounding radius*
0 $2 $3 $4 $5 $6 $7 $8 $9 X,Y pos of 4 corners*
0 Add a 4 corners polygon primitive as box body*
4,1,4,$2,$3,$4,$5,$6,$7,$8,$9,$2,$3,0*
0 Add four circle primitives for the rounded corners*
1,1,$1+$1,$2,$3*
1,1,$1+$1,$4,$5*
1,1,$1+$1,$6,$7*
1,1,$1+$1,$8,$9*
0 Add four rect primitives between the rounded corners*
20,1,$1+$1,$2,$3,$4,$5,0*
20,1,$1+$1,$4,$5,$6,$7,0*
20,1,$1+$1,$6,$7,$8,$9,0*
20,1,$1+$1,$8,$9,$2,$3,0*%
G04 Aperture macros list end*
%ADD10C,1.524000*%
%ADD11R,2.000000X2.000000*%
%ADD12C,2.000000*%
%ADD13R,2.200000X2.200000*%
%ADD14O,2.200000X2.200000*%
%ADD15R,1.600000X1.600000*%
%ADD16O,1.600000X1.600000*%
%ADD17C,1.800000*%
%ADD18C,2.400000*%
%ADD19R,2.800000X2.800000*%
%ADD20O,2.800000X2.800000*%
%ADD21R,1.800000X1.800000*%
%ADD22RoundRect,0.250000X-0.600000X-0.600000X0.600000X-0.600000X0.600000X0.600000X-0.600000X0.600000X0*%
%ADD23C,1.700000*%
%ADD24RoundRect,0.250000X0.097227X-0.574524X0.574524X-0.097227X-0.097227X0.574524X-0.574524X0.097227X0*%
%ADD25RoundRect,0.250000X0.574524X0.097227X0.097227X0.574524X-0.574524X-0.097227X-0.097227X-0.574524X0*%
%ADD26RoundRect,0.250000X-0.337500X-0.475000X0.337500X-0.475000X0.337500X0.475000X-0.337500X0.475000X0*%
%ADD27C,0.800000*%
G04 APERTURE END LIST*
D10*
%TO.C,J3*%
X109757620Y-91664760D03*
X112297620Y-91664760D03*
X114837620Y-91664760D03*
X117377620Y-91664760D03*
X119917620Y-91664760D03*
X122457620Y-91664760D03*
X124997620Y-91664760D03*
X127537620Y-91664760D03*
%TD*%
D11*
%TO.C,C18*%
X133367620Y-106777083D03*
D12*
X133367620Y-111777083D03*
%TD*%
D13*
%TO.C,D3*%
X117357620Y-143174760D03*
D14*
X107197620Y-143174760D03*
%TD*%
D15*
%TO.C,U2*%
X109477620Y-139064760D03*
D16*
X112017620Y-139064760D03*
X114557620Y-139064760D03*
X117097620Y-139064760D03*
X119637620Y-139064760D03*
X122177620Y-139064760D03*
X124717620Y-139064760D03*
X124717620Y-131444760D03*
X122177620Y-131444760D03*
X119637620Y-131444760D03*
X117097620Y-131444760D03*
X114557620Y-131444760D03*
X112017620Y-131444760D03*
X109477620Y-131444760D03*
%TD*%
D17*
%TO.C,RV1*%
X97553620Y-140386760D03*
X100093620Y-140386760D03*
X102633620Y-140386760D03*
%TD*%
D10*
%TO.C,J4*%
X92981620Y-137592760D03*
X92981620Y-132512760D03*
%TD*%
D18*
%TO.C,100mH1*%
X115039620Y-106858760D03*
X110039620Y-106858760D03*
%TD*%
D19*
%TO.C,D7*%
X87717620Y-125674760D03*
D20*
X87717620Y-110914760D03*
%TD*%
D10*
%TO.C,LS1*%
X140757620Y-138134760D03*
X140757620Y-140674760D03*
%TD*%
D19*
%TO.C,D8*%
X93887620Y-120604760D03*
D20*
X93887620Y-105844760D03*
%TD*%
D13*
%TO.C,D1*%
X100093620Y-137338760D03*
D14*
X100093620Y-127178760D03*
%TD*%
D17*
%TO.C,RV2*%
X127779620Y-141974260D03*
X130319620Y-141974260D03*
X132859620Y-141974260D03*
%TD*%
D21*
%TO.C,LD1*%
X102374620Y-94412760D03*
D17*
X104914620Y-94412760D03*
%TD*%
D11*
%TO.C,C22*%
X103649620Y-110333083D03*
D12*
X103649620Y-115333083D03*
%TD*%
D11*
%TO.C,C21*%
X103141620Y-104572760D03*
D12*
X103141620Y-99572760D03*
%TD*%
D19*
%TO.C,D9*%
X87417620Y-144334760D03*
D20*
X87417620Y-129574760D03*
%TD*%
D13*
%TO.C,D4*%
X103649620Y-127178760D03*
D14*
X103649620Y-137338760D03*
%TD*%
D15*
%TO.C,U4*%
X128160620Y-135179760D03*
D16*
X130700620Y-135179760D03*
X133240620Y-135179760D03*
X135780620Y-135179760D03*
X135780620Y-127559760D03*
X133240620Y-127559760D03*
X130700620Y-127559760D03*
X128160620Y-127559760D03*
%TD*%
D19*
%TO.C,D6*%
X87907620Y-107014760D03*
D20*
X87907620Y-92254760D03*
%TD*%
D10*
%TO.C,J2*%
X139528245Y-112656011D03*
X139528245Y-115196011D03*
X139528245Y-117736011D03*
X139528245Y-120276011D03*
X139528245Y-122816011D03*
X139528245Y-125356011D03*
X139528245Y-127896011D03*
X139528245Y-130436011D03*
X139528245Y-132976011D03*
%TD*%
D22*
%TO.C,J1*%
X134125120Y-87854760D03*
D23*
X136665120Y-87854760D03*
X134125120Y-90394760D03*
X136665120Y-90394760D03*
X134125120Y-92934760D03*
X136665120Y-92934760D03*
X134125120Y-95474760D03*
X136665120Y-95474760D03*
X134125120Y-98014760D03*
X136665120Y-98014760D03*
%TD*%
D24*
%TO.C,C1*%
X110154997Y-122578383D03*
X111622243Y-121111137D03*
%TD*%
D25*
%TO.C,C6*%
X119877243Y-108227383D03*
X118409997Y-106760137D03*
%TD*%
D24*
%TO.C,C3*%
X127172997Y-116609383D03*
X128640243Y-115142137D03*
%TD*%
D26*
%TO.C,C9*%
X122678120Y-117145760D03*
X124753120Y-117145760D03*
%TD*%
D24*
%TO.C,C5*%
X115171497Y-126769383D03*
X116638743Y-125302137D03*
%TD*%
D27*
X95767620Y-126374760D03*
X127927620Y-133024760D03*
X121327620Y-112479412D03*
X126907659Y-121907260D03*
X112968112Y-113704760D03*
X126382620Y-127050513D03*
X111397620Y-111984760D03*
X118000620Y-124765760D03*
X120317620Y-126344760D03*
X123597620Y-118794760D03*
X130065620Y-89967760D03*
X112158620Y-120074316D03*
X108727620Y-111964760D03*
X120410627Y-111180606D03*
X124807620Y-135414760D03*
X110797620Y-130454760D03*
X122807620Y-108664760D03*
X137877120Y-125724760D03*
X125257620Y-125034760D03*
X108221620Y-130035260D03*
X137967620Y-116764760D03*
X141117620Y-109284760D03*
X127277620Y-119472469D03*
X134148673Y-124384760D03*
X125684435Y-121057945D03*
X111907620Y-108834760D03*
X113977620Y-111764760D03*
X114317620Y-98754760D03*
X112767620Y-105694760D03*
X121703772Y-105140705D03*
X127657620Y-106544760D03*
X115857620Y-122984760D03*
X117357620Y-116234760D03*
X121527620Y-127834760D03*
X119177620Y-113334760D03*
X119027620Y-120824760D03*
X131717620Y-85224760D03*
X122447620Y-114244760D03*
X120467620Y-116270260D03*
X142017620Y-105284760D03*
X120502620Y-113159760D03*
X122497620Y-115634760D03*
X127906620Y-117780760D03*
X133552620Y-117609760D03*
X110570120Y-101196179D03*
X119140853Y-124841412D03*
X113352344Y-125781083D03*
X131235998Y-118416382D03*
X114967620Y-116924760D03*
X131007620Y-121624760D03*
X113887620Y-134484760D03*
X114017620Y-116714760D03*
X92287620Y-128274760D03*
X118347620Y-130174760D03*
M02*
