%TF.GenerationSoftware,KiCad,Pcbnew,(6.0.4)*%
%TF.CreationDate,2022-04-18T09:54:31-07:00*%
%TF.ProjectId,stm32f091_project_condensed_v02,73746d33-3266-4303-9931-5f70726f6a65,v01*%
%TF.SameCoordinates,Original*%
%TF.FileFunction,Legend,Bot*%
%TF.FilePolarity,Positive*%
%FSLAX46Y46*%
G04 Gerber Fmt 4.6, Leading zero omitted, Abs format (unit mm)*
G04 Created by KiCad (PCBNEW (6.0.4)) date 2022-04-18 09:54:31*
%MOMM*%
%LPD*%
G01*
G04 APERTURE LIST*
%ADD10C,0.150000*%
%ADD11C,0.120000*%
G04 APERTURE END LIST*
D10*
X134318262Y-115099140D02*
X134318262Y-114099140D01*
X133937310Y-114099140D01*
X133842072Y-114146760D01*
X133794453Y-114194379D01*
X133746834Y-114289617D01*
X133746834Y-114432474D01*
X133794453Y-114527712D01*
X133842072Y-114575331D01*
X133937310Y-114622950D01*
X134318262Y-114622950D01*
X133318262Y-115099140D02*
X133318262Y-114432474D01*
X133318262Y-114099140D02*
X133365881Y-114146760D01*
X133318262Y-114194379D01*
X133270643Y-114146760D01*
X133318262Y-114099140D01*
X133318262Y-114194379D01*
X132699215Y-115099140D02*
X132794453Y-115051521D01*
X132842072Y-114956283D01*
X132842072Y-114099140D01*
X132175405Y-115099140D02*
X132270643Y-115051521D01*
X132318262Y-114956283D01*
X132318262Y-114099140D01*
X131223024Y-115003902D02*
X131270643Y-115051521D01*
X131413500Y-115099140D01*
X131508739Y-115099140D01*
X131651596Y-115051521D01*
X131746834Y-114956283D01*
X131794453Y-114861045D01*
X131842072Y-114670569D01*
X131842072Y-114527712D01*
X131794453Y-114337236D01*
X131746834Y-114241998D01*
X131651596Y-114146760D01*
X131508739Y-114099140D01*
X131413500Y-114099140D01*
X131270643Y-114146760D01*
X131223024Y-114194379D01*
X130461120Y-114575331D02*
X130318262Y-114622950D01*
X130270643Y-114670569D01*
X130223024Y-114765807D01*
X130223024Y-114908664D01*
X130270643Y-115003902D01*
X130318262Y-115051521D01*
X130413500Y-115099140D01*
X130794453Y-115099140D01*
X130794453Y-114099140D01*
X130461120Y-114099140D01*
X130365881Y-114146760D01*
X130318262Y-114194379D01*
X130270643Y-114289617D01*
X130270643Y-114384855D01*
X130318262Y-114480093D01*
X130365881Y-114527712D01*
X130461120Y-114575331D01*
X130794453Y-114575331D01*
X129032548Y-114718188D02*
X128270643Y-114718188D01*
X127175405Y-114099140D02*
X126603977Y-114099140D01*
X126889691Y-115099140D02*
X126889691Y-114099140D01*
X125889691Y-115051521D02*
X125984929Y-115099140D01*
X126175405Y-115099140D01*
X126270643Y-115051521D01*
X126318262Y-114956283D01*
X126318262Y-114575331D01*
X126270643Y-114480093D01*
X126175405Y-114432474D01*
X125984929Y-114432474D01*
X125889691Y-114480093D01*
X125842072Y-114575331D01*
X125842072Y-114670569D01*
X126318262Y-114765807D01*
X124984929Y-115099140D02*
X124984929Y-114575331D01*
X125032548Y-114480093D01*
X125127786Y-114432474D01*
X125318262Y-114432474D01*
X125413500Y-114480093D01*
X124984929Y-115051521D02*
X125080167Y-115099140D01*
X125318262Y-115099140D01*
X125413500Y-115051521D01*
X125461120Y-114956283D01*
X125461120Y-114861045D01*
X125413500Y-114765807D01*
X125318262Y-114718188D01*
X125080167Y-114718188D01*
X124984929Y-114670569D01*
X124508739Y-115099140D02*
X124508739Y-114432474D01*
X124508739Y-114527712D02*
X124461120Y-114480093D01*
X124365881Y-114432474D01*
X124223024Y-114432474D01*
X124127786Y-114480093D01*
X124080167Y-114575331D01*
X124080167Y-115099140D01*
X124080167Y-114575331D02*
X124032548Y-114480093D01*
X123937310Y-114432474D01*
X123794453Y-114432474D01*
X123699215Y-114480093D01*
X123651596Y-114575331D01*
X123651596Y-115099140D01*
X121889691Y-115099140D02*
X122461120Y-115099140D01*
X122175405Y-115099140D02*
X122175405Y-114099140D01*
X122270643Y-114241998D01*
X122365881Y-114337236D01*
X122461120Y-114384855D01*
X121032548Y-114099140D02*
X121223024Y-114099140D01*
X121318262Y-114146760D01*
X121365881Y-114194379D01*
X121461120Y-114337236D01*
X121508739Y-114527712D01*
X121508739Y-114908664D01*
X121461120Y-115003902D01*
X121413500Y-115051521D01*
X121318262Y-115099140D01*
X121127786Y-115099140D01*
X121032548Y-115051521D01*
X120984929Y-115003902D01*
X120937310Y-114908664D01*
X120937310Y-114670569D01*
X120984929Y-114575331D01*
X121032548Y-114527712D01*
X121127786Y-114480093D01*
X121318262Y-114480093D01*
X121413500Y-114527712D01*
X121461120Y-114575331D01*
X121508739Y-114670569D01*
X119461120Y-115480093D02*
X119508739Y-115432474D01*
X119603977Y-115289617D01*
X119651596Y-115194379D01*
X119699215Y-115051521D01*
X119746834Y-114813426D01*
X119746834Y-114622950D01*
X119699215Y-114384855D01*
X119651596Y-114241998D01*
X119603977Y-114146760D01*
X119508739Y-114003902D01*
X119461120Y-113956283D01*
X118651596Y-114432474D02*
X118651596Y-115099140D01*
X118889691Y-114051521D02*
X119127786Y-114765807D01*
X118508739Y-114765807D01*
X117413500Y-114051521D02*
X118270643Y-115337236D01*
X116556358Y-115099140D02*
X117127786Y-115099140D01*
X116842072Y-115099140D02*
X116842072Y-114099140D01*
X116937310Y-114241998D01*
X117032548Y-114337236D01*
X117127786Y-114384855D01*
X116223024Y-114099140D02*
X115603977Y-114099140D01*
X115937310Y-114480093D01*
X115794453Y-114480093D01*
X115699215Y-114527712D01*
X115651596Y-114575331D01*
X115603977Y-114670569D01*
X115603977Y-114908664D01*
X115651596Y-115003902D01*
X115699215Y-115051521D01*
X115794453Y-115099140D01*
X116080167Y-115099140D01*
X116175405Y-115051521D01*
X116223024Y-115003902D01*
X114461120Y-114051521D02*
X115318262Y-115337236D01*
X114175405Y-114194379D02*
X114127786Y-114146760D01*
X114032548Y-114099140D01*
X113794453Y-114099140D01*
X113699215Y-114146760D01*
X113651596Y-114194379D01*
X113603977Y-114289617D01*
X113603977Y-114384855D01*
X113651596Y-114527712D01*
X114223024Y-115099140D01*
X113603977Y-115099140D01*
X112984929Y-114099140D02*
X112889691Y-114099140D01*
X112794453Y-114146760D01*
X112746834Y-114194379D01*
X112699215Y-114289617D01*
X112651596Y-114480093D01*
X112651596Y-114718188D01*
X112699215Y-114908664D01*
X112746834Y-115003902D01*
X112794453Y-115051521D01*
X112889691Y-115099140D01*
X112984929Y-115099140D01*
X113080167Y-115051521D01*
X113127786Y-115003902D01*
X113175405Y-114908664D01*
X113223024Y-114718188D01*
X113223024Y-114480093D01*
X113175405Y-114289617D01*
X113127786Y-114194379D01*
X113080167Y-114146760D01*
X112984929Y-114099140D01*
X112270643Y-114194379D02*
X112223024Y-114146760D01*
X112127786Y-114099140D01*
X111889691Y-114099140D01*
X111794453Y-114146760D01*
X111746834Y-114194379D01*
X111699215Y-114289617D01*
X111699215Y-114384855D01*
X111746834Y-114527712D01*
X112318262Y-115099140D01*
X111699215Y-115099140D01*
X111318262Y-114194379D02*
X111270643Y-114146760D01*
X111175405Y-114099140D01*
X110937310Y-114099140D01*
X110842072Y-114146760D01*
X110794453Y-114194379D01*
X110746834Y-114289617D01*
X110746834Y-114384855D01*
X110794453Y-114527712D01*
X111365881Y-115099140D01*
X110746834Y-115099140D01*
X109556358Y-114718188D02*
X108794453Y-114718188D01*
X107699215Y-114099140D02*
X107365881Y-115099140D01*
X107032548Y-114099140D01*
X106508739Y-114099140D02*
X106413500Y-114099140D01*
X106318262Y-114146760D01*
X106270643Y-114194379D01*
X106223024Y-114289617D01*
X106175405Y-114480093D01*
X106175405Y-114718188D01*
X106223024Y-114908664D01*
X106270643Y-115003902D01*
X106318262Y-115051521D01*
X106413500Y-115099140D01*
X106508739Y-115099140D01*
X106603977Y-115051521D01*
X106651596Y-115003902D01*
X106699215Y-114908664D01*
X106746834Y-114718188D01*
X106746834Y-114480093D01*
X106699215Y-114289617D01*
X106651596Y-114194379D01*
X106603977Y-114146760D01*
X106508739Y-114099140D01*
X105223024Y-115099140D02*
X105794453Y-115099140D01*
X105508739Y-115099140D02*
X105508739Y-114099140D01*
X105603977Y-114241998D01*
X105699215Y-114337236D01*
X105794453Y-114384855D01*
X104889691Y-115480093D02*
X104842072Y-115432474D01*
X104746834Y-115289617D01*
X104699215Y-115194379D01*
X104651596Y-115051521D01*
X104603977Y-114813426D01*
X104603977Y-114622950D01*
X104651596Y-114384855D01*
X104699215Y-114241998D01*
X104746834Y-114146760D01*
X104842072Y-114003902D01*
X104889691Y-113956283D01*
X131008739Y-115709140D02*
X131008739Y-116423426D01*
X131056358Y-116566283D01*
X131151596Y-116661521D01*
X131294453Y-116709140D01*
X131389691Y-116709140D01*
X130103977Y-116709140D02*
X130103977Y-116185331D01*
X130151596Y-116090093D01*
X130246834Y-116042474D01*
X130437310Y-116042474D01*
X130532548Y-116090093D01*
X130103977Y-116661521D02*
X130199215Y-116709140D01*
X130437310Y-116709140D01*
X130532548Y-116661521D01*
X130580167Y-116566283D01*
X130580167Y-116471045D01*
X130532548Y-116375807D01*
X130437310Y-116328188D01*
X130199215Y-116328188D01*
X130103977Y-116280569D01*
X129627786Y-116709140D02*
X129627786Y-116042474D01*
X129627786Y-115709140D02*
X129675405Y-115756760D01*
X129627786Y-115804379D01*
X129580167Y-115756760D01*
X129627786Y-115709140D01*
X129627786Y-115804379D01*
X128723024Y-116709140D02*
X128723024Y-115709140D01*
X128723024Y-116661521D02*
X128818262Y-116709140D01*
X129008739Y-116709140D01*
X129103977Y-116661521D01*
X129151596Y-116613902D01*
X129199215Y-116518664D01*
X129199215Y-116232950D01*
X129151596Y-116137712D01*
X129103977Y-116090093D01*
X129008739Y-116042474D01*
X128818262Y-116042474D01*
X128723024Y-116090093D01*
X127865881Y-116661521D02*
X127961120Y-116709140D01*
X128151596Y-116709140D01*
X128246834Y-116661521D01*
X128294453Y-116566283D01*
X128294453Y-116185331D01*
X128246834Y-116090093D01*
X128151596Y-116042474D01*
X127961120Y-116042474D01*
X127865881Y-116090093D01*
X127818262Y-116185331D01*
X127818262Y-116280569D01*
X128294453Y-116375807D01*
X127008739Y-116661521D02*
X127103977Y-116709140D01*
X127294453Y-116709140D01*
X127389691Y-116661521D01*
X127437310Y-116566283D01*
X127437310Y-116185331D01*
X127389691Y-116090093D01*
X127294453Y-116042474D01*
X127103977Y-116042474D01*
X127008739Y-116090093D01*
X126961120Y-116185331D01*
X126961120Y-116280569D01*
X127437310Y-116375807D01*
X126532548Y-116042474D02*
X126532548Y-117042474D01*
X126532548Y-116090093D02*
X126437310Y-116042474D01*
X126246834Y-116042474D01*
X126151596Y-116090093D01*
X126103977Y-116137712D01*
X126056358Y-116232950D01*
X126056358Y-116518664D01*
X126103977Y-116613902D01*
X126151596Y-116661521D01*
X126246834Y-116709140D01*
X126437310Y-116709140D01*
X126532548Y-116661521D01*
X124865881Y-116709140D02*
X124865881Y-115709140D01*
X124627786Y-115709140D01*
X124484929Y-115756760D01*
X124389691Y-115851998D01*
X124342072Y-115947236D01*
X124294453Y-116137712D01*
X124294453Y-116280569D01*
X124342072Y-116471045D01*
X124389691Y-116566283D01*
X124484929Y-116661521D01*
X124627786Y-116709140D01*
X124865881Y-116709140D01*
X123437310Y-116709140D02*
X123437310Y-116185331D01*
X123484929Y-116090093D01*
X123580167Y-116042474D01*
X123770643Y-116042474D01*
X123865881Y-116090093D01*
X123437310Y-116661521D02*
X123532548Y-116709140D01*
X123770643Y-116709140D01*
X123865881Y-116661521D01*
X123913500Y-116566283D01*
X123913500Y-116471045D01*
X123865881Y-116375807D01*
X123770643Y-116328188D01*
X123532548Y-116328188D01*
X123437310Y-116280569D01*
X122961120Y-116709140D02*
X122961120Y-116042474D01*
X122961120Y-116137712D02*
X122913500Y-116090093D01*
X122818262Y-116042474D01*
X122675405Y-116042474D01*
X122580167Y-116090093D01*
X122532548Y-116185331D01*
X122532548Y-116709140D01*
X122532548Y-116185331D02*
X122484929Y-116090093D01*
X122389691Y-116042474D01*
X122246834Y-116042474D01*
X122151596Y-116090093D01*
X122103977Y-116185331D01*
X122103977Y-116709140D01*
X121484929Y-116709140D02*
X121580167Y-116661521D01*
X121627786Y-116566283D01*
X121627786Y-115709140D01*
X120723024Y-116661521D02*
X120818262Y-116709140D01*
X121008739Y-116709140D01*
X121103977Y-116661521D01*
X121151596Y-116566283D01*
X121151596Y-116185331D01*
X121103977Y-116090093D01*
X121008739Y-116042474D01*
X120818262Y-116042474D01*
X120723024Y-116090093D01*
X120675405Y-116185331D01*
X120675405Y-116280569D01*
X121151596Y-116375807D01*
X120199215Y-116661521D02*
X120199215Y-116709140D01*
X120246834Y-116804379D01*
X120294453Y-116851998D01*
X118532548Y-116709140D02*
X119008739Y-116709140D01*
X119008739Y-115709140D01*
X117770643Y-116709140D02*
X117770643Y-116185331D01*
X117818262Y-116090093D01*
X117913500Y-116042474D01*
X118103977Y-116042474D01*
X118199215Y-116090093D01*
X117770643Y-116661521D02*
X117865881Y-116709140D01*
X118103977Y-116709140D01*
X118199215Y-116661521D01*
X118246834Y-116566283D01*
X118246834Y-116471045D01*
X118199215Y-116375807D01*
X118103977Y-116328188D01*
X117865881Y-116328188D01*
X117770643Y-116280569D01*
X116865881Y-116042474D02*
X116865881Y-116709140D01*
X117294453Y-116042474D02*
X117294453Y-116566283D01*
X117246834Y-116661521D01*
X117151596Y-116709140D01*
X117008739Y-116709140D01*
X116913500Y-116661521D01*
X116865881Y-116613902D01*
X116389691Y-116709140D02*
X116389691Y-116042474D01*
X116389691Y-116232950D02*
X116342072Y-116137712D01*
X116294453Y-116090093D01*
X116199215Y-116042474D01*
X116103977Y-116042474D01*
X115389691Y-116661521D02*
X115484929Y-116709140D01*
X115675405Y-116709140D01*
X115770643Y-116661521D01*
X115818262Y-116566283D01*
X115818262Y-116185331D01*
X115770643Y-116090093D01*
X115675405Y-116042474D01*
X115484929Y-116042474D01*
X115389691Y-116090093D01*
X115342072Y-116185331D01*
X115342072Y-116280569D01*
X115818262Y-116375807D01*
X114913500Y-116042474D02*
X114913500Y-116709140D01*
X114913500Y-116137712D02*
X114865881Y-116090093D01*
X114770643Y-116042474D01*
X114627786Y-116042474D01*
X114532548Y-116090093D01*
X114484929Y-116185331D01*
X114484929Y-116709140D01*
X112723024Y-115756760D02*
X112818262Y-115709140D01*
X112961120Y-115709140D01*
X113103977Y-115756760D01*
X113199215Y-115851998D01*
X113246834Y-115947236D01*
X113294453Y-116137712D01*
X113294453Y-116280569D01*
X113246834Y-116471045D01*
X113199215Y-116566283D01*
X113103977Y-116661521D01*
X112961120Y-116709140D01*
X112865881Y-116709140D01*
X112723024Y-116661521D01*
X112675405Y-116613902D01*
X112675405Y-116280569D01*
X112865881Y-116280569D01*
X111818262Y-116042474D02*
X111818262Y-116709140D01*
X112246834Y-116042474D02*
X112246834Y-116566283D01*
X112199215Y-116661521D01*
X112103977Y-116709140D01*
X111961120Y-116709140D01*
X111865881Y-116661521D01*
X111818262Y-116613902D01*
X111342072Y-116042474D02*
X111342072Y-116709140D01*
X111342072Y-116137712D02*
X111294453Y-116090093D01*
X111199215Y-116042474D01*
X111056358Y-116042474D01*
X110961120Y-116090093D01*
X110913500Y-116185331D01*
X110913500Y-116709140D01*
X110580167Y-116042474D02*
X110199215Y-116042474D01*
X110437310Y-115709140D02*
X110437310Y-116566283D01*
X110389691Y-116661521D01*
X110294453Y-116709140D01*
X110199215Y-116709140D01*
X109484929Y-116661521D02*
X109580167Y-116709140D01*
X109770643Y-116709140D01*
X109865881Y-116661521D01*
X109913500Y-116566283D01*
X109913500Y-116185331D01*
X109865881Y-116090093D01*
X109770643Y-116042474D01*
X109580167Y-116042474D01*
X109484929Y-116090093D01*
X109437310Y-116185331D01*
X109437310Y-116280569D01*
X109913500Y-116375807D01*
X109008739Y-116709140D02*
X109008739Y-116042474D01*
X109008739Y-116232950D02*
X108961120Y-116137712D01*
X108913500Y-116090093D01*
X108818262Y-116042474D01*
X108723024Y-116042474D01*
X108342072Y-116661521D02*
X108342072Y-116709140D01*
X108389691Y-116804379D01*
X108437310Y-116851998D01*
X133270643Y-118319140D02*
X133270643Y-117319140D01*
X132699215Y-118319140D01*
X132699215Y-117319140D01*
X132223024Y-118319140D02*
X132223024Y-117652474D01*
X132223024Y-117319140D02*
X132270643Y-117366760D01*
X132223024Y-117414379D01*
X132175405Y-117366760D01*
X132223024Y-117319140D01*
X132223024Y-117414379D01*
X131318262Y-118319140D02*
X131318262Y-117319140D01*
X131318262Y-118271521D02*
X131413500Y-118319140D01*
X131603977Y-118319140D01*
X131699215Y-118271521D01*
X131746834Y-118223902D01*
X131794453Y-118128664D01*
X131794453Y-117842950D01*
X131746834Y-117747712D01*
X131699215Y-117700093D01*
X131603977Y-117652474D01*
X131413500Y-117652474D01*
X131318262Y-117700093D01*
X130842072Y-118319140D02*
X130842072Y-117319140D01*
X130413500Y-118319140D02*
X130413500Y-117795331D01*
X130461120Y-117700093D01*
X130556358Y-117652474D01*
X130699215Y-117652474D01*
X130794453Y-117700093D01*
X130842072Y-117747712D01*
X129937310Y-118319140D02*
X129937310Y-117652474D01*
X129937310Y-117319140D02*
X129984929Y-117366760D01*
X129937310Y-117414379D01*
X129889691Y-117366760D01*
X129937310Y-117319140D01*
X129937310Y-117414379D01*
X128699215Y-118319140D02*
X128699215Y-117319140D01*
X128127786Y-118319140D02*
X128556358Y-117747712D01*
X128127786Y-117319140D02*
X128699215Y-117890569D01*
X127270643Y-117652474D02*
X127270643Y-118319140D01*
X127699215Y-117652474D02*
X127699215Y-118176283D01*
X127651596Y-118271521D01*
X127556358Y-118319140D01*
X127413500Y-118319140D01*
X127318262Y-118271521D01*
X127270643Y-118223902D01*
X126794453Y-117652474D02*
X126794453Y-118319140D01*
X126794453Y-117747712D02*
X126746834Y-117700093D01*
X126651596Y-117652474D01*
X126508739Y-117652474D01*
X126413500Y-117700093D01*
X126365881Y-117795331D01*
X126365881Y-118319140D01*
X125889691Y-118319140D02*
X125889691Y-117652474D01*
X125889691Y-117319140D02*
X125937310Y-117366760D01*
X125889691Y-117414379D01*
X125842072Y-117366760D01*
X125889691Y-117319140D01*
X125889691Y-117414379D01*
X124984929Y-117652474D02*
X124984929Y-118461998D01*
X125032548Y-118557236D01*
X125080167Y-118604855D01*
X125175405Y-118652474D01*
X125318262Y-118652474D01*
X125413500Y-118604855D01*
X124984929Y-118271521D02*
X125080167Y-118319140D01*
X125270643Y-118319140D01*
X125365881Y-118271521D01*
X125413500Y-118223902D01*
X125461120Y-118128664D01*
X125461120Y-117842950D01*
X125413500Y-117747712D01*
X125365881Y-117700093D01*
X125270643Y-117652474D01*
X125080167Y-117652474D01*
X124984929Y-117700093D01*
X124080167Y-118319140D02*
X124080167Y-117795331D01*
X124127786Y-117700093D01*
X124223024Y-117652474D01*
X124413500Y-117652474D01*
X124508739Y-117700093D01*
X124080167Y-118271521D02*
X124175405Y-118319140D01*
X124413500Y-118319140D01*
X124508739Y-118271521D01*
X124556358Y-118176283D01*
X124556358Y-118081045D01*
X124508739Y-117985807D01*
X124413500Y-117938188D01*
X124175405Y-117938188D01*
X124080167Y-117890569D01*
X123461120Y-118319140D02*
X123556358Y-118271521D01*
X123603977Y-118176283D01*
X123603977Y-117319140D01*
X123032548Y-118271521D02*
X123032548Y-118319140D01*
X123080167Y-118414379D01*
X123127786Y-118461998D01*
X121842072Y-117795331D02*
X121508739Y-117795331D01*
X121365881Y-118319140D02*
X121842072Y-118319140D01*
X121842072Y-117319140D01*
X121365881Y-117319140D01*
X120794453Y-118319140D02*
X120889691Y-118271521D01*
X120937310Y-118176283D01*
X120937310Y-117319140D01*
X120413500Y-118319140D02*
X120413500Y-117652474D01*
X120413500Y-117319140D02*
X120461120Y-117366760D01*
X120413500Y-117414379D01*
X120365881Y-117366760D01*
X120413500Y-117319140D01*
X120413500Y-117414379D01*
X120032548Y-117652474D02*
X119508739Y-117652474D01*
X120032548Y-118319140D01*
X119508739Y-118319140D01*
X118699215Y-118319140D02*
X118699215Y-117795331D01*
X118746834Y-117700093D01*
X118842072Y-117652474D01*
X119032548Y-117652474D01*
X119127786Y-117700093D01*
X118699215Y-118271521D02*
X118794453Y-118319140D01*
X119032548Y-118319140D01*
X119127786Y-118271521D01*
X119175405Y-118176283D01*
X119175405Y-118081045D01*
X119127786Y-117985807D01*
X119032548Y-117938188D01*
X118794453Y-117938188D01*
X118699215Y-117890569D01*
X118223024Y-118319140D02*
X118223024Y-117319140D01*
X118223024Y-117700093D02*
X118127786Y-117652474D01*
X117937310Y-117652474D01*
X117842072Y-117700093D01*
X117794453Y-117747712D01*
X117746834Y-117842950D01*
X117746834Y-118128664D01*
X117794453Y-118223902D01*
X117842072Y-118271521D01*
X117937310Y-118319140D01*
X118127786Y-118319140D01*
X118223024Y-118271521D01*
X116937310Y-118271521D02*
X117032548Y-118319140D01*
X117223024Y-118319140D01*
X117318262Y-118271521D01*
X117365881Y-118176283D01*
X117365881Y-117795331D01*
X117318262Y-117700093D01*
X117223024Y-117652474D01*
X117032548Y-117652474D01*
X116937310Y-117700093D01*
X116889691Y-117795331D01*
X116889691Y-117890569D01*
X117365881Y-117985807D01*
X116603977Y-117652474D02*
X116223024Y-117652474D01*
X116461120Y-117319140D02*
X116461120Y-118176283D01*
X116413500Y-118271521D01*
X116318262Y-118319140D01*
X116223024Y-118319140D01*
X115889691Y-118319140D02*
X115889691Y-117319140D01*
X115461120Y-118319140D02*
X115461120Y-117795331D01*
X115508739Y-117700093D01*
X115603977Y-117652474D01*
X115746834Y-117652474D01*
X115842072Y-117700093D01*
X115889691Y-117747712D01*
X114223024Y-118319140D02*
X114223024Y-117319140D01*
X113889691Y-118033426D01*
X113556358Y-117319140D01*
X113556358Y-118319140D01*
X112651596Y-118271521D02*
X112746834Y-118319140D01*
X112937310Y-118319140D01*
X113032548Y-118271521D01*
X113080167Y-118223902D01*
X113127786Y-118128664D01*
X113127786Y-117842950D01*
X113080167Y-117747712D01*
X113032548Y-117700093D01*
X112937310Y-117652474D01*
X112746834Y-117652474D01*
X112651596Y-117700093D01*
X112223024Y-118319140D02*
X112223024Y-117319140D01*
X111651596Y-118319140D01*
X111651596Y-117319140D01*
X110746834Y-118319140D02*
X110746834Y-117795331D01*
X110794453Y-117700093D01*
X110889691Y-117652474D01*
X111080167Y-117652474D01*
X111175405Y-117700093D01*
X110746834Y-118271521D02*
X110842072Y-118319140D01*
X111080167Y-118319140D01*
X111175405Y-118271521D01*
X111223024Y-118176283D01*
X111223024Y-118081045D01*
X111175405Y-117985807D01*
X111080167Y-117938188D01*
X110842072Y-117938188D01*
X110746834Y-117890569D01*
X109842072Y-117652474D02*
X109842072Y-118319140D01*
X110270643Y-117652474D02*
X110270643Y-118176283D01*
X110223024Y-118271521D01*
X110127786Y-118319140D01*
X109984929Y-118319140D01*
X109889691Y-118271521D01*
X109842072Y-118223902D01*
X108937310Y-117652474D02*
X108937310Y-118461998D01*
X108984929Y-118557236D01*
X109032548Y-118604855D01*
X109127786Y-118652474D01*
X109270643Y-118652474D01*
X109365881Y-118604855D01*
X108937310Y-118271521D02*
X109032548Y-118319140D01*
X109223024Y-118319140D01*
X109318262Y-118271521D01*
X109365881Y-118223902D01*
X109413500Y-118128664D01*
X109413500Y-117842950D01*
X109365881Y-117747712D01*
X109318262Y-117700093D01*
X109223024Y-117652474D01*
X109032548Y-117652474D01*
X108937310Y-117700093D01*
X108461120Y-118319140D02*
X108461120Y-117319140D01*
X108032548Y-118319140D02*
X108032548Y-117795331D01*
X108080167Y-117700093D01*
X108175405Y-117652474D01*
X108318262Y-117652474D01*
X108413500Y-117700093D01*
X108461120Y-117747712D01*
X107699215Y-117652474D02*
X107318262Y-117652474D01*
X107556358Y-117319140D02*
X107556358Y-118176283D01*
X107508739Y-118271521D01*
X107413500Y-118319140D01*
X107318262Y-118319140D01*
X106842072Y-118319140D02*
X106937310Y-118271521D01*
X106984929Y-118223902D01*
X107032548Y-118128664D01*
X107032548Y-117842950D01*
X106984929Y-117747712D01*
X106937310Y-117700093D01*
X106842072Y-117652474D01*
X106699215Y-117652474D01*
X106603977Y-117700093D01*
X106556358Y-117747712D01*
X106508739Y-117842950D01*
X106508739Y-118128664D01*
X106556358Y-118223902D01*
X106603977Y-118271521D01*
X106699215Y-118319140D01*
X106842072Y-118319140D01*
X106080167Y-117652474D02*
X106080167Y-118319140D01*
X106080167Y-117747712D02*
X106032548Y-117700093D01*
X105937310Y-117652474D01*
X105794453Y-117652474D01*
X105699215Y-117700093D01*
X105651596Y-117795331D01*
X105651596Y-118319140D01*
%TO.C,C1*%
X112827948Y-122913386D02*
X112895291Y-122913386D01*
X113029978Y-122846042D01*
X113097322Y-122778699D01*
X113164665Y-122644011D01*
X113164665Y-122509324D01*
X113130994Y-122408309D01*
X113029978Y-122239950D01*
X112928963Y-122138935D01*
X112760604Y-122037920D01*
X112659589Y-122004248D01*
X112524902Y-122004248D01*
X112390215Y-122071592D01*
X112322871Y-122138935D01*
X112255528Y-122273622D01*
X112255528Y-122340966D01*
X112221856Y-123654164D02*
X112625917Y-123250103D01*
X112423887Y-123452134D02*
X111716780Y-122745027D01*
X111885139Y-122778699D01*
X112019826Y-122778699D01*
X112120841Y-122745027D01*
%TO.C,C6*%
X116139935Y-129276619D02*
X116139935Y-129209276D01*
X116072591Y-129074589D01*
X116005248Y-129007245D01*
X115870560Y-128939902D01*
X115735873Y-128939902D01*
X115634858Y-128973573D01*
X115466499Y-129074589D01*
X115365484Y-129175604D01*
X115264469Y-129343963D01*
X115230797Y-129444978D01*
X115230797Y-129579665D01*
X115298141Y-129714352D01*
X115365484Y-129781696D01*
X115500171Y-129849039D01*
X115567515Y-129849039D01*
X116106263Y-130522474D02*
X115971576Y-130387787D01*
X115937904Y-130286772D01*
X115937904Y-130219428D01*
X115971576Y-130051070D01*
X116072591Y-129882711D01*
X116341965Y-129613337D01*
X116442980Y-129579665D01*
X116510324Y-129579665D01*
X116611339Y-129613337D01*
X116746026Y-129748024D01*
X116779698Y-129849039D01*
X116779698Y-129916383D01*
X116746026Y-130017398D01*
X116577667Y-130185757D01*
X116476652Y-130219428D01*
X116409309Y-130219428D01*
X116308293Y-130185757D01*
X116173606Y-130051070D01*
X116139935Y-129950054D01*
X116139935Y-129882711D01*
X116173606Y-129781696D01*
%TO.C,C3*%
X115113948Y-125199386D02*
X115181291Y-125199386D01*
X115315978Y-125132042D01*
X115383322Y-125064699D01*
X115450665Y-124930011D01*
X115450665Y-124795324D01*
X115416994Y-124694309D01*
X115315978Y-124525950D01*
X115214963Y-124424935D01*
X115046604Y-124323920D01*
X114945589Y-124290248D01*
X114810902Y-124290248D01*
X114676215Y-124357592D01*
X114608871Y-124424935D01*
X114541528Y-124559622D01*
X114541528Y-124626966D01*
X114238482Y-124795324D02*
X113800749Y-125233057D01*
X114305826Y-125266729D01*
X114204810Y-125367744D01*
X114171139Y-125468760D01*
X114171139Y-125536103D01*
X114204810Y-125637118D01*
X114373169Y-125805477D01*
X114474184Y-125839149D01*
X114541528Y-125839149D01*
X114642543Y-125805477D01*
X114844574Y-125603447D01*
X114878246Y-125502431D01*
X114878246Y-125435088D01*
%TO.C,C9*%
X126117746Y-125366431D02*
X126117746Y-125299088D01*
X126050402Y-125164401D01*
X125983059Y-125097057D01*
X125848371Y-125029714D01*
X125713684Y-125029714D01*
X125612669Y-125063385D01*
X125444310Y-125164401D01*
X125343295Y-125265416D01*
X125242280Y-125433775D01*
X125208608Y-125534790D01*
X125208608Y-125669477D01*
X125275952Y-125804164D01*
X125343295Y-125871508D01*
X125477982Y-125938851D01*
X125545326Y-125938851D01*
X126521807Y-125635805D02*
X126656494Y-125770492D01*
X126690165Y-125871508D01*
X126690165Y-125938851D01*
X126656494Y-126107210D01*
X126555478Y-126275569D01*
X126286104Y-126544943D01*
X126185089Y-126578614D01*
X126117746Y-126578614D01*
X126016730Y-126544943D01*
X125882043Y-126410256D01*
X125848371Y-126309240D01*
X125848371Y-126241897D01*
X125882043Y-126140882D01*
X126050402Y-125972523D01*
X126151417Y-125938851D01*
X126218761Y-125938851D01*
X126319776Y-125972523D01*
X126454463Y-126107210D01*
X126488135Y-126208225D01*
X126488135Y-126275569D01*
X126454463Y-126376584D01*
%TO.C,C5*%
X117463448Y-127358386D02*
X117530791Y-127358386D01*
X117665478Y-127291042D01*
X117732822Y-127223699D01*
X117800165Y-127089011D01*
X117800165Y-126954324D01*
X117766494Y-126853309D01*
X117665478Y-126684950D01*
X117564463Y-126583935D01*
X117396104Y-126482920D01*
X117295089Y-126449248D01*
X117160402Y-126449248D01*
X117025715Y-126516592D01*
X116958371Y-126583935D01*
X116891028Y-126718622D01*
X116891028Y-126785966D01*
X116183921Y-127358386D02*
X116520639Y-127021668D01*
X116891028Y-127324714D01*
X116823684Y-127324714D01*
X116722669Y-127358386D01*
X116554310Y-127526744D01*
X116520639Y-127627760D01*
X116520639Y-127695103D01*
X116554310Y-127796118D01*
X116722669Y-127964477D01*
X116823684Y-127998149D01*
X116891028Y-127998149D01*
X116992043Y-127964477D01*
X117160402Y-127796118D01*
X117194074Y-127695103D01*
X117194074Y-127627760D01*
D11*
%TO.C,C1*%
X111604610Y-122295217D02*
X111974077Y-121925750D01*
X110565163Y-121255770D02*
X110934630Y-120886303D01*
%TO.C,C6*%
X118046487Y-128645217D02*
X118415954Y-128275750D01*
X117007040Y-127605770D02*
X117376507Y-127236303D01*
%TO.C,C3*%
X112851163Y-123541770D02*
X113220630Y-123172303D01*
X113890610Y-124581217D02*
X114260077Y-124211750D01*
%TO.C,C9*%
X125499577Y-126589770D02*
X125130110Y-126220303D01*
X124460130Y-127629217D02*
X124090663Y-127259750D01*
%TO.C,C5*%
X115200663Y-125700770D02*
X115570130Y-125331303D01*
X116240110Y-126740217D02*
X116609577Y-126370750D01*
%TD*%
M02*
