%TF.GenerationSoftware,KiCad,Pcbnew,(6.0.4)*%
%TF.CreationDate,2022-04-18T09:54:31-07:00*%
%TF.ProjectId,stm32f091_project_condensed_v02,73746d33-3266-4303-9931-5f70726f6a65,v01*%
%TF.SameCoordinates,Original*%
%TF.FileFunction,Soldermask,Top*%
%TF.FilePolarity,Negative*%
%FSLAX46Y46*%
G04 Gerber Fmt 4.6, Leading zero omitted, Abs format (unit mm)*
G04 Created by KiCad (PCBNEW (6.0.4)) date 2022-04-18 09:54:31*
%MOMM*%
%LPD*%
G01*
G04 APERTURE LIST*
G04 Aperture macros list*
%AMRoundRect*
0 Rectangle with rounded corners*
0 $1 Rounding radius*
0 $2 $3 $4 $5 $6 $7 $8 $9 X,Y pos of 4 corners*
0 Add a 4 corners polygon primitive as box body*
4,1,4,$2,$3,$4,$5,$6,$7,$8,$9,$2,$3,0*
0 Add four circle primitives for the rounded corners*
1,1,$1+$1,$2,$3*
1,1,$1+$1,$4,$5*
1,1,$1+$1,$6,$7*
1,1,$1+$1,$8,$9*
0 Add four rect primitives between the rounded corners*
20,1,$1+$1,$2,$3,$4,$5,0*
20,1,$1+$1,$4,$5,$6,$7,0*
20,1,$1+$1,$6,$7,$8,$9,0*
20,1,$1+$1,$8,$9,$2,$3,0*%
G04 Aperture macros list end*
%ADD10C,1.524000*%
%ADD11RoundRect,0.250000X-0.337500X-0.475000X0.337500X-0.475000X0.337500X0.475000X-0.337500X0.475000X0*%
%ADD12R,2.000000X2.000000*%
%ADD13C,2.000000*%
%ADD14RoundRect,0.250000X0.450000X-0.350000X0.450000X0.350000X-0.450000X0.350000X-0.450000X-0.350000X0*%
%ADD15R,2.200000X2.200000*%
%ADD16O,2.200000X2.200000*%
%ADD17RoundRect,0.250000X0.475000X-0.337500X0.475000X0.337500X-0.475000X0.337500X-0.475000X-0.337500X0*%
%ADD18RoundRect,0.250000X0.337500X0.475000X-0.337500X0.475000X-0.337500X-0.475000X0.337500X-0.475000X0*%
%ADD19R,0.450000X0.600000*%
%ADD20C,1.800000*%
%ADD21RoundRect,0.250000X-0.475000X0.337500X-0.475000X-0.337500X0.475000X-0.337500X0.475000X0.337500X0*%
%ADD22R,1.550000X1.300000*%
%ADD23C,2.400000*%
%ADD24RoundRect,0.250000X-0.450000X0.350000X-0.450000X-0.350000X0.450000X-0.350000X0.450000X0.350000X0*%
%ADD25RoundRect,0.075000X0.441942X0.548008X-0.548008X-0.441942X-0.441942X-0.548008X0.548008X0.441942X0*%
%ADD26RoundRect,0.075000X-0.441942X0.548008X-0.548008X0.441942X0.441942X-0.548008X0.548008X-0.441942X0*%
%ADD27R,1.800000X1.800000*%
%ADD28R,2.000000X1.500000*%
%ADD29R,2.000000X3.800000*%
%ADD30RoundRect,0.250000X0.350000X0.450000X-0.350000X0.450000X-0.350000X-0.450000X0.350000X-0.450000X0*%
%ADD31R,0.600000X0.450000*%
%ADD32RoundRect,0.250000X-0.600000X-0.600000X0.600000X-0.600000X0.600000X0.600000X-0.600000X0.600000X0*%
%ADD33C,1.700000*%
%ADD34RoundRect,0.250000X0.070711X-0.565685X0.565685X-0.070711X-0.070711X0.565685X-0.565685X0.070711X0*%
G04 APERTURE END LIST*
D10*
%TO.C,J3*%
X109757620Y-91664760D03*
X112297620Y-91664760D03*
X114837620Y-91664760D03*
X117377620Y-91664760D03*
X119917620Y-91664760D03*
X122457620Y-91664760D03*
X124997620Y-91664760D03*
X127537620Y-91664760D03*
%TD*%
D11*
%TO.C,C20*%
X134616120Y-116256760D03*
X136691120Y-116256760D03*
%TD*%
D12*
%TO.C,C18*%
X133367620Y-106777083D03*
D13*
X133367620Y-111777083D03*
%TD*%
D14*
%TO.C,R18*%
X120921620Y-96428760D03*
X120921620Y-94428760D03*
%TD*%
D15*
%TO.C,D3*%
X117111620Y-140132760D03*
D16*
X106951620Y-140132760D03*
%TD*%
D17*
%TO.C,C15*%
X132605620Y-137868260D03*
X132605620Y-135793260D03*
%TD*%
D18*
%TO.C,C4*%
X94527120Y-99746760D03*
X92452120Y-99746760D03*
%TD*%
D19*
%TO.C,D5*%
X109491620Y-101050760D03*
X109491620Y-98950760D03*
%TD*%
D11*
%TO.C,C16*%
X126488120Y-124892760D03*
X128563120Y-124892760D03*
%TD*%
D20*
%TO.C,RV1*%
X97553620Y-140386760D03*
X100093620Y-140386760D03*
X102633620Y-140386760D03*
%TD*%
D10*
%TO.C,J4*%
X92981620Y-137592760D03*
X92981620Y-132512760D03*
%TD*%
D21*
%TO.C,C12*%
X118127620Y-126649260D03*
X118127620Y-128724260D03*
%TD*%
D15*
%TO.C,D7*%
X93235620Y-128956760D03*
D16*
X93235620Y-118796760D03*
%TD*%
D22*
%TO.C,SW1*%
X101193620Y-124094760D03*
X109153620Y-124094760D03*
X109153620Y-119594760D03*
X101193620Y-119594760D03*
%TD*%
D14*
%TO.C,R3*%
X108983620Y-128686760D03*
X108983620Y-126686760D03*
%TD*%
D23*
%TO.C,100mH1*%
X110039620Y-106858760D03*
X115039620Y-106858760D03*
%TD*%
D24*
%TO.C,R4*%
X106697620Y-127194760D03*
X106697620Y-129194760D03*
%TD*%
D15*
%TO.C,D9*%
X96537620Y-118796760D03*
D16*
X96537620Y-128956760D03*
%TD*%
D14*
%TO.C,R8*%
X115841620Y-128686760D03*
X115841620Y-126686760D03*
%TD*%
D10*
%TO.C,LS1*%
X139209620Y-138100760D03*
X139209620Y-140640760D03*
%TD*%
D22*
%TO.C,SW2*%
X120497620Y-99528760D03*
X128457620Y-99528760D03*
X120497620Y-104028760D03*
X128457620Y-104028760D03*
%TD*%
D24*
%TO.C,R9*%
X130573620Y-135830760D03*
X130573620Y-137830760D03*
%TD*%
%TO.C,R5*%
X113555620Y-126686760D03*
X113555620Y-128686760D03*
%TD*%
%TO.C,R11*%
X107459620Y-94936760D03*
X107459620Y-96936760D03*
%TD*%
D10*
%TO.C,U2*%
X107459620Y-136830760D03*
X109999620Y-136830760D03*
X112539620Y-136830760D03*
X115079620Y-136830760D03*
X117619620Y-136830760D03*
X120159620Y-136830760D03*
X122699620Y-136830760D03*
X122699620Y-131750760D03*
X120159620Y-131750760D03*
X117619620Y-131750760D03*
X115079620Y-131750760D03*
X112539620Y-131750760D03*
X109999620Y-131750760D03*
X107459620Y-131750760D03*
%TD*%
D11*
%TO.C,C19*%
X132076120Y-120574760D03*
X134151120Y-120574760D03*
%TD*%
D17*
%TO.C,C11*%
X125239620Y-141170260D03*
X125239620Y-139095260D03*
%TD*%
D25*
%TO.C,U3*%
X126570101Y-115403579D03*
X126216548Y-115050026D03*
X125862995Y-114696473D03*
X125509441Y-114342919D03*
X125155888Y-113989366D03*
X124802334Y-113635812D03*
X124448781Y-113282259D03*
X124095228Y-112928706D03*
X123741674Y-112575152D03*
X123388121Y-112221599D03*
X123034568Y-111868046D03*
X122681014Y-111514492D03*
X122327461Y-111160939D03*
X121973907Y-110807385D03*
X121620354Y-110453832D03*
X121266801Y-110100279D03*
D26*
X118544439Y-110100279D03*
X118190886Y-110453832D03*
X117837333Y-110807385D03*
X117483779Y-111160939D03*
X117130226Y-111514492D03*
X116776672Y-111868046D03*
X116423119Y-112221599D03*
X116069566Y-112575152D03*
X115716012Y-112928706D03*
X115362459Y-113282259D03*
X115008906Y-113635812D03*
X114655352Y-113989366D03*
X114301799Y-114342919D03*
X113948245Y-114696473D03*
X113594692Y-115050026D03*
X113241139Y-115403579D03*
D25*
X113241139Y-118125941D03*
X113594692Y-118479494D03*
X113948245Y-118833047D03*
X114301799Y-119186601D03*
X114655352Y-119540154D03*
X115008906Y-119893708D03*
X115362459Y-120247261D03*
X115716012Y-120600814D03*
X116069566Y-120954368D03*
X116423119Y-121307921D03*
X116776672Y-121661474D03*
X117130226Y-122015028D03*
X117483779Y-122368581D03*
X117837333Y-122722135D03*
X118190886Y-123075688D03*
X118544439Y-123429241D03*
D26*
X121266801Y-123429241D03*
X121620354Y-123075688D03*
X121973907Y-122722135D03*
X122327461Y-122368581D03*
X122681014Y-122015028D03*
X123034568Y-121661474D03*
X123388121Y-121307921D03*
X123741674Y-120954368D03*
X124095228Y-120600814D03*
X124448781Y-120247261D03*
X124802334Y-119893708D03*
X125155888Y-119540154D03*
X125509441Y-119186601D03*
X125862995Y-118833047D03*
X126216548Y-118479494D03*
X126570101Y-118125941D03*
%TD*%
D15*
%TO.C,D1*%
X100093620Y-137338760D03*
D16*
X100093620Y-127178760D03*
%TD*%
D14*
%TO.C,R6*%
X112031620Y-124368760D03*
X112031620Y-122368760D03*
%TD*%
D20*
%TO.C,RV2*%
X127779620Y-140831260D03*
X130319620Y-140831260D03*
X132859620Y-140831260D03*
%TD*%
D27*
%TO.C,LD1*%
X102374620Y-94412760D03*
D20*
X104914620Y-94412760D03*
%TD*%
D14*
%TO.C,R19*%
X124223620Y-96428760D03*
X124223620Y-94428760D03*
%TD*%
D11*
%TO.C,C23*%
X120392120Y-106350760D03*
X122467120Y-106350760D03*
%TD*%
D18*
%TO.C,C2*%
X94527120Y-102032760D03*
X92452120Y-102032760D03*
%TD*%
D14*
%TO.C,R20*%
X127779620Y-96428760D03*
X127779620Y-94428760D03*
%TD*%
D12*
%TO.C,C22*%
X103649620Y-110333083D03*
D13*
X103649620Y-115333083D03*
%TD*%
D28*
%TO.C,U1*%
X99179620Y-94426760D03*
D29*
X92879620Y-92126760D03*
D28*
X99179620Y-92126760D03*
X99179620Y-89826760D03*
%TD*%
D12*
%TO.C,C21*%
X103141620Y-104572760D03*
D13*
X103141620Y-99572760D03*
%TD*%
D17*
%TO.C,C14*%
X135907620Y-137614260D03*
X135907620Y-135539260D03*
%TD*%
D30*
%TO.C,R1*%
X94743620Y-140386760D03*
X92743620Y-140386760D03*
%TD*%
D21*
%TO.C,C13*%
X127525620Y-135793260D03*
X127525620Y-137868260D03*
%TD*%
D24*
%TO.C,R21*%
X126987620Y-108174760D03*
X126987620Y-110174760D03*
%TD*%
D21*
%TO.C,C8*%
X101617620Y-89311260D03*
X101617620Y-91386260D03*
%TD*%
D15*
%TO.C,D6*%
X93235620Y-116002760D03*
D16*
X93235620Y-105842760D03*
%TD*%
D15*
%TO.C,D4*%
X103649620Y-127178760D03*
D16*
X103649620Y-137338760D03*
%TD*%
D31*
%TO.C,D2*%
X98095620Y-97968760D03*
X95995620Y-97968760D03*
%TD*%
D14*
%TO.C,R15*%
X112793620Y-96428760D03*
X112793620Y-94428760D03*
%TD*%
%TO.C,R16*%
X115333620Y-96428760D03*
X115333620Y-94428760D03*
%TD*%
D24*
%TO.C,R7*%
X114063620Y-122622760D03*
X114063620Y-124622760D03*
%TD*%
D15*
%TO.C,D8*%
X96537620Y-116002760D03*
D16*
X96537620Y-105842760D03*
%TD*%
D11*
%TO.C,C17*%
X130552120Y-125146760D03*
X132627120Y-125146760D03*
%TD*%
D10*
%TO.C,U4*%
X127779620Y-132766760D03*
X130319620Y-132766760D03*
X132859620Y-132766760D03*
X135399620Y-132766760D03*
X135399620Y-127686760D03*
X132859620Y-127686760D03*
X130319620Y-127686760D03*
X127779620Y-127686760D03*
%TD*%
D24*
%TO.C,R10*%
X135145620Y-123384760D03*
X135145620Y-125384760D03*
%TD*%
D14*
%TO.C,R17*%
X117619620Y-96428760D03*
X117619620Y-94428760D03*
%TD*%
%TO.C,R13*%
X112285620Y-100746760D03*
X112285620Y-98746760D03*
%TD*%
%TO.C,R14*%
X110507620Y-96428760D03*
X110507620Y-94428760D03*
%TD*%
D10*
%TO.C,J2*%
X139528245Y-132976011D03*
X139528245Y-130436011D03*
X139528245Y-127896011D03*
X139528245Y-125356011D03*
X139528245Y-122816011D03*
X139528245Y-120276011D03*
X139528245Y-117736011D03*
X139528245Y-115196011D03*
X139528245Y-112656011D03*
%TD*%
D32*
%TO.C,J1*%
X134125120Y-87854760D03*
D33*
X136665120Y-87854760D03*
X134125120Y-90394760D03*
X136665120Y-90394760D03*
X134125120Y-92934760D03*
X136665120Y-92934760D03*
X134125120Y-95474760D03*
X136665120Y-95474760D03*
X134125120Y-98014760D03*
X136665120Y-98014760D03*
%TD*%
D21*
%TO.C,C7*%
X111015620Y-126649260D03*
X111015620Y-128724260D03*
%TD*%
D14*
%TO.C,R2*%
X97299620Y-137830760D03*
X97299620Y-135830760D03*
%TD*%
D21*
%TO.C,C10*%
X104665620Y-89311260D03*
X104665620Y-91386260D03*
%TD*%
D34*
%TO.C,R12*%
X127834513Y-121027867D03*
X129248727Y-119613653D03*
%TD*%
M02*
