M48
; DRILL file {KiCad (6.0.4)} date Mon Apr 18 09:54:39 2022
; FORMAT={-:-/ absolute / inch / decimal}
; #@! TF.CreationDate,2022-04-18T09:54:39-07:00
; #@! TF.GenerationSoftware,Kicad,Pcbnew,(6.0.4)
; #@! TF.FileFunction,Plated,1,4,PTH
FMAT,2
INCH
; #@! TA.AperFunction,Plated,PTH,ViaDrill
T1C0.0157
; #@! TA.AperFunction,Plated,PTH,ComponentDrill
T2C0.0300
; #@! TA.AperFunction,Plated,PTH,ComponentDrill
T3C0.0354
; #@! TA.AperFunction,Plated,PTH,ComponentDrill
T4C0.0394
; #@! TA.AperFunction,Plated,PTH,ComponentDrill
T5C0.0433
; #@! TA.AperFunction,Plated,PTH,ComponentDrill
T6C0.0472
%
G90
G05
T1
X4.2607Y-5.1195
X4.2806Y-4.4081
X4.3532Y-3.9841
X4.3613Y-5.1199
X4.3857Y-4.4088
X4.4055Y-4.7091
X4.4058Y-4.2848
X4.4397Y-4.1612
X4.4407Y-4.952
X4.4476Y-4.4766
X4.4807Y-5.127
X4.483Y-5.2163
X4.4838Y-5.2947
X4.4873Y-4.4002
X4.4889Y-4.5951
X4.5263Y-4.6033
X4.5464Y-5.127
X4.5613Y-4.8419
X4.5653Y-4.0344
X4.6204Y-4.5762
X4.6563Y-4.9021
X4.6861Y-4.7569
X4.6906Y-4.915
X4.692Y-4.462
X4.6969Y-4.9758
X4.7141Y-4.3713
X4.7428Y-4.5776
X4.7442Y-4.4551
X4.7538Y-4.9108
X4.7767Y-4.4283
X4.7846Y-5.0329
X4.7915Y-4.1394
X4.8086Y-4.9124
X4.8208Y-4.4978
X4.8227Y-4.5525
X4.8349Y-4.2781
X4.866Y-4.677
X4.9137Y-5.3313
X4.9302Y-4.7876
X4.9314Y-4.9226
X4.9397Y-5.1427
X4.9835Y-5.002
X5.0109Y-4.7036
X5.0259Y-4.1947
X5.0881Y-4.7995
X5.1497Y-4.7607
X5.1857Y-3.3553
X5.1921Y-4.6874
X5.258Y-4.6303
X5.2814Y-4.897
X5.4318Y-4.597
X5.4429Y-4.9847
X5.5558Y-4.3025
X5.5912Y-4.1451
T2
X3.6607Y-5.217
X3.6607Y-5.417
X4.2307Y-5.187
X4.2307Y-5.387
X4.3212Y-3.6088
X4.3307Y-5.187
X4.3307Y-5.387
X4.4212Y-3.6088
X4.4307Y-5.187
X4.4307Y-5.387
X4.5212Y-3.6088
X4.5307Y-5.187
X4.5307Y-5.387
X4.6212Y-3.6088
X4.6307Y-5.187
X4.6307Y-5.387
X4.7212Y-3.6088
X4.7307Y-5.187
X4.7307Y-5.387
X4.8212Y-3.6088
X4.8307Y-5.187
X4.8307Y-5.387
X4.9212Y-3.6088
X5.0212Y-3.6088
X5.0307Y-5.027
X5.0307Y-5.227
X5.1307Y-5.027
X5.1307Y-5.227
X5.2307Y-5.027
X5.2307Y-5.227
X5.3307Y-5.027
X5.3307Y-5.227
X5.4807Y-5.437
X5.4807Y-5.537
X5.4932Y-4.4353
X5.4932Y-4.5353
X5.4932Y-4.6353
X5.4932Y-4.7353
X5.4932Y-4.8353
X5.4932Y-4.9353
X5.4932Y-5.0353
X5.4932Y-5.1353
X5.4932Y-5.2353
T3
X4.0305Y-3.717
X4.1305Y-3.717
T4
X3.8407Y-5.527
X3.9407Y-5.527
X4.0407Y-5.527
X4.0607Y-3.9202
X4.0607Y-4.117
X4.0807Y-4.3438
X4.0807Y-4.5407
X5.0307Y-5.5445
X5.1307Y-5.5445
X5.2307Y-5.5445
X5.2507Y-4.2038
X5.2507Y-4.4007
X5.2805Y-3.4588
X5.2805Y-3.5588
X5.2805Y-3.6588
X5.2805Y-3.7588
X5.2805Y-3.8588
X5.3805Y-3.4588
X5.3805Y-3.5588
X5.3805Y-3.6588
X5.3805Y-3.7588
X5.3805Y-3.8588
T5
X3.6707Y-4.167
X3.6707Y-4.567
X3.6707Y-4.677
X3.6707Y-5.077
X3.8007Y-4.167
X3.8007Y-4.567
X3.8007Y-4.677
X3.8007Y-5.077
X3.9407Y-5.007
X3.9407Y-5.407
X4.0807Y-5.007
X4.0807Y-5.407
X4.2107Y-5.517
X4.6107Y-5.517
T6
X4.3323Y-4.207
X4.5291Y-4.207
T0
M30
