#include <stdint.h>
const uint8_t midifile[] = {
0x4d,0x54,0x68,0x64,0x00,0x00,0x00,0x06,0x00,0x01,0x00,0x04,0x00,0xc0,0x4d,0x54,
0x72,0x6b,0x00,0x00,0x00,0x93,0x00,0xff,0x03,0x0e,0x50,0x69,0x61,0x6e,0x6f,0x20,
0x54,0x65,0x6d,0x70,0x6c,0x61,0x74,0x65,0x00,0xff,0x01,0x09,0x42,0x79,0x20,0x3c,
0x4e,0x61,0x6d,0x65,0x3e,0x00,0xff,0x02,0x1c,0x43,0x6f,0x70,0x79,0x72,0x69,0x67,
0x68,0x74,0x20,0xa9,0x20,0x3c,0x59,0x65,0x61,0x72,0x3e,0x20,0x62,0x79,0x20,0x3c,
0x4e,0x61,0x6d,0x65,0x3e,0x00,0xff,0x02,0x13,0x41,0x6c,0x6c,0x20,0x52,0x69,0x67,
0x68,0x74,0x73,0x20,0x52,0x65,0x73,0x65,0x72,0x76,0x65,0x64,0x00,0xff,0x01,0x20,
0x47,0x65,0x6e,0x65,0x72,0x61,0x74,0x65,0x64,0x20,0x62,0x79,0x20,0x4e,0x6f,0x74,
0x65,0x57,0x6f,0x72,0x74,0x68,0x79,0x20,0x43,0x6f,0x6d,0x70,0x6f,0x73,0x65,0x72,
0x00,0xff,0x51,0x03,0x04,0x93,0xe0,0x00,0xff,0x59,0x02,0xff,0x00,0x00,0xff,0x58,
0x04,0x06,0x03,0x18,0x08,0x00,0xff,0x2f,0x00,0x4d,0x54,0x72,0x6b,0x00,0x00,0x12,
0x54,0x00,0xff,0x21,0x01,0x00,0x00,0xff,0x03,0x0a,0x52,0x69,0x67,0x68,0x74,0x20,
0x48,0x61,0x6e,0x64,0x00,0xc0,0x00,0x00,0xb0,0x07,0x7f,0x00,0xb0,0x0a,0x40,0x00,
0xb0,0x40,0x7f,0x00,0x90,0x3e,0x6c,0x81,0x40,0x90,0x3e,0x00,0x00,0x90,0x3e,0x6c,
0x60,0x90,0x3e,0x00,0x00,0x90,0x3e,0x6c,0x81,0x40,0x90,0x3e,0x00,0x00,0x90,0x3e,
0x6c,0x60,0x90,0x3e,0x00,0x00,0x90,0x3e,0x6c,0x81,0x40,0x90,0x3e,0x00,0x00,0x90,
0x3e,0x6c,0x60,0x90,0x3e,0x00,0x00,0x90,0x3e,0x6c,0x60,0x90,0x3e,0x00,0x00,0x90,
0x3e,0x6c,0x60,0x90,0x3e,0x00,0x00,0x90,0x3e,0x6c,0x60,0x90,0x3e,0x00,0x00,0x90,
0x3e,0x6c,0x81,0x40,0x90,0x3e,0x00,0x00,0x90,0x3e,0x6c,0x60,0x90,0x3e,0x00,0x00,
0x90,0x3e,0x6c,0x81,0x40,0x90,0x3e,0x00,0x00,0x90,0x3e,0x6c,0x60,0x90,0x3e,0x00,
0x00,0x90,0x3e,0x6c,0x81,0x40,0x90,0x3e,0x00,0x00,0x90,0x3e,0x6c,0x60,0x90,0x3e,
0x00,0x00,0x90,0x3e,0x6c,0x60,0x90,0x3e,0x00,0x00,0x90,0x3e,0x6c,0x60,0x90,0x3e,
0x00,0x00,0x90,0x3e,0x6c,0x60,0x90,0x3e,0x00,0x00,0x90,0x3e,0x6c,0x81,0x40,0x90,
0x3e,0x00,0x00,0x90,0x3e,0x6c,0x60,0x90,0x3e,0x00,0x00,0x90,0x3e,0x6c,0x81,0x40,
0x90,0x3e,0x00,0x00,0x90,0x3e,0x6c,0x60,0x90,0x3e,0x00,0x00,0xb0,0x40,0x00,0x00,
0x90,0x3e,0x6c,0x81,0x40,0x90,0x3e,0x00,0x00,0x90,0x3e,0x6c,0x60,0x90,0x3e,0x00,
0x00,0x90,0x3e,0x6c,0x60,0x90,0x3e,0x00,0x00,0x90,0x39,0x6c,0x60,0x90,0x39,0x00,
0x00,0x90,0x3c,0x6c,0x60,0x90,0x3c,0x00,0x00,0x90,0x35,0x6c,0x00,0x90,0x39,0x6c,
0x00,0x90,0x3e,0x6c,0x81,0x40,0x90,0x35,0x00,0x00,0x90,0x39,0x00,0x00,0x90,0x3e,
0x00,0x00,0x90,0x35,0x6c,0x00,0x90,0x39,0x6c,0x00,0x90,0x3e,0x6c,0x81,0x40,0x90,
0x35,0x00,0x00,0x90,0x39,0x00,0x00,0x90,0x3e,0x00,0x00,0x90,0x35,0x6c,0x00,0x90,
0x39,0x6c,0x00,0x90,0x3e,0x6c,0x60,0x90,0x35,0x00,0x00,0x90,0x39,0x00,0x00,0x90,
0x3e,0x00,0x00,0x90,0x39,0x6c,0x00,0x90,0x3c,0x6c,0x00,0x90,0x40,0x6c,0x60,0x90,
0x39,0x00,0x00,0x90,0x3c,0x00,0x00,0x90,0x40,0x00,0x00,0x90,0x3a,0x6c,0x00,0x90,
0x3e,0x6c,0x00,0x90,0x41,0x6c,0x81,0x40,0x90,0x3a,0x00,0x00,0x90,0x3e,0x00,0x00,
0x90,0x41,0x00,0x00,0x90,0x3a,0x6c,0x00,0x90,0x3e,0x6c,0x00,0x90,0x41,0x6c,0x81,
0x40,0x90,0x3a,0x00,0x00,0x90,0x3e,0x00,0x00,0x90,0x41,0x00,0x00,0x90,0x3a,0x6c,
0x00,0x90,0x3e,0x6c,0x00,0x90,0x41,0x6c,0x60,0x90,0x3a,0x00,0x00,0x90,0x3e,0x00,
0x00,0x90,0x41,0x00,0x00,0x90,0x3e,0x6c,0x00,0x90,0x43,0x6c,0x60,0x90,0x3e,0x00,
0x00,0x90,0x43,0x00,0x00,0x90,0x39,0x6c,0x00,0x90,0x3c,0x6c,0x00,0x90,0x40,0x6c,
0x81,0x40,0x90,0x39,0x00,0x00,0x90,0x3c,0x00,0x00,0x90,0x40,0x00,0x00,0x90,0x39,
0x6c,0x00,0x90,0x3c,0x6c,0x00,0x90,0x40,0x6c,0x81,0x40,0x90,0x39,0x00,0x00,0x90,
0x3c,0x00,0x00,0x90,0x40,0x00,0x00,0x90,0x39,0x6c,0x00,0x90,0x3e,0x6c,0x60,0x90,
0x39,0x00,0x00,0x90,0x3e,0x00,0x00,0x90,0x37,0x6c,0x00,0x90,0x3c,0x6c,0x60,0x90,
0x37,0x00,0x00,0x90,0x3c,0x00,0x00,0x90,0x39,0x6c,0x00,0x90,0x3c,0x6c,0x60,0x90,
0x39,0x00,0x00,0x90,0x3c,0x00,0x00,0x90,0x39,0x6c,0x00,0x90,0x3e,0x6c,0x81,0x40,
0x90,0x39,0x00,0x00,0x90,0x3e,0x00,0x60,0x90,0x39,0x6c,0x60,0x90,0x39,0x00,0x00,
0x90,0x3c,0x6c,0x60,0x90,0x3c,0x00,0x00,0x90,0x35,0x6c,0x00,0x90,0x3a,0x6c,0x00,
0x90,0x3e,0x6c,0x81,0x40,0x90,0x35,0x00,0x00,0x90,0x3a,0x00,0x00,0x90,0x3e,0x00,
0x00,0x90,0x35,0x6c,0x00,0x90,0x3a,0x6c,0x00,0x90,0x3e,0x6c,0x81,0x40,0x90,0x35,
0x00,0x00,0x90,0x3a,0x00,0x00,0x90,0x3e,0x00,0x00,0x90,0x3a,0x6c,0x00,0x90,0x3e,
0x6c,0x60,0x90,0x3a,0x00,0x00,0x90,0x3e,0x00,0x00,0x90,0x3a,0x6c,0x00,0x90,0x40,
0x6c,0x60,0x90,0x3a,0x00,0x00,0x90,0x40,0x00,0x00,0x90,0x39,0x6c,0x00,0x90,0x3c,
0x6c,0x00,0x90,0x41,0x6c,0x81,0x40,0x90,0x39,0x00,0x00,0x90,0x3c,0x00,0x00,0x90,
0x41,0x00,0x00,0x90,0x39,0x6c,0x00,0x90,0x3c,0x6c,0x00,0x90,0x41,0x6c,0x81,0x40,
0x90,0x39,0x00,0x00,0x90,0x3c,0x00,0x00,0x90,0x41,0x00,0x00,0x90,0x3c,0x6c,0x00,
0x90,0x41,0x6c,0x60,0x90,0x3c,0x00,0x00,0x90,0x41,0x00,0x00,0x90,0x3c,0x6c,0x00,
0x90,0x43,0x6c,0x60,0x90,0x3c,0x00,0x00,0x90,0x43,0x00,0x00,0x90,0x39,0x6c,0x00,
0x90,0x3c,0x6c,0x00,0x90,0x40,0x6c,0x81,0x40,0x90,0x39,0x00,0x00,0x90,0x3c,0x00,
0x00,0x90,0x40,0x00,0x00,0x90,0x39,0x6c,0x00,0x90,0x3c,0x6c,0x00,0x90,0x40,0x6c,
0x81,0x40,0x90,0x39,0x00,0x00,0x90,0x3c,0x00,0x00,0x90,0x40,0x00,0x00,0x90,0x39,
0x6c,0x00,0x90,0x3e,0x6c,0x60,0x90,0x39,0x00,0x00,0x90,0x3e,0x00,0x00,0x90,0x37,
0x6c,0x00,0x90,0x3c,0x6c,0x60,0x90,0x37,0x00,0x00,0x90,0x3c,0x00,0x00,0x90,0x35,
0x6c,0x00,0x90,0x39,0x6c,0x00,0x90,0x3e,0x6c,0x81,0x40,0x90,0x35,0x00,0x00,0x90,
0x39,0x00,0x00,0x90,0x3e,0x00,0x81,0x40,0x90,0x39,0x6c,0x60,0x90,0x39,0x00,0x00,
0x90,0x3c,0x6c,0x60,0x90,0x3c,0x00,0x00,0x90,0x35,0x6c,0x00,0x90,0x39,0x6c,0x00,
0x90,0x3e,0x6c,0x81,0x40,0x90,0x35,0x00,0x00,0x90,0x39,0x00,0x00,0x90,0x3e,0x00,
0x00,0x90,0x35,0x6c,0x00,0x90,0x39,0x6c,0x00,0x90,0x3e,0x6c,0x81,0x40,0x90,0x35,
0x00,0x00,0x90,0x39,0x00,0x00,0x90,0x3e,0x00,0x00,0x90,0x39,0x6c,0x00,0x90,0x3e,
0x6c,0x60,0x90,0x39,0x00,0x00,0x90,0x3e,0x00,0x00,0x90,0x39,0x6c,0x00,0x90,0x41,
0x6c,0x60,0x90,0x39,0x00,0x00,0x90,0x41,0x00,0x00,0x90,0x3a,0x6c,0x00,0x90,0x3e,
0x6c,0x00,0x90,0x43,0x6c,0x81,0x40,0x90,0x3a,0x00,0x00,0x90,0x3e,0x00,0x00,0x90,
0x43,0x00,0x00,0x90,0x3a,0x6c,0x00,0x90,0x3e,0x6c,0x00,0x90,0x43,0x6c,0x81,0x40,
0x90,0x3a,0x00,0x00,0x90,0x3e,0x00,0x00,0x90,0x43,0x00,0x00,0x90,0x3e,0x6c,0x00,
0x90,0x43,0x6c,0x60,0x90,0x3e,0x00,0x00,0x90,0x43,0x00,0x00,0x90,0x3e,0x6c,0x00,
0x90,0x45,0x6c,0x60,0x90,0x3e,0x00,0x00,0x90,0x45,0x00,0x00,0x90,0x3e,0x6c,0x00,
0x90,0x43,0x6c,0x00,0x90,0x46,0x6c,0x81,0x40,0x90,0x3e,0x00,0x00,0x90,0x43,0x00,
0x00,0x90,0x46,0x00,0x00,0x90,0x3e,0x6c,0x00,0x90,0x43,0x6c,0x00,0x90,0x46,0x6c,
0x81,0x40,0x90,0x3e,0x00,0x00,0x90,0x43,0x00,0x00,0x90,0x46,0x00,0x00,0x90,0x41,
0x6c,0x00,0x90,0x45,0x6c,0x60,0x90,0x41,0x00,0x00,0x90,0x45,0x00,0x00,0x90,0x40,
0x6c,0x00,0x90,0x43,0x6c,0x60,0x90,0x40,0x00,0x00,0x90,0x43,0x00,0x00,0x90,0x41,
0x6c,0x00,0x90,0x45,0x6c,0x5e,0x90,0x41,0x00,0x00,0x90,0x45,0x00,0x02,0x90,0x3e,
0x6c,0x81,0x40,0x90,0x3e,0x00,0x60,0x90,0x3e,0x6c,0x60,0x90,0x3e,0x00,0x00,0x90,
0x40,0x6c,0x60,0x90,0x40,0x00,0x00,0x90,0x3a,0x6c,0x00,0x90,0x3e,0x6c,0x00,0x90,
0x41,0x6c,0x81,0x40,0x90,0x3a,0x00,0x00,0x90,0x3e,0x00,0x00,0x90,0x41,0x00,0x00,
0x90,0x3a,0x6c,0x00,0x90,0x3e,0x6c,0x00,0x90,0x41,0x6c,0x81,0x40,0x90,0x3a,0x00,
0x00,0x90,0x3e,0x00,0x00,0x90,0x41,0x00,0x00,0x90,0x3a,0x6c,0x00,0x90,0x3e,0x6c,
0x00,0x90,0x43,0x6c,0x81,0x40,0x90,0x3a,0x00,0x00,0x90,0x3e,0x00,0x00,0x90,0x43,
0x00,0x00,0x90,0x41,0x6c,0x00,0x90,0x45,0x6c,0x60,0x90,0x41,0x00,0x00,0x90,0x45,
0x00,0x00,0x90,0x3e,0x6c,0x81,0x40,0x90,0x3e,0x00,0x60,0x90,0x3e,0x6c,0x60,0x90,
0x3e,0x00,0x00,0x90,0x41,0x6c,0x60,0x90,0x41,0x00,0x00,0x90,0x39,0x6c,0x00,0x90,
0x3d,0x6c,0x00,0x90,0x40,0x6c,0x81,0x40,0x90,0x39,0x00,0x00,0x90,0x3d,0x00,0x00,
0x90,0x40,0x00,0x00,0x90,0x39,0x6c,0x00,0x90,0x3d,0x6c,0x00,0x90,0x40,0x6c,0x81,
0x40,0x90,0x39,0x00,0x00,0x90,0x3d,0x00,0x00,0x90,0x40,0x00,0x00,0x90,0x3e,0x6c,
0x00,0x90,0x41,0x6c,0x60,0x90,0x3e,0x00,0x00,0x90,0x41,0x00,0x00,0x90,0x3b,0x6c,
0x00,0x90,0x3e,0x6c,0x60,0x90,0x3b,0x00,0x00,0x90,0x3e,0x00,0x00,0x90,0x39,0x6c,
0x00,0x90,0x3d,0x6c,0x00,0x90,0x40,0x6c,0x82,0x20,0x90,0x39,0x00,0x00,0x90,0x3d,
0x00,0x00,0x90,0x40,0x00,0x60,0x90,0x45,0x6c,0x60,0x90,0x45,0x00,0x00,0x90,0x48,
0x6c,0x60,0x90,0x48,0x00,0x00,0x90,0x41,0x6c,0x00,0x90,0x45,0x6c,0x00,0x90,0x4a,
0x6c,0x81,0x40,0x90,0x41,0x00,0x00,0x90,0x45,0x00,0x00,0x90,0x4a,0x00,0x00,0x90,
0x41,0x6c,0x00,0x90,0x45,0x6c,0x00,0x90,0x4a,0x6c,0x81,0x40,0x90,0x41,0x00,0x00,
0x90,0x45,0x00,0x00,0x90,0x4a,0x00,0x00,0x90,0x41,0x6c,0x00,0x90,0x45,0x6c,0x00,
0x90,0x4a,0x6c,0x60,0x90,0x41,0x00,0x00,0x90,0x45,0x00,0x00,0x90,0x4a,0x00,0x00,
0x90,0x45,0x6c,0x00,0x90,0x48,0x6c,0x00,0x90,0x4c,0x6c,0x60,0x90,0x45,0x00,0x00,
0x90,0x48,0x00,0x00,0x90,0x4c,0x00,0x00,0x90,0x46,0x6c,0x00,0x90,0x4a,0x6c,0x00,
0x90,0x4d,0x6c,0x81,0x40,0x90,0x46,0x00,0x00,0x90,0x4a,0x00,0x00,0x90,0x4d,0x00,
0x00,0x90,0x46,0x6c,0x00,0x90,0x4a,0x6c,0x00,0x90,0x4d,0x6c,0x81,0x40,0x90,0x46,
0x00,0x00,0x90,0x4a,0x00,0x00,0x90,0x4d,0x00,0x00,0x90,0x46,0x6c,0x00,0x90,0x4a,
0x6c,0x00,0x90,0x4d,0x6c,0x60,0x90,0x46,0x00,0x00,0x90,0x4a,0x00,0x00,0x90,0x4d,
0x00,0x00,0x90,0x4a,0x6c,0x00,0x90,0x4f,0x6c,0x60,0x90,0x4a,0x00,0x00,0x90,0x4f,
0x00,0x00,0x90,0x45,0x6c,0x00,0x90,0x48,0x6c,0x00,0x90,0x4c,0x6c,0x81,0x40,0x90,
0x45,0x00,0x00,0x90,0x48,0x00,0x00,0x90,0x4c,0x00,0x00,0x90,0x45,0x6c,0x00,0x90,
0x48,0x6c,0x00,0x90,0x4c,0x6c,0x81,0x40,0x90,0x45,0x00,0x00,0x90,0x48,0x00,0x00,
0x90,0x4c,0x00,0x00,0x90,0x45,0x6c,0x00,0x90,0x4a,0x6c,0x60,0x90,0x45,0x00,0x00,
0x90,0x4a,0x00,0x00,0x90,0x43,0x6c,0x00,0x90,0x48,0x6c,0x60,0x90,0x43,0x00,0x00,
0x90,0x48,0x00,0x00,0x90,0x45,0x6c,0x00,0x90,0x48,0x6c,0x5e,0x90,0x45,0x00,0x00,
0x90,0x48,0x00,0x02,0x90,0x45,0x6c,0x00,0x90,0x4a,0x6c,0x81,0x20,0x90,0x45,0x00,
0x00,0x90,0x4a,0x00,0x81,0x00,0x90,0x45,0x6c,0x60,0x90,0x45,0x00,0x00,0x90,0x48,
0x6c,0x60,0x90,0x48,0x00,0x00,0x90,0x41,0x6c,0x00,0x90,0x46,0x6c,0x00,0x90,0x4a,
0x6c,0x81,0x40,0x90,0x41,0x00,0x00,0x90,0x46,0x00,0x00,0x90,0x4a,0x00,0x00,0x90,
0x41,0x6c,0x00,0x90,0x46,0x6c,0x00,0x90,0x4a,0x6c,0x81,0x40,0x90,0x41,0x00,0x00,
0x90,0x46,0x00,0x00,0x90,0x4a,0x00,0x00,0x90,0x46,0x6c,0x00,0x90,0x4a,0x6c,0x60,
0x90,0x46,0x00,0x00,0x90,0x4a,0x00,0x00,0x90,0x46,0x6c,0x00,0x90,0x4c,0x6c,0x60,
0x90,0x46,0x00,0x00,0x90,0x4c,0x00,0x00,0x90,0x45,0x6c,0x00,0x90,0x48,0x6c,0x00,
0x90,0x4d,0x6c,0x81,0x40,0x90,0x45,0x00,0x00,0x90,0x48,0x00,0x00,0x90,0x4d,0x00,
0x00,0x90,0x45,0x6c,0x00,0x90,0x48,0x6c,0x00,0x90,0x4d,0x6c,0x81,0x40,0x90,0x45,
0x00,0x00,0x90,0x48,0x00,0x00,0x90,0x4d,0x00,0x00,0x90,0x48,0x6c,0x00,0x90,0x4d,
0x6c,0x60,0x90,0x48,0x00,0x00,0x90,0x4d,0x00,0x00,0x90,0x48,0x6c,0x00,0x90,0x4f,
0x6c,0x60,0x90,0x48,0x00,0x00,0x90,0x4f,0x00,0x00,0x90,0x48,0x6c,0x00,0x90,0x4c,
0x6c,0x81,0x40,0x90,0x48,0x00,0x00,0x90,0x4c,0x00,0x00,0x90,0x48,0x6c,0x00,0x90,
0x4c,0x6c,0x81,0x40,0x90,0x48,0x00,0x00,0x90,0x4c,0x00,0x00,0x90,0x45,0x6c,0x00,
0x90,0x4a,0x6c,0x60,0x90,0x45,0x00,0x00,0x90,0x4a,0x00,0x00,0x90,0x48,0x6c,0x60,
0x90,0x48,0x00,0x00,0x90,0x41,0x6c,0x00,0x90,0x45,0x6c,0x00,0x90,0x4a,0x6c,0x81,
0x40,0x90,0x41,0x00,0x00,0x90,0x45,0x00,0x00,0x90,0x4a,0x00,0x81,0x40,0x90,0x45,
0x6c,0x60,0x90,0x45,0x00,0x00,0x90,0x48,0x6c,0x60,0x90,0x48,0x00,0x00,0x90,0x41,
0x6c,0x00,0x90,0x45,0x6c,0x00,0x90,0x4a,0x6c,0x81,0x40,0x90,0x41,0x00,0x00,0x90,
0x45,0x00,0x00,0x90,0x4a,0x00,0x00,0x90,0x41,0x6c,0x00,0x90,0x45,0x6c,0x00,0x90,
0x4a,0x6c,0x81,0x40,0x90,0x41,0x00,0x00,0x90,0x45,0x00,0x00,0x90,0x4a,0x00,0x00,
0x90,0x45,0x6c,0x00,0x90,0x4a,0x6c,0x60,0x90,0x45,0x00,0x00,0x90,0x4a,0x00,0x00,
0x90,0x45,0x6c,0x00,0x90,0x4d,0x6c,0x60,0x90,0x45,0x00,0x00,0x90,0x4d,0x00,0x00,
0x90,0x46,0x6c,0x00,0x90,0x4a,0x6c,0x00,0x90,0x4f,0x6c,0x81,0x40,0x90,0x46,0x00,
0x00,0x90,0x4a,0x00,0x00,0x90,0x4f,0x00,0x00,0x90,0x46,0x6c,0x00,0x90,0x4a,0x6c,
0x00,0x90,0x4f,0x6c,0x81,0x40,0x90,0x46,0x00,0x00,0x90,0x4a,0x00,0x00,0x90,0x4f,
0x00,0x00,0x90,0x4a,0x6c,0x00,0x90,0x4f,0x6c,0x60,0x90,0x4a,0x00,0x00,0x90,0x4f,
0x00,0x00,0x90,0x4a,0x6c,0x00,0x90,0x51,0x6c,0x60,0x90,0x4a,0x00,0x00,0x90,0x51,
0x00,0x00,0x90,0x4a,0x6c,0x00,0x90,0x4f,0x6c,0x00,0x90,0x52,0x6c,0x81,0x40,0x90,
0x4a,0x00,0x00,0x90,0x4f,0x00,0x00,0x90,0x52,0x00,0x00,0x90,0x4a,0x6c,0x00,0x90,
0x4f,0x6c,0x00,0x90,0x52,0x6c,0x81,0x40,0x90,0x4a,0x00,0x00,0x90,0x4f,0x00,0x00,
0x90,0x52,0x00,0x00,0x90,0x4d,0x6c,0x00,0x90,0x51,0x6c,0x60,0x90,0x4d,0x00,0x00,
0x90,0x51,0x00,0x00,0x90,0x4c,0x6c,0x00,0x90,0x4f,0x6c,0x60,0x90,0x4c,0x00,0x00,
0x90,0x4f,0x00,0x00,0x90,0x4d,0x6c,0x00,0x90,0x51,0x6c,0x60,0x90,0x4d,0x00,0x00,
0x90,0x51,0x00,0x00,0x90,0x4a,0x6c,0x81,0x40,0x90,0x4a,0x00,0x60,0x90,0x4a,0x6c,
0x60,0x90,0x4a,0x00,0x00,0x90,0x4c,0x6c,0x60,0x90,0x4c,0x00,0x00,0x90,0x46,0x6c,
0x00,0x90,0x4a,0x6c,0x00,0x90,0x4d,0x6c,0x81,0x40,0x90,0x46,0x00,0x00,0x90,0x4a,
0x00,0x00,0x90,0x4d,0x00,0x00,0x90,0x46,0x6c,0x00,0x90,0x4a,0x6c,0x00,0x90,0x4d,
0x6c,0x81,0x40,0x90,0x46,0x00,0x00,0x90,0x4a,0x00,0x00,0x90,0x4d,0x00,0x00,0x90,
0x46,0x6c,0x00,0x90,0x4a,0x6c,0x00,0x90,0x4f,0x6c,0x81,0x40,0x90,0x46,0x00,0x00,
0x90,0x4a,0x00,0x00,0x90,0x4f,0x00,0x00,0x90,0x4d,0x6c,0x00,0x90,0x51,0x6c,0x60,
0x90,0x4d,0x00,0x00,0x90,0x51,0x00,0x00,0x90,0x4a,0x6c,0x81,0x40,0x90,0x4a,0x00,
0x60,0x90,0x4a,0x6c,0x60,0x90,0x4a,0x00,0x00,0x90,0x4d,0x6c,0x60,0x90,0x4d,0x00,
0x00,0x90,0x45,0x6c,0x00,0x90,0x49,0x6c,0x00,0x90,0x4c,0x6c,0x81,0x40,0x90,0x45,
0x00,0x00,0x90,0x49,0x00,0x00,0x90,0x4c,0x00,0x00,0x90,0x45,0x6c,0x00,0x90,0x49,
0x6c,0x00,0x90,0x4c,0x6c,0x81,0x40,0x90,0x45,0x00,0x00,0x90,0x49,0x00,0x00,0x90,
0x4c,0x00,0x00,0x90,0x4a,0x6c,0x60,0x90,0x4a,0x00,0x00,0x90,0x49,0x6c,0x60,0x90,
0x49,0x00,0x00,0x90,0x45,0x6c,0x00,0x90,0x4a,0x6c,0x81,0x40,0x90,0x45,0x00,0x00,
0x90,0x4a,0x00,0x00,0x90,0x45,0x6c,0x00,0x90,0x4a,0x6c,0x81,0x40,0x90,0x45,0x00,
0x00,0x90,0x4a,0x00,0x00,0x90,0x45,0x6c,0x00,0x90,0x48,0x6c,0x00,0x90,0x4c,0x6c,
0x81,0x40,0x90,0x45,0x00,0x00,0x90,0x48,0x00,0x00,0x90,0x4c,0x00,0x00,0x90,0x48,
0x6c,0x00,0x90,0x4a,0x6c,0x00,0x90,0x4d,0x6c,0x81,0x40,0x90,0x48,0x00,0x00,0x90,
0x4a,0x00,0x00,0x90,0x4d,0x00,0x00,0x90,0x4d,0x6c,0x60,0x90,0x4d,0x00,0x00,0x90,
0x4d,0x6c,0x60,0x90,0x4d,0x00,0x00,0x90,0x46,0x6c,0x00,0x90,0x4a,0x6c,0x00,0x90,
0x4f,0x6c,0x81,0x40,0x90,0x46,0x00,0x00,0x90,0x4a,0x00,0x00,0x90,0x4f,0x00,0x00,
0xb0,0x40,0x7f,0x00,0x90,0x4a,0x6c,0x00,0x90,0x51,0x6c,0x60,0x90,0x4a,0x00,0x00,
0x90,0x51,0x00,0x00,0x90,0x4d,0x6c,0x60,0x90,0x4d,0x00,0x81,0x40,0x90,0x45,0x6c,
0x00,0x90,0x4d,0x6c,0x60,0x90,0x45,0x00,0x00,0x90,0x4d,0x00,0x00,0x90,0x45,0x6c,
0x00,0x90,0x4a,0x6c,0x60,0x90,0x45,0x00,0x00,0x90,0x4a,0x00,0x00,0x90,0x45,0x6c,
0x60,0x90,0x45,0x00,0x83,0x60,0x90,0x4a,0x6c,0x00,0x90,0x4f,0x6c,0x00,0x90,0x52,
0x6c,0x60,0x90,0x4a,0x00,0x00,0x90,0x4f,0x00,0x00,0x90,0x52,0x00,0x82,0x20,0x90,
0x46,0x6c,0x00,0x90,0x4f,0x6c,0x60,0x90,0x46,0x00,0x00,0x90,0x4f,0x00,0x00,0x90,
0x46,0x6c,0x00,0x90,0x4a,0x6c,0x60,0x90,0x46,0x00,0x00,0x90,0x4a,0x00,0x00,0x90,
0x46,0x6c,0x60,0x90,0x46,0x00,0x83,0x60,0x90,0x3d,0x6c,0x00,0x90,0x40,0x6c,0x5e,
0x90,0x3d,0x00,0x00,0x90,0x40,0x00,0x02,0x90,0x3d,0x6c,0x00,0x90,0x40,0x6c,0x81,
0x20,0x90,0x3d,0x00,0x00,0x90,0x40,0x00,0x20,0x90,0x37,0x6c,0x00,0x90,0x3e,0x6c,
0x82,0x00,0x90,0x37,0x00,0x00,0x90,0x3e,0x00,0x20,0x90,0x39,0x6c,0x00,0x90,0x3d,
0x6c,0x00,0x90,0x41,0x6c,0x82,0x00,0x90,0x39,0x00,0x00,0x90,0x3d,0x00,0x00,0x90,
0x41,0x00,0x81,0x00,0x90,0x41,0x6c,0x5e,0x90,0x41,0x00,0x02,0x90,0x43,0x6c,0x5e,
0x90,0x43,0x00,0x02,0x90,0x3e,0x6c,0x00,0x90,0x41,0x6c,0x00,0x90,0x45,0x6c,0x81,
0x20,0x90,0x3e,0x00,0x00,0x90,0x41,0x00,0x00,0x90,0x45,0x00,0x20,0x90,0x3e,0x6c,
0x00,0x90,0x41,0x6c,0x00,0x90,0x45,0x6c,0x81,0x20,0x90,0x3e,0x00,0x00,0x90,0x41,
0x00,0x00,0x90,0x45,0x00,0x20,0x90,0x3e,0x6c,0x00,0x90,0x41,0x6c,0x00,0x90,0x45,
0x6c,0x81,0x20,0x90,0x3e,0x00,0x00,0x90,0x41,0x00,0x00,0x90,0x45,0x00,0x20,0x90,
0x3e,0x6c,0x00,0x90,0x41,0x6c,0x00,0x90,0x46,0x6c,0x5e,0x90,0x3e,0x00,0x00,0x90,
0x41,0x00,0x00,0x90,0x46,0x00,0x02,0x90,0x3e,0x6c,0x00,0x90,0x41,0x6c,0x00,0x90,
0x45,0x6c,0x5e,0x90,0x3e,0x00,0x00,0x90,0x41,0x00,0x00,0x90,0x45,0x00,0x83,0x02,
0x90,0x3c,0x6c,0x00,0x90,0x40,0x6c,0x00,0x90,0x43,0x6c,0x81,0x20,0x90,0x3c,0x00,
0x00,0x90,0x40,0x00,0x00,0x90,0x43,0x00,0x20,0x90,0x3c,0x6c,0x00,0x90,0x40,0x6c,
0x00,0x90,0x43,0x6c,0x81,0x20,0x90,0x3c,0x00,0x00,0x90,0x40,0x00,0x00,0x90,0x43,
0x00,0x20,0x90,0x3c,0x6c,0x00,0x90,0x40,0x6c,0x00,0x90,0x43,0x6c,0x81,0x20,0x90,
0x3c,0x00,0x00,0x90,0x40,0x00,0x00,0x90,0x43,0x00,0x20,0x90,0x3c,0x6c,0x00,0x90,
0x40,0x6c,0x00,0x90,0x43,0x6c,0x5e,0x90,0x3c,0x00,0x00,0x90,0x40,0x00,0x00,0x90,
0x43,0x00,0x02,0x90,0x3c,0x6c,0x00,0x90,0x41,0x6c,0x00,0x90,0x45,0x6c,0x5e,0x90,
0x3c,0x00,0x00,0x90,0x41,0x00,0x00,0x90,0x45,0x00,0x83,0x02,0x90,0x3e,0x6c,0x00,
0x90,0x41,0x6c,0x00,0x90,0x45,0x6c,0x81,0x20,0x90,0x3e,0x00,0x00,0x90,0x41,0x00,
0x00,0x90,0x45,0x00,0x20,0x90,0x3e,0x6c,0x00,0x90,0x41,0x6c,0x00,0x90,0x45,0x6c,
0x81,0x20,0x90,0x3e,0x00,0x00,0x90,0x41,0x00,0x00,0x90,0x45,0x00,0x20,0x90,0x3e,
0x6c,0x00,0x90,0x41,0x6c,0x00,0x90,0x45,0x6c,0x81,0x20,0x90,0x3e,0x00,0x00,0x90,
0x41,0x00,0x00,0x90,0x45,0x00,0x20,0x90,0x3e,0x6c,0x00,0x90,0x41,0x6c,0x00,0x90,
0x46,0x6c,0x5e,0x90,0x3e,0x00,0x00,0x90,0x41,0x00,0x00,0x90,0x46,0x00,0x02,0x90,
0x3e,0x6c,0x00,0x90,0x41,0x6c,0x00,0x90,0x45,0x6c,0x5e,0x90,0x3e,0x00,0x00,0x90,
0x41,0x00,0x00,0x90,0x45,0x00,0x83,0x02,0x90,0x3d,0x6c,0x00,0x90,0x40,0x6c,0x00,
0x90,0x43,0x6c,0x81,0x20,0x90,0x3d,0x00,0x00,0x90,0x40,0x00,0x00,0x90,0x43,0x00,
0x20,0x90,0x3d,0x6c,0x00,0x90,0x41,0x6c,0x81,0x20,0x90,0x3d,0x00,0x00,0x90,0x41,
0x00,0x20,0x90,0x39,0x6c,0x00,0x90,0x40,0x6c,0x81,0x20,0x90,0x39,0x00,0x00,0x90,
0x40,0x00,0x20,0x90,0x35,0x6c,0x00,0x90,0x39,0x6c,0x00,0x90,0x3e,0x6c,0x81,0x20,
0x90,0x35,0x00,0x00,0x90,0x39,0x00,0x00,0x90,0x3e,0x00,0x81,0x60,0x90,0x3e,0x6c,
0x5e,0x90,0x3e,0x00,0x02,0x90,0x40,0x6c,0x5e,0x90,0x40,0x00,0x02,0x90,0x39,0x6c,
0x00,0x90,0x3e,0x6c,0x00,0x90,0x41,0x6c,0x82,0x50,0x90,0x39,0x00,0x00,0x90,0x3e,
0x00,0x00,0x90,0x41,0x00,0x30,0x90,0x43,0x6c,0x5e,0x90,0x43,0x00,0x02,0x90,0x45,
0x6c,0x5e,0x90,0x45,0x00,0x02,0x90,0x3c,0x6c,0x00,0x90,0x43,0x6c,0x81,0x20,0x90,
0x3c,0x00,0x00,0x90,0x43,0x00,0x20,0x90,0x3c,0x6c,0x00,0x90,0x41,0x6c,0x81,0x20,
0x90,0x3c,0x00,0x00,0x90,0x41,0x00,0x20,0x90,0x3c,0x6c,0x00,0x90,0x40,0x6c,0x81,
0x20,0x90,0x3c,0x00,0x00,0x90,0x40,0x00,0x20,0x90,0x39,0x6c,0x00,0x90,0x3c,0x6c,
0x00,0x90,0x41,0x6c,0x81,0x20,0x90,0x39,0x00,0x00,0x90,0x3c,0x00,0x00,0x90,0x41,
0x00,0x20,0x90,0x39,0x6c,0x00,0x90,0x3c,0x6c,0x00,0x90,0x43,0x6c,0x81,0x20,0x90,
0x39,0x00,0x00,0x90,0x3c,0x00,0x00,0x90,0x43,0x00,0x20,0x90,0x39,0x6c,0x00,0x90,
0x3c,0x6c,0x00,0x90,0x45,0x6c,0x81,0x20,0x90,0x39,0x00,0x00,0x90,0x3c,0x00,0x00,
0x90,0x45,0x00,0x20,0x90,0x3c,0x6c,0x00,0x90,0x40,0x6c,0x00,0x90,0x43,0x6c,0x81,
0x20,0x90,0x3c,0x00,0x00,0x90,0x40,0x00,0x00,0x90,0x43,0x00,0x81,0x60,0x90,0x41,
0x6c,0x5e,0x90,0x41,0x00,0x02,0x90,0x43,0x6c,0x5e,0x90,0x43,0x00,0x02,0x90,0x3c,
0x6c,0x00,0x90,0x41,0x6c,0x00,0x90,0x45,0x6c,0x81,0x20,0x90,0x3c,0x00,0x00,0x90,
0x41,0x00,0x00,0x90,0x45,0x00,0x81,0x60,0x90,0x43,0x6c,0x5e,0x90,0x43,0x00,0x02,
0x90,0x41,0x6c,0x5e,0x90,0x41,0x00,0x02,0x90,0x3d,0x6c,0x00,0x90,0x40,0x6c,0x81,
0x20,0x90,0x3d,0x00,0x00,0x90,0x40,0x00,0x20,0x90,0x3d,0x6c,0x00,0x90,0x41,0x6c,
0x81,0x20,0x90,0x3d,0x00,0x00,0x90,0x41,0x00,0x20,0x90,0x3d,0x6c,0x00,0x90,0x40,
0x6c,0x81,0x20,0x90,0x3d,0x00,0x00,0x90,0x40,0x00,0x20,0x90,0x35,0x6c,0x00,0x90,
0x39,0x6c,0x00,0x90,0x3e,0x6c,0x81,0x20,0x90,0x35,0x00,0x00,0x90,0x39,0x00,0x00,
0x90,0x3e,0x00,0x81,0x60,0x90,0x40,0x6c,0x5e,0x90,0x40,0x00,0x02,0x90,0x3c,0x6c,
0x5e,0x90,0x3c,0x00,0x02,0x90,0x35,0x6c,0x00,0x90,0x39,0x6c,0x00,0x90,0x3e,0x6c,
0x5e,0x90,0x35,0x00,0x00,0x90,0x39,0x00,0x00,0x90,0x3e,0x00,0x82,0x22,0x90,0x4a,
0x6c,0x5e,0x90,0x4a,0x00,0x02,0x90,0x4c,0x6c,0x5e,0x90,0x4c,0x00,0x02,0x90,0x45,
0x6c,0x00,0x90,0x4a,0x6c,0x00,0x90,0x4d,0x6c,0x81,0x20,0x90,0x45,0x00,0x00,0x90,
0x4a,0x00,0x00,0x90,0x4d,0x00,0x81,0x60,0x90,0x4c,0x6c,0x5e,0x90,0x4c,0x00,0x02,
0x90,0x4d,0x6c,0x5e,0x90,0x4d,0x00,0x02,0x90,0x48,0x6c,0x00,0x90,0x4f,0x6c,0x81,
0x20,0x90,0x48,0x00,0x00,0x90,0x4f,0x00,0x20,0x90,0x48,0x6c,0x00,0x90,0x4d,0x6c,
0x81,0x20,0x90,0x48,0x00,0x00,0x90,0x4d,0x00,0x20,0x90,0x48,0x6c,0x00,0x90,0x4f,
0x6c,0x81,0x20,0x90,0x48,0x00,0x00,0x90,0x4f,0x00,0x20,0x90,0x4d,0x6c,0x00,0x90,
0x51,0x6c,0x81,0x20,0x90,0x4d,0x00,0x00,0x90,0x51,0x00,0x20,0x90,0x48,0x6c,0x00,
0x90,0x4f,0x6c,0x81,0x20,0x90,0x48,0x00,0x00,0x90,0x4f,0x00,0x20,0x90,0x48,0x6c,
0x00,0x90,0x4d,0x6c,0x81,0x20,0x90,0x48,0x00,0x00,0x90,0x4d,0x00,0x20,0x90,0x41,
0x6c,0x00,0x90,0x46,0x6c,0x00,0x90,0x4a,0x6c,0x81,0x20,0x90,0x41,0x00,0x00,0x90,
0x46,0x00,0x00,0x90,0x4a,0x00,0x81,0x60,0x90,0x4a,0x6c,0x5e,0x90,0x4a,0x00,0x02,
0x90,0x4c,0x6c,0x5e,0x90,0x4c,0x00,0x02,0x90,0x45,0x6c,0x00,0x90,0x4a,0x6c,0x00,
0x90,0x4d,0x6c,0x81,0x20,0x90,0x45,0x00,0x00,0x90,0x4a,0x00,0x00,0x90,0x4d,0x00,
0x20,0x90,0x45,0x6c,0x00,0x90,0x4a,0x6c,0x00,0x90,0x4f,0x6c,0x81,0x20,0x90,0x45,
0x00,0x00,0x90,0x4a,0x00,0x00,0x90,0x4f,0x00,0x20,0x90,0x4a,0x6c,0x00,0x90,0x51,
0x6c,0x81,0x20,0x90,0x4a,0x00,0x00,0x90,0x51,0x00,0x20,0x90,0x46,0x6c,0x00,0x90,
0x4a,0x6c,0x00,0x90,0x52,0x6c,0x81,0x20,0x90,0x46,0x00,0x00,0x90,0x4a,0x00,0x00,
0x90,0x52,0x00,0x20,0x90,0x46,0x6c,0x00,0x90,0x4a,0x6c,0x81,0x20,0x90,0x46,0x00,
0x00,0x90,0x4a,0x00,0x20,0x90,0x46,0x6c,0x00,0x90,0x4f,0x6c,0x81,0x20,0x90,0x46,
0x00,0x00,0x90,0x4f,0x00,0x20,0x90,0x45,0x6c,0x00,0x90,0x4d,0x6c,0x81,0x20,0x90,
0x45,0x00,0x00,0x90,0x4d,0x00,0x81,0x60,0x90,0x4f,0x6c,0x5e,0x90,0x4f,0x00,0x02,
0x90,0x4c,0x6c,0x5e,0x90,0x4c,0x00,0x02,0x90,0x45,0x6c,0x00,0x90,0x4a,0x6c,0x81,
0x20,0x90,0x45,0x00,0x00,0x90,0x4a,0x00,0x81,0x60,0x90,0x4c,0x6c,0x5e,0x90,0x4c,
0x00,0x02,0x90,0x49,0x6c,0x5e,0x90,0x49,0x00,0x02,0x90,0x4a,0x6c,0x00,0x90,0x4d,
0x6c,0x00,0x90,0x51,0x6c,0x81,0x20,0x90,0x4a,0x00,0x00,0x90,0x4d,0x00,0x00,0x90,
0x51,0x00,0x83,0x20,0x90,0x4a,0x6c,0x00,0x90,0x4f,0x6c,0x00,0x90,0x52,0x6c,0x81,
0x20,0x90,0x4a,0x00,0x00,0x90,0x4f,0x00,0x00,0x90,0x52,0x00,0x83,0x20,0x90,0x48,
0x6c,0x00,0x90,0x4d,0x6c,0x00,0x90,0x51,0x6c,0x81,0x20,0x90,0x48,0x00,0x00,0x90,
0x4d,0x00,0x00,0x90,0x51,0x00,0x20,0x90,0x48,0x6c,0x00,0x90,0x4d,0x6c,0x00,0x90,
0x51,0x6c,0x81,0x20,0x90,0x48,0x00,0x00,0x90,0x4d,0x00,0x00,0x90,0x51,0x00,0x20,
0x90,0x48,0x6c,0x00,0x90,0x4d,0x6c,0x00,0x90,0x51,0x6c,0x81,0x20,0x90,0x48,0x00,
0x00,0x90,0x4d,0x00,0x00,0x90,0x51,0x00,0x20,0x90,0x48,0x6c,0x00,0x90,0x4c,0x6c,
0x00,0x90,0x51,0x6c,0x5e,0x90,0x48,0x00,0x00,0x90,0x4c,0x00,0x00,0x90,0x51,0x00,
0x02,0x90,0x4f,0x6c,0x5e,0x90,0x4f,0x00,0x83,0x02,0x90,0x46,0x6c,0x00,0x90,0x4a,
0x6c,0x00,0x90,0x4f,0x6c,0x81,0x20,0x90,0x46,0x00,0x00,0x90,0x4a,0x00,0x00,0x90,
0x4f,0x00,0x83,0x20,0x90,0x45,0x6c,0x00,0x90,0x4a,0x6c,0x00,0x90,0x4d,0x6c,0x81,
0x20,0x90,0x45,0x00,0x00,0x90,0x4a,0x00,0x00,0x90,0x4d,0x00,0x83,0x20,0x90,0x45,
0x6c,0x00,0x90,0x4d,0x6c,0x81,0x20,0x90,0x45,0x00,0x00,0x90,0x4d,0x00,0x20,0x90,
0x45,0x6c,0x00,0x90,0x4f,0x6c,0x81,0x20,0x90,0x45,0x00,0x00,0x90,0x4f,0x00,0x20,
0x90,0x45,0x6c,0x00,0x90,0x4c,0x6c,0x81,0x20,0x90,0x45,0x00,0x00,0x90,0x4c,0x00,
0x20,0x90,0x41,0x6c,0x00,0x90,0x45,0x6c,0x00,0x90,0x4a,0x6c,0x82,0x00,0x90,0x41,
0x00,0x00,0x90,0x45,0x00,0x00,0x90,0x4a,0x00,0x20,0x90,0x4a,0x6c,0x5e,0x90,0x4a,
0x00,0x02,0x90,0x4c,0x6c,0x5e,0x90,0x4c,0x00,0x02,0x90,0x4d,0x6c,0x5e,0x90,0x4d,
0x00,0x02,0x90,0x4a,0x6c,0x00,0x90,0x4d,0x6c,0x00,0x90,0x51,0x6c,0x82,0x00,0x90,
0x4a,0x00,0x00,0x90,0x4d,0x00,0x00,0x90,0x51,0x00,0x20,0x90,0x4a,0x6c,0x5e,0x90,
0x4a,0x00,0x02,0x90,0x4c,0x6c,0x5e,0x90,0x4c,0x00,0x02,0x90,0x4d,0x6c,0x5e,0x90,
0x4d,0x00,0x02,0x90,0x4a,0x6c,0x00,0x90,0x4d,0x6c,0x00,0x90,0x52,0x6c,0x82,0x00,
0x90,0x4a,0x00,0x00,0x90,0x4d,0x00,0x00,0x90,0x52,0x00,0x20,0x90,0x4a,0x6c,0x5e,
0x90,0x4a,0x00,0x02,0x90,0x4c,0x6c,0x5e,0x90,0x4c,0x00,0x02,0x90,0x4d,0x6c,0x5e,
0x90,0x4d,0x00,0x02,0x90,0x48,0x6c,0x00,0x90,0x4d,0x6c,0x00,0x90,0x51,0x6c,0x81,
0x20,0x90,0x48,0x00,0x00,0x90,0x4d,0x00,0x00,0x90,0x51,0x00,0x20,0x90,0x48,0x6c,
0x00,0x90,0x4d,0x6c,0x00,0x90,0x51,0x6c,0x81,0x20,0x90,0x48,0x00,0x00,0x90,0x4d,
0x00,0x00,0x90,0x51,0x00,0x20,0x90,0x4d,0x6c,0x00,0x90,0x54,0x6c,0x81,0x20,0x90,
0x4d,0x00,0x00,0x90,0x54,0x00,0x20,0x90,0x48,0x6c,0x00,0x90,0x4c,0x6c,0x00,0x90,
0x51,0x6c,0x5e,0x90,0x48,0x00,0x00,0x90,0x4c,0x00,0x00,0x90,0x51,0x00,0x02,0x90,
0x4f,0x6c,0x5e,0x90,0x4f,0x00,0x83,0x02,0x90,0x46,0x6c,0x00,0x90,0x4a,0x6c,0x00,
0x90,0x4f,0x6c,0x81,0x20,0x90,0x46,0x00,0x00,0x90,0x4a,0x00,0x00,0x90,0x4f,0x00,
0x83,0x20,0x90,0x45,0x6c,0x00,0x90,0x4a,0x6c,0x00,0x90,0x4d,0x6c,0x81,0x20,0x90,
0x45,0x00,0x00,0x90,0x4a,0x00,0x00,0x90,0x4d,0x00,0x83,0x20,0x90,0x45,0x6c,0x00,
0x90,0x4d,0x6c,0x81,0x20,0x90,0x45,0x00,0x00,0x90,0x4d,0x00,0x20,0x90,0x45,0x6c,
0x00,0x90,0x4f,0x6c,0x81,0x20,0x90,0x45,0x00,0x00,0x90,0x4f,0x00,0x20,0x90,0x45,
0x6c,0x00,0x90,0x4c,0x6c,0x81,0x20,0x90,0x45,0x00,0x00,0x90,0x4c,0x00,0x20,0x90,
0x41,0x6c,0x00,0x90,0x45,0x6c,0x00,0x90,0x4a,0x6c,0x82,0x00,0x90,0x41,0x00,0x00,
0x90,0x45,0x00,0x00,0x90,0x4a,0x00,0x82,0x40,0x90,0x3e,0x6c,0x85,0x50,0x90,0x3e,
0x00,0x00,0xff,0x2f,0x00,0x4d,0x54,0x72,0x6b,0x00,0x00,0x16,0x76,0x00,0xff,0x21,
0x01,0x00,0x00,0xff,0x03,0x09,0x4c,0x65,0x66,0x74,0x20,0x48,0x61,0x6e,0x64,0x00,
0xc1,0x00,0x00,0xb1,0x07,0x7f,0x00,0xb1,0x0a,0x40,0x92,0x00,0x91,0x1a,0x6e,0x00,
0x91,0x26,0x6e,0x84,0x10,0x91,0x1a,0x00,0x00,0x91,0x26,0x00,0x30,0x91,0x1a,0x6e,
0x00,0x91,0x26,0x6e,0x82,0x00,0x91,0x1a,0x00,0x00,0x91,0x26,0x00,0x20,0x91,0x1a,
0x6e,0x00,0x91,0x26,0x6e,0x82,0x00,0x91,0x1a,0x00,0x00,0x91,0x26,0x00,0x20,0x91,
0x26,0x6e,0x00,0x91,0x32,0x6e,0x81,0x20,0x91,0x26,0x00,0x00,0x91,0x32,0x00,0x20,
0x91,0x26,0x6e,0x00,0x91,0x32,0x6e,0x5e,0x91,0x26,0x00,0x00,0x91,0x32,0x00,0x02,
0x91,0x26,0x6e,0x00,0x91,0x32,0x6e,0x81,0x20,0x91,0x26,0x00,0x00,0x91,0x32,0x00,
0x20,0x91,0x24,0x6e,0x00,0x91,0x30,0x6e,0x5e,0x91,0x24,0x00,0x00,0x91,0x30,0x00,
0x02,0x91,0x22,0x6e,0x00,0x91,0x2e,0x6e,0x81,0x20,0x91,0x22,0x00,0x00,0x91,0x2e,
0x00,0x20,0x91,0x22,0x6e,0x00,0x91,0x2e,0x6e,0x5e,0x91,0x22,0x00,0x00,0x91,0x2e,
0x00,0x02,0x91,0x22,0x6e,0x00,0x91,0x2e,0x6e,0x81,0x20,0x91,0x22,0x00,0x00,0x91,
0x2e,0x00,0x20,0x91,0x22,0x6e,0x00,0x91,0x2e,0x6e,0x5e,0x91,0x22,0x00,0x00,0x91,
0x2e,0x00,0x02,0x91,0x21,0x6e,0x00,0x91,0x2d,0x6e,0x81,0x20,0x91,0x21,0x00,0x00,
0x91,0x2d,0x00,0x20,0x91,0x21,0x6e,0x00,0x91,0x2d,0x6e,0x5e,0x91,0x21,0x00,0x00,
0x91,0x2d,0x00,0x02,0x91,0x21,0x6e,0x00,0x91,0x2d,0x6e,0x81,0x20,0x91,0x21,0x00,
0x00,0x91,0x2d,0x00,0x20,0x91,0x21,0x6e,0x00,0x91,0x2d,0x6e,0x5e,0x91,0x21,0x00,
0x00,0x91,0x2d,0x00,0x02,0x91,0x26,0x6e,0x00,0x91,0x32,0x6e,0x81,0x20,0x91,0x26,
0x00,0x00,0x91,0x32,0x00,0x20,0x91,0x26,0x6e,0x00,0x91,0x32,0x6e,0x5e,0x91,0x26,
0x00,0x00,0x91,0x32,0x00,0x02,0x91,0x26,0x6e,0x00,0x91,0x32,0x6e,0x81,0x20,0x91,
0x26,0x00,0x00,0x91,0x32,0x00,0x20,0x91,0x26,0x6e,0x00,0x91,0x32,0x6e,0x5e,0x91,
0x26,0x00,0x00,0x91,0x32,0x00,0x02,0x91,0x22,0x6e,0x00,0x91,0x2e,0x6e,0x81,0x20,
0x91,0x22,0x00,0x00,0x91,0x2e,0x00,0x20,0x91,0x22,0x6e,0x00,0x91,0x2e,0x6e,0x5e,
0x91,0x22,0x00,0x00,0x91,0x2e,0x00,0x02,0x91,0x22,0x6e,0x00,0x91,0x2e,0x6e,0x81,
0x20,0x91,0x22,0x00,0x00,0x91,0x2e,0x00,0x20,0x91,0x22,0x6e,0x00,0x91,0x2e,0x6e,
0x5e,0x91,0x22,0x00,0x00,0x91,0x2e,0x00,0x02,0x91,0x22,0x6e,0x00,0x91,0x2e,0x6e,
0x81,0x20,0x91,0x22,0x00,0x00,0x91,0x2e,0x00,0x20,0x91,0x22,0x6e,0x00,0x91,0x2e,
0x6e,0x5e,0x91,0x22,0x00,0x00,0x91,0x2e,0x00,0x02,0x91,0x22,0x6e,0x00,0x91,0x2e,
0x6e,0x81,0x20,0x91,0x22,0x00,0x00,0x91,0x2e,0x00,0x20,0x91,0x22,0x6e,0x00,0x91,
0x2e,0x6e,0x5e,0x91,0x22,0x00,0x00,0x91,0x2e,0x00,0x02,0x91,0x21,0x6e,0x00,0x91,
0x2d,0x6e,0x81,0x20,0x91,0x21,0x00,0x00,0x91,0x2d,0x00,0x20,0x91,0x21,0x6e,0x00,
0x91,0x2d,0x6e,0x5e,0x91,0x21,0x00,0x00,0x91,0x2d,0x00,0x02,0x91,0x21,0x6e,0x00,
0x91,0x2d,0x6e,0x81,0x20,0x91,0x21,0x00,0x00,0x91,0x2d,0x00,0x20,0x91,0x21,0x6e,
0x00,0x91,0x2d,0x6e,0x5e,0x91,0x21,0x00,0x00,0x91,0x2d,0x00,0x02,0x91,0x26,0x6e,
0x00,0x91,0x32,0x6e,0x81,0x20,0x91,0x26,0x00,0x00,0x91,0x32,0x00,0x20,0x91,0x26,
0x6e,0x00,0x91,0x32,0x6e,0x5e,0x91,0x26,0x00,0x00,0x91,0x32,0x00,0x02,0x91,0x26,
0x6e,0x00,0x91,0x32,0x6e,0x81,0x20,0x91,0x26,0x00,0x00,0x91,0x32,0x00,0x20,0x91,
0x26,0x6e,0x00,0x91,0x32,0x6e,0x5e,0x91,0x26,0x00,0x00,0x91,0x32,0x00,0x02,0x91,
0x26,0x6e,0x00,0x91,0x32,0x6e,0x81,0x20,0x91,0x26,0x00,0x00,0x91,0x32,0x00,0x20,
0x91,0x26,0x6e,0x00,0x91,0x32,0x6e,0x5e,0x91,0x26,0x00,0x00,0x91,0x32,0x00,0x02,
0x91,0x26,0x6e,0x00,0x91,0x32,0x6e,0x81,0x20,0x91,0x26,0x00,0x00,0x91,0x32,0x00,
0x20,0x91,0x26,0x6e,0x00,0x91,0x32,0x6e,0x5e,0x91,0x26,0x00,0x00,0x91,0x32,0x00,
0x02,0x91,0x22,0x6e,0x00,0x91,0x2e,0x6e,0x81,0x20,0x91,0x22,0x00,0x00,0x91,0x2e,
0x00,0x20,0x91,0x22,0x6e,0x00,0x91,0x2e,0x6e,0x5e,0x91,0x22,0x00,0x00,0x91,0x2e,
0x00,0x02,0x91,0x22,0x6e,0x00,0x91,0x2e,0x6e,0x81,0x20,0x91,0x22,0x00,0x00,0x91,
0x2e,0x00,0x20,0x91,0x22,0x6e,0x00,0x91,0x2e,0x6e,0x5e,0x91,0x22,0x00,0x00,0x91,
0x2e,0x00,0x02,0x91,0x1f,0x6e,0x00,0x91,0x2b,0x6e,0x81,0x20,0x91,0x1f,0x00,0x00,
0x91,0x2b,0x00,0x20,0x91,0x1f,0x6e,0x00,0x91,0x2b,0x6e,0x5e,0x91,0x1f,0x00,0x00,
0x91,0x2b,0x00,0x02,0x91,0x1f,0x6e,0x00,0x91,0x2b,0x6e,0x81,0x20,0x91,0x1f,0x00,
0x00,0x91,0x2b,0x00,0x20,0x91,0x1f,0x6e,0x00,0x91,0x2b,0x6e,0x5e,0x91,0x1f,0x00,
0x00,0x91,0x2b,0x00,0x02,0x91,0x26,0x6e,0x00,0x91,0x32,0x6e,0x81,0x20,0x91,0x26,
0x00,0x00,0x91,0x32,0x00,0x20,0x91,0x26,0x6e,0x00,0x91,0x32,0x6e,0x5e,0x91,0x26,
0x00,0x00,0x91,0x32,0x00,0x02,0x91,0x26,0x6e,0x00,0x91,0x32,0x6e,0x81,0x20,0x91,
0x26,0x00,0x00,0x91,0x32,0x00,0x20,0x91,0x26,0x6e,0x00,0x91,0x32,0x6e,0x5e,0x91,
0x26,0x00,0x00,0x91,0x32,0x00,0x02,0x91,0x22,0x6e,0x00,0x91,0x2e,0x6e,0x81,0x20,
0x91,0x22,0x00,0x00,0x91,0x2e,0x00,0x20,0x91,0x22,0x6e,0x00,0x91,0x2e,0x6e,0x5e,
0x91,0x22,0x00,0x00,0x91,0x2e,0x00,0x02,0x91,0x22,0x6e,0x00,0x91,0x2e,0x6e,0x81,
0x20,0x91,0x22,0x00,0x00,0x91,0x2e,0x00,0x20,0x91,0x22,0x6e,0x00,0x91,0x2e,0x6e,
0x5e,0x91,0x22,0x00,0x00,0x91,0x2e,0x00,0x02,0x91,0x26,0x6e,0x00,0x91,0x32,0x6e,
0x81,0x20,0x91,0x26,0x00,0x00,0x91,0x32,0x00,0x20,0x91,0x26,0x6e,0x00,0x91,0x32,
0x6e,0x5e,0x91,0x26,0x00,0x00,0x91,0x32,0x00,0x02,0x91,0x26,0x6e,0x00,0x91,0x32,
0x6e,0x81,0x20,0x91,0x26,0x00,0x00,0x91,0x32,0x00,0x20,0x91,0x26,0x6e,0x00,0x91,
0x32,0x6e,0x5e,0x91,0x26,0x00,0x00,0x91,0x32,0x00,0x02,0x91,0x21,0x6e,0x00,0x91,
0x2d,0x6e,0x81,0x20,0x91,0x21,0x00,0x00,0x91,0x2d,0x00,0x20,0x91,0x21,0x6e,0x00,
0x91,0x2d,0x6e,0x5e,0x91,0x21,0x00,0x00,0x91,0x2d,0x00,0x02,0x91,0x21,0x6e,0x00,
0x91,0x2d,0x6e,0x81,0x20,0x91,0x21,0x00,0x00,0x91,0x2d,0x00,0x20,0x91,0x21,0x6e,
0x00,0x91,0x2d,0x6e,0x5e,0x91,0x21,0x00,0x00,0x91,0x2d,0x00,0x02,0x91,0x21,0x6e,
0x00,0x91,0x2d,0x6e,0x81,0x20,0x91,0x21,0x00,0x00,0x91,0x2d,0x00,0x20,0x91,0x21,
0x6e,0x00,0x91,0x2d,0x6e,0x5e,0x91,0x21,0x00,0x00,0x91,0x2d,0x00,0x02,0x91,0x21,
0x6e,0x00,0x91,0x2d,0x6e,0x81,0x20,0x91,0x21,0x00,0x00,0x91,0x2d,0x00,0x20,0x91,
0x21,0x6e,0x00,0x91,0x2d,0x6e,0x5e,0x91,0x21,0x00,0x00,0x91,0x2d,0x00,0x02,0x91,
0x26,0x6e,0x00,0x91,0x32,0x6e,0x81,0x20,0x91,0x26,0x00,0x00,0x91,0x32,0x00,0x20,
0x91,0x26,0x6e,0x00,0x91,0x32,0x6e,0x5e,0x91,0x26,0x00,0x00,0x91,0x32,0x00,0x02,
0x91,0x26,0x6e,0x00,0x91,0x32,0x6e,0x81,0x20,0x91,0x26,0x00,0x00,0x91,0x32,0x00,
0x20,0x91,0x24,0x6e,0x00,0x91,0x30,0x6e,0x5e,0x91,0x24,0x00,0x00,0x91,0x30,0x00,
0x02,0x91,0x22,0x6e,0x00,0x91,0x2e,0x6e,0x81,0x20,0x91,0x22,0x00,0x00,0x91,0x2e,
0x00,0x20,0x91,0x22,0x6e,0x00,0x91,0x2e,0x6e,0x5e,0x91,0x22,0x00,0x00,0x91,0x2e,
0x00,0x02,0x91,0x22,0x6e,0x00,0x91,0x2e,0x6e,0x81,0x20,0x91,0x22,0x00,0x00,0x91,
0x2e,0x00,0x20,0x91,0x22,0x6e,0x00,0x91,0x2e,0x6e,0x5e,0x91,0x22,0x00,0x00,0x91,
0x2e,0x00,0x02,0x91,0x21,0x6e,0x00,0x91,0x2d,0x6e,0x81,0x20,0x91,0x21,0x00,0x00,
0x91,0x2d,0x00,0x20,0x91,0x21,0x6e,0x00,0x91,0x2d,0x6e,0x5e,0x91,0x21,0x00,0x00,
0x91,0x2d,0x00,0x02,0x91,0x21,0x6e,0x00,0x91,0x2d,0x6e,0x81,0x20,0x91,0x21,0x00,
0x00,0x91,0x2d,0x00,0x20,0x91,0x21,0x6e,0x00,0x91,0x2d,0x6e,0x5e,0x91,0x21,0x00,
0x00,0x91,0x2d,0x00,0x02,0x91,0x26,0x6e,0x00,0x91,0x32,0x6e,0x81,0x20,0x91,0x26,
0x00,0x00,0x91,0x32,0x00,0x20,0x91,0x26,0x6e,0x00,0x91,0x32,0x6e,0x5e,0x91,0x26,
0x00,0x00,0x91,0x32,0x00,0x02,0x91,0x26,0x6e,0x00,0x91,0x32,0x6e,0x81,0x20,0x91,
0x26,0x00,0x00,0x91,0x32,0x00,0x20,0x91,0x26,0x6e,0x00,0x91,0x32,0x6e,0x5e,0x91,
0x26,0x00,0x00,0x91,0x32,0x00,0x02,0x91,0x22,0x6e,0x00,0x91,0x2e,0x6e,0x81,0x20,
0x91,0x22,0x00,0x00,0x91,0x2e,0x00,0x20,0x91,0x22,0x6e,0x00,0x91,0x2e,0x6e,0x5e,
0x91,0x22,0x00,0x00,0x91,0x2e,0x00,0x02,0x91,0x22,0x6e,0x00,0x91,0x2e,0x6e,0x81,
0x20,0x91,0x22,0x00,0x00,0x91,0x2e,0x00,0x20,0x91,0x22,0x6e,0x00,0x91,0x2e,0x6e,
0x5e,0x91,0x22,0x00,0x00,0x91,0x2e,0x00,0x02,0x91,0x1d,0x6e,0x00,0x91,0x29,0x6e,
0x81,0x20,0x91,0x1d,0x00,0x00,0x91,0x29,0x00,0x20,0x91,0x1d,0x6e,0x00,0x91,0x29,
0x6e,0x5e,0x91,0x1d,0x00,0x00,0x91,0x29,0x00,0x02,0x91,0x1d,0x6e,0x00,0x91,0x29,
0x6e,0x81,0x20,0x91,0x1d,0x00,0x00,0x91,0x29,0x00,0x20,0x91,0x1d,0x6e,0x00,0x91,
0x29,0x6e,0x5e,0x91,0x1d,0x00,0x00,0x91,0x29,0x00,0x02,0x91,0x24,0x6e,0x00,0x91,
0x30,0x6e,0x81,0x20,0x91,0x24,0x00,0x00,0x91,0x30,0x00,0x20,0x91,0x24,0x6e,0x00,
0x91,0x30,0x6e,0x5e,0x91,0x24,0x00,0x00,0x91,0x30,0x00,0x02,0x91,0x21,0x6e,0x00,
0x91,0x2d,0x6e,0x81,0x20,0x91,0x21,0x00,0x00,0x91,0x2d,0x00,0x20,0x91,0x21,0x6e,
0x00,0x91,0x2d,0x6e,0x5e,0x91,0x21,0x00,0x00,0x91,0x2d,0x00,0x02,0x91,0x26,0x6e,
0x00,0x91,0x32,0x6e,0x81,0x20,0x91,0x26,0x00,0x00,0x91,0x32,0x00,0x20,0x91,0x26,
0x6e,0x00,0x91,0x32,0x6e,0x5e,0x91,0x26,0x00,0x00,0x91,0x32,0x00,0x02,0x91,0x26,
0x6e,0x00,0x91,0x32,0x6e,0x81,0x20,0x91,0x26,0x00,0x00,0x91,0x32,0x00,0x20,0x91,
0x26,0x6e,0x00,0x91,0x32,0x6e,0x5e,0x91,0x26,0x00,0x00,0x91,0x32,0x00,0x02,0x91,
0x26,0x6e,0x00,0x91,0x32,0x6e,0x81,0x20,0x91,0x26,0x00,0x00,0x91,0x32,0x00,0x20,
0x91,0x26,0x6e,0x00,0x91,0x32,0x6e,0x5e,0x91,0x26,0x00,0x00,0x91,0x32,0x00,0x02,
0x91,0x26,0x6e,0x00,0x91,0x32,0x6e,0x81,0x20,0x91,0x26,0x00,0x00,0x91,0x32,0x00,
0x20,0x91,0x26,0x6e,0x00,0x91,0x32,0x6e,0x5e,0x91,0x26,0x00,0x00,0x91,0x32,0x00,
0x02,0x91,0x22,0x6e,0x00,0x91,0x2e,0x6e,0x81,0x20,0x91,0x22,0x00,0x00,0x91,0x2e,
0x00,0x20,0x91,0x22,0x6e,0x00,0x91,0x2e,0x6e,0x5e,0x91,0x22,0x00,0x00,0x91,0x2e,
0x00,0x02,0x91,0x22,0x6e,0x00,0x91,0x2e,0x6e,0x81,0x20,0x91,0x22,0x00,0x00,0x91,
0x2e,0x00,0x20,0x91,0x22,0x6e,0x00,0x91,0x2e,0x6e,0x5e,0x91,0x22,0x00,0x00,0x91,
0x2e,0x00,0x02,0x91,0x1f,0x6e,0x00,0x91,0x2b,0x6e,0x81,0x20,0x91,0x1f,0x00,0x00,
0x91,0x2b,0x00,0x20,0x91,0x1f,0x6e,0x00,0x91,0x2b,0x6e,0x5e,0x91,0x1f,0x00,0x00,
0x91,0x2b,0x00,0x02,0x91,0x1f,0x6e,0x00,0x91,0x2b,0x6e,0x81,0x20,0x91,0x1f,0x00,
0x00,0x91,0x2b,0x00,0x20,0x91,0x1f,0x6e,0x00,0x91,0x2b,0x6e,0x5e,0x91,0x1f,0x00,
0x00,0x91,0x2b,0x00,0x02,0x91,0x26,0x6e,0x00,0x91,0x32,0x6e,0x81,0x20,0x91,0x26,
0x00,0x00,0x91,0x32,0x00,0x20,0x91,0x26,0x6e,0x00,0x91,0x32,0x6e,0x5e,0x91,0x26,
0x00,0x00,0x91,0x32,0x00,0x02,0x91,0x26,0x6e,0x00,0x91,0x32,0x6e,0x81,0x20,0x91,
0x26,0x00,0x00,0x91,0x32,0x00,0x20,0x91,0x26,0x6e,0x00,0x91,0x32,0x6e,0x5e,0x91,
0x26,0x00,0x00,0x91,0x32,0x00,0x02,0x91,0x22,0x6e,0x00,0x91,0x2e,0x6e,0x81,0x20,
0x91,0x22,0x00,0x00,0x91,0x2e,0x00,0x20,0x91,0x22,0x6e,0x00,0x91,0x2e,0x6e,0x5e,
0x91,0x22,0x00,0x00,0x91,0x2e,0x00,0x02,0x91,0x22,0x6e,0x00,0x91,0x2e,0x6e,0x81,
0x20,0x91,0x22,0x00,0x00,0x91,0x2e,0x00,0x20,0x91,0x22,0x6e,0x00,0x91,0x2e,0x6e,
0x5e,0x91,0x22,0x00,0x00,0x91,0x2e,0x00,0x02,0x91,0x26,0x6e,0x00,0x91,0x32,0x6e,
0x81,0x20,0x91,0x26,0x00,0x00,0x91,0x32,0x00,0x20,0x91,0x26,0x6e,0x00,0x91,0x32,
0x6e,0x5e,0x91,0x26,0x00,0x00,0x91,0x32,0x00,0x02,0x91,0x26,0x6e,0x00,0x91,0x32,
0x6e,0x81,0x20,0x91,0x26,0x00,0x00,0x91,0x32,0x00,0x20,0x91,0x26,0x6e,0x00,0x91,
0x32,0x6e,0x5e,0x91,0x26,0x00,0x00,0x91,0x32,0x00,0x02,0x91,0x21,0x6e,0x00,0x91,
0x2d,0x6e,0x81,0x20,0x91,0x21,0x00,0x00,0x91,0x2d,0x00,0x20,0x91,0x21,0x6e,0x00,
0x91,0x2d,0x6e,0x5e,0x91,0x21,0x00,0x00,0x91,0x2d,0x00,0x02,0x91,0x21,0x6e,0x00,
0x91,0x2d,0x6e,0x81,0x20,0x91,0x21,0x00,0x00,0x91,0x2d,0x00,0x20,0x91,0x21,0x6e,
0x00,0x91,0x2d,0x6e,0x5e,0x91,0x21,0x00,0x00,0x91,0x2d,0x00,0x02,0x91,0x26,0x6e,
0x00,0x91,0x32,0x6e,0x81,0x20,0x91,0x26,0x00,0x00,0x91,0x32,0x00,0x20,0x91,0x26,
0x6e,0x00,0x91,0x32,0x6e,0x81,0x20,0x91,0x26,0x00,0x00,0x91,0x32,0x00,0x20,0x91,
0x24,0x6e,0x00,0x91,0x30,0x6e,0x81,0x20,0x91,0x24,0x00,0x00,0x91,0x30,0x00,0x20,
0x91,0x24,0x6e,0x00,0x91,0x30,0x6e,0x81,0x20,0x91,0x24,0x00,0x00,0x91,0x30,0x00,
0x20,0x91,0x24,0x6e,0x00,0x91,0x30,0x6e,0x81,0x20,0x91,0x24,0x00,0x00,0x91,0x30,
0x00,0x20,0x91,0x22,0x6e,0x00,0x91,0x2e,0x6e,0x81,0x20,0x91,0x22,0x00,0x00,0x91,
0x2e,0x00,0x20,0x91,0x21,0x6e,0x00,0x91,0x2d,0x6e,0x81,0x20,0x91,0x21,0x00,0x00,
0x91,0x2d,0x00,0x20,0x91,0x21,0x6e,0x00,0x91,0x2d,0x6e,0x5e,0x91,0x21,0x00,0x00,
0x91,0x2d,0x00,0x02,0x91,0x21,0x6e,0x00,0x91,0x2d,0x6e,0x81,0x20,0x91,0x21,0x00,
0x00,0x91,0x2d,0x00,0x20,0x91,0x21,0x6e,0x00,0x91,0x2d,0x6e,0x5e,0x91,0x21,0x00,
0x00,0x91,0x2d,0x00,0x02,0x91,0x21,0x6e,0x00,0x91,0x2d,0x6e,0x81,0x20,0x91,0x21,
0x00,0x00,0x91,0x2d,0x00,0x20,0x91,0x21,0x6e,0x00,0x91,0x2d,0x6e,0x5e,0x91,0x21,
0x00,0x00,0x91,0x2d,0x00,0x02,0x91,0x21,0x6e,0x00,0x91,0x2d,0x6e,0x81,0x20,0x91,
0x21,0x00,0x00,0x91,0x2d,0x00,0x20,0x91,0x21,0x6e,0x00,0x91,0x2d,0x6e,0x5e,0x91,
0x21,0x00,0x00,0x91,0x2d,0x00,0x02,0x91,0x1f,0x6e,0x00,0x91,0x2b,0x6e,0x81,0x20,
0x91,0x1f,0x00,0x00,0x91,0x2b,0x00,0x20,0x91,0x1f,0x6e,0x00,0x91,0x2b,0x6e,0x5e,
0x91,0x1f,0x00,0x00,0x91,0x2b,0x00,0x02,0x91,0x1f,0x6e,0x00,0x91,0x2b,0x6e,0x81,
0x20,0x91,0x1f,0x00,0x00,0x91,0x2b,0x00,0x20,0x91,0x1f,0x6e,0x00,0x91,0x2b,0x6e,
0x5e,0x91,0x1f,0x00,0x00,0x91,0x2b,0x00,0x02,0x91,0x1f,0x6e,0x00,0x91,0x2b,0x6e,
0x81,0x20,0x91,0x1f,0x00,0x00,0x91,0x2b,0x00,0x20,0x91,0x1f,0x6e,0x00,0x91,0x2b,
0x6e,0x5e,0x91,0x1f,0x00,0x00,0x91,0x2b,0x00,0x02,0x91,0x1f,0x6e,0x00,0x91,0x2b,
0x6e,0x81,0x20,0x91,0x1f,0x00,0x00,0x91,0x2b,0x00,0x20,0x91,0x1f,0x6e,0x00,0x91,
0x2b,0x6e,0x5e,0x91,0x1f,0x00,0x00,0x91,0x2b,0x00,0x02,0x91,0x21,0x6e,0x00,0x91,
0x2d,0x6e,0x81,0x20,0x91,0x21,0x00,0x00,0x91,0x2d,0x00,0x20,0x91,0x21,0x6e,0x00,
0x91,0x2d,0x6e,0x5e,0x91,0x21,0x00,0x00,0x91,0x2d,0x00,0x02,0x91,0x21,0x6e,0x00,
0x91,0x2d,0x6e,0x81,0x20,0x91,0x21,0x00,0x00,0x91,0x2d,0x00,0x20,0x91,0x21,0x6e,
0x00,0x91,0x2d,0x6e,0x5e,0x91,0x21,0x00,0x00,0x91,0x2d,0x00,0x02,0x91,0x21,0x6e,
0x00,0x91,0x2d,0x6e,0x81,0x20,0x91,0x21,0x00,0x00,0x91,0x2d,0x00,0x20,0x91,0x21,
0x6e,0x00,0x91,0x2d,0x6e,0x5e,0x91,0x21,0x00,0x00,0x91,0x2d,0x00,0x02,0x91,0x21,
0x6e,0x00,0x91,0x2d,0x6e,0x81,0x20,0x91,0x21,0x00,0x00,0x91,0x2d,0x00,0x20,0x91,
0x21,0x6e,0x00,0x91,0x2d,0x6e,0x5e,0x91,0x21,0x00,0x00,0x91,0x2d,0x00,0x02,0x91,
0x26,0x6e,0x00,0x91,0x32,0x6e,0x81,0x20,0x91,0x26,0x00,0x00,0x91,0x32,0x00,0x20,
0x91,0x26,0x6e,0x00,0x91,0x32,0x6e,0x5e,0x91,0x26,0x00,0x00,0x91,0x32,0x00,0x02,
0x91,0x26,0x6e,0x00,0x91,0x32,0x6e,0x81,0x20,0x91,0x26,0x00,0x00,0x91,0x32,0x00,
0x20,0x91,0x26,0x6e,0x00,0x91,0x32,0x6e,0x5e,0x91,0x26,0x00,0x00,0x91,0x32,0x00,
0x02,0x91,0x26,0x6e,0x00,0x91,0x32,0x6e,0x81,0x20,0x91,0x26,0x00,0x00,0x91,0x32,
0x00,0x20,0x91,0x26,0x6e,0x00,0x91,0x32,0x6e,0x5e,0x91,0x26,0x00,0x00,0x91,0x32,
0x00,0x02,0x91,0x26,0x6e,0x00,0x91,0x32,0x6e,0x5e,0x91,0x26,0x00,0x00,0x91,0x32,
0x00,0x02,0x91,0x26,0x6e,0x00,0x91,0x32,0x6e,0x5e,0x91,0x26,0x00,0x00,0x91,0x32,
0x00,0x02,0x91,0x26,0x6e,0x00,0x91,0x32,0x6e,0x5e,0x91,0x26,0x00,0x00,0x91,0x32,
0x00,0x02,0x91,0x24,0x6e,0x00,0x91,0x30,0x6e,0x81,0x20,0x91,0x24,0x00,0x00,0x91,
0x30,0x00,0x20,0x91,0x24,0x6e,0x00,0x91,0x30,0x6e,0x5e,0x91,0x24,0x00,0x00,0x91,
0x30,0x00,0x02,0x91,0x24,0x6e,0x00,0x91,0x30,0x6e,0x81,0x20,0x91,0x24,0x00,0x00,
0x91,0x30,0x00,0x20,0x91,0x24,0x6e,0x00,0x91,0x30,0x6e,0x5e,0x91,0x24,0x00,0x00,
0x91,0x30,0x00,0x02,0x91,0x29,0x6e,0x00,0x91,0x35,0x6e,0x81,0x20,0x91,0x29,0x00,
0x00,0x91,0x35,0x00,0x20,0x91,0x29,0x6e,0x00,0x91,0x35,0x6e,0x5e,0x91,0x29,0x00,
0x00,0x91,0x35,0x00,0x02,0x91,0x29,0x6e,0x00,0x91,0x35,0x6e,0x5e,0x91,0x29,0x00,
0x00,0x91,0x35,0x00,0x02,0x91,0x29,0x6e,0x00,0x91,0x35,0x6e,0x5e,0x91,0x29,0x00,
0x00,0x91,0x35,0x00,0x02,0x91,0x29,0x6e,0x00,0x91,0x35,0x6e,0x5e,0x91,0x29,0x00,
0x00,0x91,0x35,0x00,0x02,0x91,0x26,0x6e,0x00,0x91,0x32,0x6e,0x81,0x20,0x91,0x26,
0x00,0x00,0x91,0x32,0x00,0x20,0x91,0x26,0x6e,0x00,0x91,0x32,0x6e,0x5e,0x91,0x26,
0x00,0x00,0x91,0x32,0x00,0x02,0x91,0x26,0x6e,0x00,0x91,0x32,0x6e,0x81,0x20,0x91,
0x26,0x00,0x00,0x91,0x32,0x00,0x20,0x91,0x26,0x6e,0x00,0x91,0x32,0x6e,0x5e,0x91,
0x26,0x00,0x00,0x91,0x32,0x00,0x02,0x91,0x26,0x6e,0x00,0x91,0x32,0x6e,0x81,0x20,
0x91,0x26,0x00,0x00,0x91,0x32,0x00,0x20,0x91,0x26,0x6e,0x00,0x91,0x32,0x6e,0x5e,
0x91,0x26,0x00,0x00,0x91,0x32,0x00,0x02,0x91,0x26,0x6e,0x00,0x91,0x32,0x6e,0x5e,
0x91,0x26,0x00,0x00,0x91,0x32,0x00,0x02,0x91,0x26,0x6e,0x00,0x91,0x32,0x6e,0x5e,
0x91,0x26,0x00,0x00,0x91,0x32,0x00,0x02,0x91,0x26,0x6e,0x00,0x91,0x32,0x6e,0x5e,
0x91,0x26,0x00,0x00,0x91,0x32,0x00,0x02,0x91,0x21,0x6e,0x00,0x91,0x2d,0x6e,0x81,
0x20,0x91,0x21,0x00,0x00,0x91,0x2d,0x00,0x20,0x91,0x21,0x6e,0x00,0x91,0x2d,0x6e,
0x5e,0x91,0x21,0x00,0x00,0x91,0x2d,0x00,0x02,0x91,0x21,0x6e,0x00,0x91,0x2d,0x6e,
0x81,0x20,0x91,0x21,0x00,0x00,0x91,0x2d,0x00,0x20,0x91,0x21,0x6e,0x00,0x91,0x2d,
0x6e,0x5e,0x91,0x21,0x00,0x00,0x91,0x2d,0x00,0x02,0x91,0x26,0x6e,0x00,0x91,0x32,
0x6e,0x81,0x20,0x91,0x26,0x00,0x00,0x91,0x32,0x00,0x20,0x91,0x26,0x6e,0x00,0x91,
0x32,0x6e,0x5e,0x91,0x26,0x00,0x00,0x91,0x32,0x00,0x02,0x91,0x26,0x6e,0x00,0x91,
0x32,0x6e,0x81,0x20,0x91,0x26,0x00,0x00,0x91,0x32,0x00,0x20,0x91,0x26,0x6e,0x00,
0x91,0x32,0x6e,0x5e,0x91,0x26,0x00,0x00,0x91,0x32,0x00,0x02,0x91,0x26,0x6e,0x00,
0x91,0x32,0x6e,0x81,0x20,0x91,0x26,0x00,0x00,0x91,0x32,0x00,0x20,0x91,0x26,0x6e,
0x00,0x91,0x32,0x6e,0x5e,0x91,0x26,0x00,0x00,0x91,0x32,0x00,0x02,0x91,0x26,0x6e,
0x00,0x91,0x32,0x6e,0x81,0x20,0x91,0x26,0x00,0x00,0x91,0x32,0x00,0x20,0x91,0x26,
0x6e,0x00,0x91,0x32,0x6e,0x5e,0x91,0x26,0x00,0x00,0x91,0x32,0x00,0x02,0x91,0x24,
0x6e,0x00,0x91,0x30,0x6e,0x81,0x20,0x91,0x24,0x00,0x00,0x91,0x30,0x00,0x20,0x91,
0x24,0x6e,0x00,0x91,0x30,0x6e,0x5e,0x91,0x24,0x00,0x00,0x91,0x30,0x00,0x02,0x91,
0x24,0x6e,0x00,0x91,0x30,0x6e,0x5e,0x91,0x24,0x00,0x00,0x91,0x30,0x00,0x02,0x91,
0x24,0x6e,0x00,0x91,0x30,0x6e,0x5e,0x91,0x24,0x00,0x00,0x91,0x30,0x00,0x02,0x91,
0x24,0x6e,0x00,0x91,0x30,0x6e,0x5e,0x91,0x24,0x00,0x00,0x91,0x30,0x00,0x02,0x91,
0x29,0x6e,0x00,0x91,0x35,0x6e,0x81,0x20,0x91,0x29,0x00,0x00,0x91,0x35,0x00,0x20,
0x91,0x29,0x6e,0x00,0x91,0x35,0x6e,0x5e,0x91,0x29,0x00,0x00,0x91,0x35,0x00,0x02,
0x91,0x29,0x6e,0x00,0x91,0x35,0x6e,0x5e,0x91,0x29,0x00,0x00,0x91,0x35,0x00,0x02,
0x91,0x29,0x6e,0x00,0x91,0x35,0x6e,0x5e,0x91,0x29,0x00,0x00,0x91,0x35,0x00,0x02,
0x91,0x29,0x6e,0x00,0x91,0x35,0x6e,0x5e,0x91,0x29,0x00,0x00,0x91,0x35,0x00,0x02,
0x91,0x24,0x6e,0x00,0x91,0x30,0x6e,0x81,0x20,0x91,0x24,0x00,0x00,0x91,0x30,0x00,
0x20,0x91,0x24,0x6e,0x00,0x91,0x30,0x6e,0x5e,0x91,0x24,0x00,0x00,0x91,0x30,0x00,
0x02,0x91,0x24,0x6e,0x00,0x91,0x30,0x6e,0x5e,0x91,0x24,0x00,0x00,0x91,0x30,0x00,
0x02,0x91,0x24,0x6e,0x00,0x91,0x30,0x6e,0x5e,0x91,0x24,0x00,0x00,0x91,0x30,0x00,
0x02,0x91,0x24,0x6e,0x00,0x91,0x30,0x6e,0x5e,0x91,0x24,0x00,0x00,0x91,0x30,0x00,
0x02,0x91,0x29,0x6e,0x00,0x91,0x35,0x6e,0x81,0x20,0x91,0x29,0x00,0x00,0x91,0x35,
0x00,0x20,0x91,0x29,0x6e,0x00,0x91,0x35,0x6e,0x5e,0x91,0x29,0x00,0x00,0x91,0x35,
0x00,0x02,0x91,0x29,0x6e,0x00,0x91,0x35,0x6e,0x5e,0x91,0x29,0x00,0x00,0x91,0x35,
0x00,0x02,0x91,0x29,0x6e,0x00,0x91,0x35,0x6e,0x5e,0x91,0x29,0x00,0x00,0x91,0x35,
0x00,0x02,0x91,0x29,0x6e,0x00,0x91,0x35,0x6e,0x5e,0x91,0x29,0x00,0x00,0x91,0x35,
0x00,0x02,0x91,0x21,0x6e,0x00,0x91,0x2d,0x6e,0x81,0x20,0x91,0x21,0x00,0x00,0x91,
0x2d,0x00,0x20,0x91,0x21,0x6e,0x00,0x91,0x2d,0x6e,0x5e,0x91,0x21,0x00,0x00,0x91,
0x2d,0x00,0x02,0x91,0x21,0x6e,0x00,0x91,0x2d,0x6e,0x5e,0x91,0x21,0x00,0x00,0x91,
0x2d,0x00,0x02,0x91,0x21,0x6e,0x00,0x91,0x2d,0x6e,0x5e,0x91,0x21,0x00,0x00,0x91,
0x2d,0x00,0x02,0x91,0x21,0x6e,0x00,0x91,0x2d,0x6e,0x5e,0x91,0x21,0x00,0x00,0x91,
0x2d,0x00,0x02,0x91,0x26,0x6e,0x00,0x91,0x32,0x6e,0x81,0x20,0x91,0x26,0x00,0x00,
0x91,0x32,0x00,0x20,0x91,0x26,0x6e,0x00,0x91,0x32,0x6e,0x5e,0x91,0x26,0x00,0x00,
0x91,0x32,0x00,0x02,0x91,0x26,0x6e,0x00,0x91,0x32,0x6e,0x81,0x20,0x91,0x26,0x00,
0x00,0x91,0x32,0x00,0x20,0x91,0x26,0x6e,0x00,0x91,0x32,0x6e,0x5e,0x91,0x26,0x00,
0x00,0x91,0x32,0x00,0x02,0x91,0x26,0x6e,0x00,0x91,0x32,0x6e,0x81,0x20,0x91,0x26,
0x00,0x00,0x91,0x32,0x00,0x20,0x91,0x26,0x6e,0x00,0x91,0x32,0x6e,0x5e,0x91,0x26,
0x00,0x00,0x91,0x32,0x00,0x02,0x91,0x26,0x6e,0x00,0x91,0x32,0x6e,0x5e,0x91,0x26,
0x00,0x00,0x91,0x32,0x00,0x02,0x91,0x26,0x6e,0x00,0x91,0x32,0x6e,0x5e,0x91,0x26,
0x00,0x00,0x91,0x32,0x00,0x02,0x91,0x26,0x6e,0x00,0x91,0x32,0x6e,0x5e,0x91,0x26,
0x00,0x00,0x91,0x32,0x00,0x02,0x91,0x26,0x6e,0x00,0x91,0x32,0x6e,0x81,0x20,0x91,
0x26,0x00,0x00,0x91,0x32,0x00,0x20,0x91,0x26,0x6e,0x00,0x91,0x32,0x6e,0x5e,0x91,
0x26,0x00,0x00,0x91,0x32,0x00,0x02,0x91,0x26,0x6e,0x00,0x91,0x32,0x6e,0x5e,0x91,
0x26,0x00,0x00,0x91,0x32,0x00,0x02,0x91,0x26,0x6e,0x00,0x91,0x32,0x6e,0x5e,0x91,
0x26,0x00,0x00,0x91,0x32,0x00,0x02,0x91,0x26,0x6e,0x00,0x91,0x32,0x6e,0x5e,0x91,
0x26,0x00,0x00,0x91,0x32,0x00,0x02,0x91,0x24,0x6e,0x00,0x91,0x30,0x6e,0x81,0x20,
0x91,0x24,0x00,0x00,0x91,0x30,0x00,0x20,0x91,0x24,0x6e,0x00,0x91,0x30,0x6e,0x5e,
0x91,0x24,0x00,0x00,0x91,0x30,0x00,0x02,0x91,0x24,0x6e,0x00,0x91,0x30,0x6e,0x5e,
0x91,0x24,0x00,0x00,0x91,0x30,0x00,0x02,0x91,0x24,0x6e,0x00,0x91,0x30,0x6e,0x5e,
0x91,0x24,0x00,0x00,0x91,0x30,0x00,0x02,0x91,0x24,0x6e,0x00,0x91,0x30,0x6e,0x5e,
0x91,0x24,0x00,0x00,0x91,0x30,0x00,0x02,0x91,0x29,0x6e,0x00,0x91,0x35,0x6e,0x81,
0x20,0x91,0x29,0x00,0x00,0x91,0x35,0x00,0x20,0x91,0x29,0x6e,0x00,0x91,0x35,0x6e,
0x5e,0x91,0x29,0x00,0x00,0x91,0x35,0x00,0x02,0x91,0x29,0x6e,0x00,0x91,0x35,0x6e,
0x5e,0x91,0x29,0x00,0x00,0x91,0x35,0x00,0x02,0x91,0x29,0x6e,0x00,0x91,0x35,0x6e,
0x5e,0x91,0x29,0x00,0x00,0x91,0x35,0x00,0x02,0x91,0x29,0x6e,0x00,0x91,0x35,0x6e,
0x5e,0x91,0x29,0x00,0x00,0x91,0x35,0x00,0x02,0x91,0x22,0x6e,0x00,0x91,0x2e,0x6e,
0x81,0x20,0x91,0x22,0x00,0x00,0x91,0x2e,0x00,0x20,0x91,0x22,0x6e,0x00,0x91,0x2e,
0x6e,0x5e,0x91,0x22,0x00,0x00,0x91,0x2e,0x00,0x02,0x91,0x22,0x6e,0x00,0x91,0x2e,
0x6e,0x5e,0x91,0x22,0x00,0x00,0x91,0x2e,0x00,0x02,0x91,0x22,0x6e,0x00,0x91,0x2e,
0x6e,0x5e,0x91,0x22,0x00,0x00,0x91,0x2e,0x00,0x02,0x91,0x22,0x6e,0x00,0x91,0x2e,
0x6e,0x5e,0x91,0x22,0x00,0x00,0x91,0x2e,0x00,0x02,0x91,0x26,0x6e,0x00,0x91,0x32,
0x6e,0x81,0x20,0x91,0x26,0x00,0x00,0x91,0x32,0x00,0x20,0x91,0x26,0x6e,0x00,0x91,
0x32,0x6e,0x5e,0x91,0x26,0x00,0x00,0x91,0x32,0x00,0x02,0x91,0x26,0x6e,0x00,0x91,
0x32,0x6e,0x5e,0x91,0x26,0x00,0x00,0x91,0x32,0x00,0x02,0x91,0x26,0x6e,0x00,0x91,
0x32,0x6e,0x5e,0x91,0x26,0x00,0x00,0x91,0x32,0x00,0x02,0x91,0x26,0x6e,0x00,0x91,
0x32,0x6e,0x5e,0x91,0x26,0x00,0x00,0x91,0x32,0x00,0x02,0x91,0x1f,0x6e,0x00,0x91,
0x2b,0x6e,0x81,0x20,0x91,0x1f,0x00,0x00,0x91,0x2b,0x00,0x20,0x91,0x1f,0x6e,0x00,
0x91,0x2b,0x6e,0x5e,0x91,0x1f,0x00,0x00,0x91,0x2b,0x00,0x02,0x91,0x1f,0x6e,0x00,
0x91,0x2b,0x6e,0x5e,0x91,0x1f,0x00,0x00,0x91,0x2b,0x00,0x02,0x91,0x1f,0x6e,0x00,
0x91,0x2b,0x6e,0x5e,0x91,0x1f,0x00,0x00,0x91,0x2b,0x00,0x02,0x91,0x1f,0x6e,0x00,
0x91,0x2b,0x6e,0x5e,0x91,0x1f,0x00,0x00,0x91,0x2b,0x00,0x02,0x91,0x21,0x6e,0x00,
0x91,0x2d,0x6e,0x81,0x20,0x91,0x21,0x00,0x00,0x91,0x2d,0x00,0x20,0x91,0x21,0x6e,
0x00,0x91,0x2d,0x6e,0x5e,0x91,0x21,0x00,0x00,0x91,0x2d,0x00,0x02,0x91,0x21,0x6e,
0x00,0x91,0x2d,0x6e,0x5e,0x91,0x21,0x00,0x00,0x91,0x2d,0x00,0x02,0x91,0x21,0x6e,
0x00,0x91,0x2d,0x6e,0x5e,0x91,0x21,0x00,0x00,0x91,0x2d,0x00,0x02,0x91,0x21,0x6e,
0x00,0x91,0x2d,0x6e,0x5e,0x91,0x21,0x00,0x00,0x91,0x2d,0x00,0x02,0x91,0x21,0x6e,
0x00,0x91,0x2d,0x6e,0x81,0x20,0x91,0x21,0x00,0x00,0x91,0x2d,0x00,0x20,0x91,0x21,
0x6e,0x00,0x91,0x2d,0x6e,0x5e,0x91,0x21,0x00,0x00,0x91,0x2d,0x00,0x02,0x91,0x21,
0x6e,0x00,0x91,0x2d,0x6e,0x5e,0x91,0x21,0x00,0x00,0x91,0x2d,0x00,0x02,0x91,0x21,
0x6e,0x00,0x91,0x2d,0x6e,0x5e,0x91,0x21,0x00,0x00,0x91,0x2d,0x00,0x02,0x91,0x21,
0x6e,0x00,0x91,0x2d,0x6e,0x5e,0x91,0x21,0x00,0x00,0x91,0x2d,0x00,0x02,0x91,0x26,
0x6e,0x00,0x91,0x32,0x6e,0x81,0x20,0x91,0x26,0x00,0x00,0x91,0x32,0x00,0x20,0x91,
0x26,0x6e,0x00,0x91,0x32,0x6e,0x5e,0x91,0x26,0x00,0x00,0x91,0x32,0x00,0x02,0x91,
0x26,0x6e,0x00,0x91,0x32,0x6e,0x5e,0x91,0x26,0x00,0x00,0x91,0x32,0x00,0x02,0x91,
0x26,0x6e,0x00,0x91,0x32,0x6e,0x5e,0x91,0x26,0x00,0x00,0x91,0x32,0x00,0x02,0x91,
0x26,0x6e,0x00,0x91,0x32,0x6e,0x5e,0x91,0x26,0x00,0x00,0x91,0x32,0x00,0x02,0x91,
0x1f,0x6e,0x00,0x91,0x2b,0x6e,0x81,0x20,0x91,0x1f,0x00,0x00,0x91,0x2b,0x00,0x20,
0x91,0x1f,0x6e,0x00,0x91,0x2b,0x6e,0x5e,0x91,0x1f,0x00,0x00,0x91,0x2b,0x00,0x02,
0x91,0x1f,0x6e,0x00,0x91,0x2b,0x6e,0x5e,0x91,0x1f,0x00,0x00,0x91,0x2b,0x00,0x02,
0x91,0x1f,0x6e,0x00,0x91,0x2b,0x6e,0x5e,0x91,0x1f,0x00,0x00,0x91,0x2b,0x00,0x02,
0x91,0x1f,0x6e,0x00,0x91,0x2b,0x6e,0x5e,0x91,0x1f,0x00,0x00,0x91,0x2b,0x00,0x02,
0x91,0x29,0x6e,0x00,0x91,0x35,0x6e,0x81,0x20,0x91,0x29,0x00,0x00,0x91,0x35,0x00,
0x20,0x91,0x29,0x6e,0x00,0x91,0x35,0x6e,0x5e,0x91,0x29,0x00,0x00,0x91,0x35,0x00,
0x02,0x91,0x29,0x6e,0x00,0x91,0x35,0x6e,0x81,0x20,0x91,0x29,0x00,0x00,0x91,0x35,
0x00,0x20,0x91,0x29,0x6e,0x00,0x91,0x35,0x6e,0x5e,0x91,0x29,0x00,0x00,0x91,0x35,
0x00,0x02,0x91,0x24,0x6e,0x00,0x91,0x30,0x6e,0x81,0x20,0x91,0x24,0x00,0x00,0x91,
0x30,0x00,0x20,0x91,0x24,0x6e,0x00,0x91,0x30,0x6e,0x5e,0x91,0x24,0x00,0x00,0x91,
0x30,0x00,0x02,0x91,0x24,0x6e,0x00,0x91,0x30,0x6e,0x5e,0x91,0x24,0x00,0x00,0x91,
0x30,0x00,0x02,0x91,0x24,0x6e,0x00,0x91,0x30,0x6e,0x5e,0x91,0x24,0x00,0x00,0x91,
0x30,0x00,0x02,0x91,0x24,0x6e,0x00,0x91,0x30,0x6e,0x5e,0x91,0x24,0x00,0x00,0x91,
0x30,0x00,0x02,0x91,0x1f,0x6e,0x00,0x91,0x2b,0x6e,0x81,0x20,0x91,0x1f,0x00,0x00,
0x91,0x2b,0x00,0x20,0x91,0x1f,0x6e,0x00,0x91,0x2b,0x6e,0x5e,0x91,0x1f,0x00,0x00,
0x91,0x2b,0x00,0x02,0x91,0x1f,0x6e,0x00,0x91,0x2b,0x6e,0x5e,0x91,0x1f,0x00,0x00,
0x91,0x2b,0x00,0x02,0x91,0x1f,0x6e,0x00,0x91,0x2b,0x6e,0x5e,0x91,0x1f,0x00,0x00,
0x91,0x2b,0x00,0x02,0x91,0x1f,0x6e,0x00,0x91,0x2b,0x6e,0x5e,0x91,0x1f,0x00,0x00,
0x91,0x2b,0x00,0x02,0x91,0x21,0x6e,0x00,0x91,0x2d,0x6e,0x81,0x20,0x91,0x21,0x00,
0x00,0x91,0x2d,0x00,0x20,0x91,0x21,0x6e,0x00,0x91,0x2d,0x6e,0x5e,0x91,0x21,0x00,
0x00,0x91,0x2d,0x00,0x02,0x91,0x21,0x6e,0x00,0x91,0x2d,0x6e,0x5e,0x91,0x21,0x00,
0x00,0x91,0x2d,0x00,0x02,0x91,0x21,0x6e,0x00,0x91,0x2d,0x6e,0x5e,0x91,0x21,0x00,
0x00,0x91,0x2d,0x00,0x02,0x91,0x21,0x6e,0x00,0x91,0x2d,0x6e,0x5e,0x91,0x21,0x00,
0x00,0x91,0x2d,0x00,0x02,0x91,0x21,0x6e,0x00,0x91,0x2d,0x6e,0x81,0x20,0x91,0x21,
0x00,0x00,0x91,0x2d,0x00,0x20,0x91,0x21,0x6e,0x00,0x91,0x2d,0x6e,0x5e,0x91,0x21,
0x00,0x00,0x91,0x2d,0x00,0x02,0x91,0x21,0x6e,0x00,0x91,0x2d,0x6e,0x5e,0x91,0x21,
0x00,0x00,0x91,0x2d,0x00,0x02,0x91,0x21,0x6e,0x00,0x91,0x2d,0x6e,0x5e,0x91,0x21,
0x00,0x00,0x91,0x2d,0x00,0x02,0x91,0x21,0x6e,0x00,0x91,0x2d,0x6e,0x5e,0x91,0x21,
0x00,0x00,0x91,0x2d,0x00,0x02,0x91,0x26,0x6e,0x00,0x91,0x32,0x6e,0x81,0x20,0x91,
0x26,0x00,0x00,0x91,0x32,0x00,0x20,0x91,0x26,0x6e,0x00,0x91,0x32,0x6e,0x5e,0x91,
0x26,0x00,0x00,0x91,0x32,0x00,0x02,0x91,0x26,0x6e,0x00,0x91,0x32,0x6e,0x5e,0x91,
0x26,0x00,0x00,0x91,0x32,0x00,0x02,0x91,0x26,0x6e,0x00,0x91,0x32,0x6e,0x5e,0x91,
0x26,0x00,0x00,0x91,0x32,0x00,0x02,0x91,0x26,0x6e,0x00,0x91,0x32,0x6e,0x5e,0x91,
0x26,0x00,0x00,0x91,0x32,0x00,0x02,0x91,0x26,0x6e,0x00,0x91,0x32,0x6e,0x81,0x20,
0x91,0x26,0x00,0x00,0x91,0x32,0x00,0x20,0x91,0x26,0x6e,0x00,0x91,0x32,0x6e,0x5e,
0x91,0x26,0x00,0x00,0x91,0x32,0x00,0x02,0x91,0x26,0x6e,0x00,0x91,0x32,0x6e,0x5e,
0x91,0x26,0x00,0x00,0x91,0x32,0x00,0x02,0x91,0x26,0x6e,0x00,0x91,0x32,0x6e,0x5e,
0x91,0x26,0x00,0x00,0x91,0x32,0x00,0x02,0x91,0x26,0x6e,0x00,0x91,0x32,0x6e,0x5e,
0x91,0x26,0x00,0x00,0x91,0x32,0x00,0x02,0x91,0x22,0x6e,0x00,0x91,0x2e,0x6e,0x81,
0x20,0x91,0x22,0x00,0x00,0x91,0x2e,0x00,0x20,0x91,0x22,0x6e,0x00,0x91,0x2e,0x6e,
0x5e,0x91,0x22,0x00,0x00,0x91,0x2e,0x00,0x02,0x91,0x22,0x6e,0x00,0x91,0x2e,0x6e,
0x5e,0x91,0x22,0x00,0x00,0x91,0x2e,0x00,0x02,0x91,0x22,0x6e,0x00,0x91,0x2e,0x6e,
0x5e,0x91,0x22,0x00,0x00,0x91,0x2e,0x00,0x02,0x91,0x22,0x6e,0x00,0x91,0x2e,0x6e,
0x5e,0x91,0x22,0x00,0x00,0x91,0x2e,0x00,0x02,0x91,0x29,0x6e,0x00,0x91,0x35,0x6e,
0x81,0x20,0x91,0x29,0x00,0x00,0x91,0x35,0x00,0x20,0x91,0x29,0x6e,0x00,0x91,0x35,
0x6e,0x5e,0x91,0x29,0x00,0x00,0x91,0x35,0x00,0x02,0x91,0x29,0x6e,0x00,0x91,0x35,
0x6e,0x5e,0x91,0x29,0x00,0x00,0x91,0x35,0x00,0x02,0x91,0x29,0x6e,0x00,0x91,0x35,
0x6e,0x5e,0x91,0x29,0x00,0x00,0x91,0x35,0x00,0x02,0x91,0x29,0x6e,0x00,0x91,0x35,
0x6e,0x5e,0x91,0x29,0x00,0x00,0x91,0x35,0x00,0x02,0x91,0x24,0x6e,0x00,0x91,0x30,
0x6e,0x81,0x20,0x91,0x24,0x00,0x00,0x91,0x30,0x00,0x20,0x91,0x24,0x6e,0x00,0x91,
0x30,0x6e,0x5e,0x91,0x24,0x00,0x00,0x91,0x30,0x00,0x02,0x91,0x24,0x6e,0x00,0x91,
0x30,0x6e,0x5e,0x91,0x24,0x00,0x00,0x91,0x30,0x00,0x02,0x91,0x24,0x6e,0x00,0x91,
0x30,0x6e,0x5e,0x91,0x24,0x00,0x00,0x91,0x30,0x00,0x02,0x91,0x24,0x6e,0x00,0x91,
0x30,0x6e,0x5e,0x91,0x24,0x00,0x00,0x91,0x30,0x00,0x02,0x91,0x1f,0x6e,0x00,0x91,
0x2b,0x6e,0x81,0x20,0x91,0x1f,0x00,0x00,0x91,0x2b,0x00,0x20,0x91,0x1f,0x6e,0x00,
0x91,0x2b,0x6e,0x5e,0x91,0x1f,0x00,0x00,0x91,0x2b,0x00,0x02,0x91,0x1f,0x6e,0x00,
0x91,0x2b,0x6e,0x5e,0x91,0x1f,0x00,0x00,0x91,0x2b,0x00,0x02,0x91,0x1f,0x6e,0x00,
0x91,0x2b,0x6e,0x5e,0x91,0x1f,0x00,0x00,0x91,0x2b,0x00,0x02,0x91,0x1f,0x6e,0x00,
0x91,0x2b,0x6e,0x5e,0x91,0x1f,0x00,0x00,0x91,0x2b,0x00,0x02,0x91,0x21,0x6e,0x00,
0x91,0x2d,0x6e,0x81,0x20,0x91,0x21,0x00,0x00,0x91,0x2d,0x00,0x20,0x91,0x21,0x6e,
0x00,0x91,0x2d,0x6e,0x5e,0x91,0x21,0x00,0x00,0x91,0x2d,0x00,0x02,0x91,0x21,0x6e,
0x00,0x91,0x2d,0x6e,0x5e,0x91,0x21,0x00,0x00,0x91,0x2d,0x00,0x02,0x91,0x21,0x6e,
0x00,0x91,0x2d,0x6e,0x5e,0x91,0x21,0x00,0x00,0x91,0x2d,0x00,0x02,0x91,0x21,0x6e,
0x00,0x91,0x2d,0x6e,0x5e,0x91,0x21,0x00,0x00,0x91,0x2d,0x00,0x02,0x91,0x21,0x6e,
0x00,0x91,0x2d,0x6e,0x81,0x20,0x91,0x21,0x00,0x00,0x91,0x2d,0x00,0x20,0x91,0x21,
0x6e,0x00,0x91,0x2d,0x6e,0x5e,0x91,0x21,0x00,0x00,0x91,0x2d,0x00,0x02,0x91,0x21,
0x6e,0x00,0x91,0x2d,0x6e,0x5e,0x91,0x21,0x00,0x00,0x91,0x2d,0x00,0x02,0x91,0x21,
0x6e,0x00,0x91,0x2d,0x6e,0x5e,0x91,0x21,0x00,0x00,0x91,0x2d,0x00,0x02,0x91,0x21,
0x6e,0x00,0x91,0x2d,0x6e,0x5e,0x91,0x21,0x00,0x00,0x91,0x2d,0x00,0x02,0x91,0x26,
0x6e,0x00,0x91,0x32,0x6e,0x82,0x00,0x91,0x26,0x00,0x00,0x91,0x32,0x00,0x20,0x91,
0x26,0x6e,0x00,0x91,0x32,0x6e,0x5e,0x91,0x26,0x00,0x00,0x91,0x32,0x00,0x02,0x91,
0x26,0x6e,0x00,0x91,0x32,0x6e,0x5e,0x91,0x26,0x00,0x00,0x91,0x32,0x00,0x02,0x91,
0x26,0x6e,0x00,0x91,0x32,0x6e,0x5e,0x91,0x26,0x00,0x00,0x91,0x32,0x00,0x02,0x91,
0x1a,0x6e,0x00,0x91,0x26,0x6e,0x85,0x50,0x91,0x1a,0x00,0x00,0x91,0x26,0x00,0x00,
0xff,0x2f,0x00,0x4d,0x54,0x72,0x6b,0x00,0x00,0x06,0xb5,0x00,0xff,0x21,0x01,0x00,
0x00,0xff,0x03,0x07,0x53,0x74,0x61,0x66,0x66,0x2d,0x31,0x00,0xb2,0x07,0x7f,0x00,
0xb2,0x0a,0x40,0x00,0xc2,0x30,0x8d,0x40,0x92,0x3e,0x4b,0x84,0x10,0x92,0x3e,0x00,
0x30,0x92,0x3e,0x4b,0x84,0x10,0x92,0x3e,0x00,0x30,0x92,0x46,0x4b,0x82,0x00,0x92,
0x46,0x00,0x20,0x92,0x45,0x4b,0x81,0x0e,0x92,0x45,0x00,0x02,0x92,0x45,0x4b,0x81,
0x0e,0x92,0x45,0x00,0x02,0x92,0x3e,0x4b,0x82,0x50,0x92,0x3e,0x00,0x30,0x92,0x3e,
0x4b,0x5e,0x92,0x3e,0x00,0x02,0x92,0x40,0x4b,0x5e,0x92,0x40,0x00,0x02,0x92,0x41,
0x4b,0x82,0x50,0x92,0x41,0x00,0x30,0x92,0x41,0x4b,0x5e,0x92,0x41,0x00,0x02,0x92,
0x43,0x4b,0x5e,0x92,0x43,0x00,0x02,0x92,0x40,0x4b,0x82,0x50,0x92,0x40,0x00,0x30,
0x92,0x3e,0x4b,0x5e,0x92,0x3e,0x00,0x02,0x92,0x3c,0x4b,0x5e,0x92,0x3c,0x00,0x02,
0x92,0x3c,0x4b,0x5e,0x92,0x3c,0x00,0x02,0x92,0x3e,0x4b,0x5e,0x92,0x3e,0x00,0x81,
0x42,0x92,0x39,0x4b,0x5e,0x92,0x39,0x00,0x02,0x92,0x3c,0x4b,0x5e,0x92,0x3c,0x00,
0x02,0x92,0x3e,0x4b,0x82,0x50,0x92,0x3e,0x00,0x30,0x92,0x3e,0x4b,0x5e,0x92,0x3e,
0x00,0x02,0x92,0x40,0x4b,0x5e,0x92,0x40,0x00,0x02,0x92,0x41,0x4b,0x82,0x50,0x92,
0x41,0x00,0x30,0x92,0x41,0x4b,0x5e,0x92,0x41,0x00,0x02,0x92,0x43,0x4b,0x5e,0x92,
0x43,0x00,0x02,0x92,0x40,0x4b,0x82,0x50,0x92,0x40,0x00,0x30,0x92,0x3e,0x4b,0x5e,
0x92,0x3e,0x00,0x02,0x92,0x3c,0x4b,0x5e,0x92,0x3c,0x00,0x02,0x92,0x3e,0x4b,0x81,
0x20,0x92,0x3e,0x00,0x81,0x60,0x92,0x39,0x4b,0x5e,0x92,0x39,0x00,0x02,0x92,0x3c,
0x4b,0x5e,0x92,0x3c,0x00,0x02,0x92,0x3e,0x4b,0x82,0x50,0x92,0x3e,0x00,0x30,0x92,
0x3e,0x4b,0x5e,0x92,0x3e,0x00,0x02,0x92,0x41,0x4b,0x5e,0x92,0x41,0x00,0x02,0x92,
0x43,0x4b,0x82,0x50,0x92,0x43,0x00,0x30,0x92,0x43,0x4b,0x5e,0x92,0x43,0x00,0x02,
0x92,0x45,0x4b,0x5e,0x92,0x45,0x00,0x02,0x92,0x46,0x4b,0x82,0x50,0x92,0x46,0x00,
0x30,0x92,0x45,0x4b,0x5e,0x92,0x45,0x00,0x02,0x92,0x43,0x4b,0x5e,0x92,0x43,0x00,
0x02,0x92,0x45,0x4b,0x5e,0x92,0x45,0x00,0x02,0x92,0x3e,0x4b,0x81,0x20,0x92,0x3e,
0x00,0x81,0x00,0x92,0x3e,0x4b,0x5e,0x92,0x3e,0x00,0x02,0x92,0x40,0x4b,0x5e,0x92,
0x40,0x00,0x02,0x92,0x41,0x4b,0x82,0x50,0x92,0x41,0x00,0x30,0x92,0x43,0x4b,0x81,
0x20,0x92,0x43,0x00,0x20,0x92,0x45,0x4b,0x5e,0x92,0x45,0x00,0x02,0x92,0x3e,0x4b,
0x81,0x20,0x92,0x3e,0x00,0x81,0x00,0x92,0x3e,0x4b,0x5e,0x92,0x3e,0x00,0x02,0x92,
0x41,0x4b,0x5e,0x92,0x41,0x00,0x02,0x92,0x40,0x4b,0x82,0x50,0x92,0x40,0x00,0x30,
0x92,0x41,0x4b,0x5e,0x92,0x41,0x00,0x02,0x92,0x3e,0x4b,0x5e,0x92,0x3e,0x00,0x02,
0x92,0x40,0x4b,0x82,0x00,0x92,0x40,0x00,0x81,0x00,0x92,0x45,0x4b,0x5e,0x92,0x45,
0x00,0x02,0x92,0x48,0x4b,0x5e,0x92,0x48,0x00,0x02,0x92,0x4a,0x4b,0x82,0x50,0x92,
0x4a,0x00,0x30,0x92,0x4a,0x4b,0x5e,0x92,0x4a,0x00,0x02,0x92,0x4c,0x4b,0x5e,0x92,
0x4c,0x00,0x02,0x92,0x4d,0x4b,0x82,0x50,0x92,0x4d,0x00,0x30,0x92,0x4d,0x4b,0x5e,
0x92,0x4d,0x00,0x02,0x92,0x4f,0x4b,0x5e,0x92,0x4f,0x00,0x02,0x92,0x4c,0x4b,0x82,
0x50,0x92,0x4c,0x00,0x30,0x92,0x4a,0x4b,0x5e,0x92,0x4a,0x00,0x02,0x92,0x48,0x4b,
0x5e,0x92,0x48,0x00,0x02,0x92,0x48,0x4b,0x5e,0x92,0x48,0x00,0x02,0x92,0x4a,0x4b,
0x82,0x00,0x92,0x4a,0x00,0x20,0x92,0x45,0x4b,0x5e,0x92,0x45,0x00,0x02,0x92,0x48,
0x4b,0x5e,0x92,0x48,0x00,0x02,0x92,0x4a,0x4b,0x82,0x50,0x92,0x4a,0x00,0x30,0x92,
0x4a,0x4b,0x5e,0x92,0x4a,0x00,0x02,0x92,0x4c,0x4b,0x5e,0x92,0x4c,0x00,0x02,0x92,
0x4d,0x4b,0x82,0x50,0x92,0x4d,0x00,0x30,0x92,0x4d,0x4b,0x5e,0x92,0x4d,0x00,0x02,
0x92,0x4f,0x4b,0x5e,0x92,0x4f,0x00,0x02,0x92,0x4c,0x4b,0x82,0x50,0x92,0x4c,0x00,
0x30,0x92,0x4a,0x4b,0x5e,0x92,0x4a,0x00,0x02,0x92,0x48,0x4b,0x5e,0x92,0x48,0x00,
0x02,0x92,0x4a,0x4b,0x81,0x20,0x92,0x4a,0x00,0x81,0x60,0x92,0x45,0x4b,0x5e,0x92,
0x45,0x00,0x02,0x92,0x48,0x4b,0x5e,0x92,0x48,0x00,0x02,0x92,0x4a,0x4b,0x82,0x50,
0x92,0x4a,0x00,0x30,0x92,0x4a,0x4b,0x5e,0x92,0x4a,0x00,0x02,0x92,0x4d,0x4b,0x5e,
0x92,0x4d,0x00,0x02,0x92,0x4f,0x4b,0x82,0x50,0x92,0x4f,0x00,0x30,0x92,0x4f,0x4b,
0x5e,0x92,0x4f,0x00,0x02,0x92,0x51,0x4b,0x5e,0x92,0x51,0x00,0x02,0x92,0x52,0x4b,
0x82,0x50,0x92,0x52,0x00,0x30,0x92,0x51,0x4b,0x5e,0x92,0x51,0x00,0x02,0x92,0x4f,
0x4b,0x5e,0x92,0x4f,0x00,0x02,0x92,0x51,0x4b,0x5e,0x92,0x51,0x00,0x02,0x92,0x4a,
0x4b,0x81,0x20,0x92,0x4a,0x00,0x81,0x00,0x92,0x4a,0x4b,0x5e,0x92,0x4a,0x00,0x02,
0x92,0x4c,0x4b,0x5e,0x92,0x4c,0x00,0x02,0x92,0x4d,0x4b,0x82,0x50,0x92,0x4d,0x00,
0x30,0x92,0x4f,0x4b,0x81,0x20,0x92,0x4f,0x00,0x20,0x92,0x51,0x4b,0x5e,0x92,0x51,
0x00,0x02,0x92,0x4a,0x4b,0x81,0x20,0x92,0x4a,0x00,0x81,0x00,0x92,0x4a,0x4b,0x5e,
0x92,0x4a,0x00,0x02,0x92,0x4d,0x4b,0x5e,0x92,0x4d,0x00,0x02,0x92,0x4c,0x4b,0x82,
0x50,0x92,0x4c,0x00,0x30,0x92,0x4a,0x4b,0x5e,0x92,0x4a,0x00,0x02,0x92,0x48,0x4b,
0x5e,0x92,0x48,0x00,0x02,0x92,0x4a,0x4b,0x82,0x50,0x92,0x4a,0x00,0x30,0x92,0x4c,
0x4b,0x81,0x20,0x92,0x4c,0x00,0x20,0x92,0x48,0x4b,0x00,0x92,0x4d,0x4b,0x81,0x20,
0x92,0x48,0x00,0x00,0x92,0x4d,0x00,0x20,0x92,0x4d,0x4b,0x81,0x20,0x92,0x4d,0x00,
0x20,0x92,0x4f,0x4b,0x81,0x20,0x92,0x4f,0x00,0x20,0x92,0x51,0x4b,0x82,0x50,0x92,
0x51,0x00,0x30,0x92,0x4d,0x4b,0x81,0x20,0x92,0x4d,0x00,0x84,0x60,0x92,0x52,0x4b,
0x84,0x10,0x92,0x52,0x00,0x84,0x70,0x92,0x3c,0x4b,0x00,0x92,0x40,0x4b,0x82,0x00,
0x92,0x3c,0x00,0x00,0x92,0x40,0x00,0x20,0x92,0x3e,0x4b,0x82,0x00,0x92,0x3e,0x00,
0x20,0x92,0x41,0x4b,0x84,0x10,0x92,0x41,0x00,0x30,0x92,0x45,0x4b,0x84,0x10,0x92,
0x45,0x00,0x30,0x92,0x46,0x4b,0x5e,0x92,0x46,0x00,0x83,0x62,0x92,0x43,0x4b,0x84,
0x10,0x92,0x43,0x00,0x30,0x92,0x45,0x4b,0x5e,0x92,0x45,0x00,0x83,0x62,0x92,0x45,
0x4b,0x84,0x10,0x92,0x45,0x00,0x30,0x92,0x46,0x4b,0x5e,0x92,0x46,0x00,0x83,0x62,
0x92,0x43,0x4b,0x81,0x20,0x92,0x43,0x00,0x20,0x92,0x41,0x4b,0x81,0x20,0x92,0x41,
0x00,0x20,0x92,0x40,0x4b,0x81,0x20,0x92,0x40,0x00,0x20,0x92,0x3e,0x4b,0x81,0x20,
0x92,0x3e,0x00,0x81,0x60,0x92,0x3e,0x4b,0x5e,0x92,0x3e,0x00,0x02,0x92,0x40,0x4b,
0x5e,0x92,0x40,0x00,0x02,0x92,0x39,0x4b,0x00,0x92,0x41,0x4b,0x84,0x10,0x92,0x39,
0x00,0x00,0x92,0x41,0x00,0x30,0x92,0x43,0x4b,0x82,0x50,0x92,0x43,0x00,0x30,0x92,
0x40,0x4b,0x81,0x20,0x92,0x40,0x00,0x20,0x92,0x41,0x4b,0x81,0x20,0x92,0x41,0x00,
0x20,0x92,0x43,0x4b,0x81,0x20,0x92,0x43,0x00,0x20,0x92,0x45,0x4b,0x81,0x20,0x92,
0x45,0x00,0x20,0x92,0x3c,0x4b,0x00,0x92,0x43,0x4b,0x84,0x10,0x92,0x3c,0x00,0x00,
0x92,0x43,0x00,0x30,0x92,0x45,0x4b,0x82,0x50,0x92,0x45,0x00,0x30,0x92,0x43,0x4b,
0x5e,0x92,0x43,0x00,0x02,0x92,0x41,0x4b,0x5e,0x92,0x41,0x00,0x02,0x92,0x40,0x4b,
0x81,0x20,0x92,0x40,0x00,0x20,0x92,0x41,0x4b,0x81,0x20,0x92,0x41,0x00,0x20,0x92,
0x40,0x4b,0x81,0x20,0x92,0x40,0x00,0x20,0x92,0x3e,0x4b,0x82,0x50,0x92,0x3e,0x00,
0x30,0x92,0x40,0x4b,0x5e,0x92,0x40,0x00,0x02,0x92,0x3c,0x4b,0x5e,0x92,0x3c,0x00,
0x02,0x92,0x3e,0x4b,0x82,0x50,0x92,0x3e,0x00,0x30,0x92,0x4a,0x4b,0x5e,0x92,0x4a,
0x00,0x02,0x92,0x4c,0x4b,0x5e,0x92,0x4c,0x00,0x02,0x92,0x45,0x4b,0x00,0x92,0x4d,
0x4b,0x84,0x10,0x92,0x45,0x00,0x00,0x92,0x4d,0x00,0x30,0x92,0x4f,0x4b,0x81,0x20,
0x92,0x4f,0x00,0x20,0x92,0x4d,0x4b,0x81,0x20,0x92,0x4d,0x00,0x20,0x92,0x4f,0x4b,
0x81,0x20,0x92,0x4f,0x00,0x20,0x92,0x51,0x4b,0x81,0x20,0x92,0x51,0x00,0x20,0x92,
0x4f,0x4b,0x81,0x20,0x92,0x4f,0x00,0x20,0x92,0x4d,0x4b,0x81,0x20,0x92,0x4d,0x00,
0x20,0x92,0x41,0x4b,0x00,0x92,0x4a,0x4b,0x82,0x50,0x92,0x41,0x00,0x00,0x92,0x4a,
0x00,0x30,0x92,0x4c,0x4b,0x81,0x20,0x92,0x4c,0x00,0x20,0x92,0x4d,0x4b,0x81,0x20,
0x92,0x4d,0x00,0x20,0x92,0x4f,0x4b,0x81,0x20,0x92,0x4f,0x00,0x20,0x92,0x51,0x4b,
0x81,0x20,0x92,0x51,0x00,0x20,0x92,0x52,0x4b,0x81,0x20,0x92,0x52,0x00,0x20,0x92,
0x4a,0x4b,0x81,0x20,0x92,0x4a,0x00,0x20,0x92,0x4f,0x4b,0x81,0x20,0x92,0x4f,0x00,
0x20,0x92,0x4d,0x4b,0x82,0x50,0x92,0x4d,0x00,0x30,0x92,0x4f,0x4b,0x5e,0x92,0x4f,
0x00,0x02,0x92,0x4c,0x4b,0x5e,0x92,0x4c,0x00,0x02,0x92,0x4a,0x4b,0x84,0x10,0x92,
0x4a,0x00,0x30,0x92,0x51,0x4b,0x84,0x10,0x92,0x51,0x00,0x30,0x92,0x52,0x4b,0x84,
0x10,0x92,0x52,0x00,0x30,0x92,0x51,0x4b,0x81,0x20,0x92,0x51,0x00,0x20,0x92,0x51,
0x4b,0x81,0x20,0x92,0x51,0x00,0x20,0x92,0x51,0x4b,0x81,0x20,0x92,0x51,0x00,0x20,
0x92,0x51,0x4b,0x5e,0x92,0x51,0x00,0x02,0x92,0x4f,0x4b,0x82,0x00,0x92,0x4f,0x00,
0x81,0x60,0x92,0x4f,0x4b,0x84,0x10,0x92,0x4f,0x00,0x30,0x92,0x4d,0x4b,0x84,0x10,
0x92,0x4d,0x00,0x30,0x92,0x4d,0x4b,0x81,0x20,0x92,0x4d,0x00,0x20,0x92,0x4f,0x4b,
0x81,0x20,0x92,0x4f,0x00,0x20,0x92,0x4c,0x4b,0x81,0x20,0x92,0x4c,0x00,0x20,0x92,
0x4a,0x4b,0x84,0x10,0x92,0x4a,0x00,0x30,0x92,0x51,0x4b,0x84,0x10,0x92,0x51,0x00,
0x30,0x92,0x52,0x4b,0x84,0x10,0x92,0x52,0x00,0x30,0x92,0x51,0x4b,0x81,0x20,0x92,
0x51,0x00,0x20,0x92,0x51,0x4b,0x81,0x20,0x92,0x51,0x00,0x20,0x92,0x54,0x4b,0x81,
0x20,0x92,0x54,0x00,0x20,0x92,0x51,0x4b,0x5e,0x92,0x51,0x00,0x02,0x92,0x4f,0x4b,
0x82,0x00,0x92,0x4f,0x00,0x81,0x60,0x92,0x4f,0x4b,0x84,0x10,0x92,0x4f,0x00,0x30,
0x92,0x4d,0x4b,0x84,0x10,0x92,0x4d,0x00,0x30,0x92,0x4d,0x4b,0x81,0x20,0x92,0x4d,
0x00,0x20,0x92,0x4f,0x4b,0x81,0x20,0x92,0x4f,0x00,0x20,0x92,0x4c,0x4b,0x81,0x20,
0x92,0x4c,0x00,0x20,0x92,0x4a,0x4b,0x84,0x10,0x92,0x4a,0x00,0x00,0xff,0x2f,0x00,
};
